<svg xmlns="http://www.w3.org/2000/svg" xmlns:xlink="http://www.w3.org/1999/xlink" width="80" height="80" viewBox="0 0 80 80">
  <defs>
    <clipPath id="clip-path">
      <rect id="Rectangle_2526" data-name="Rectangle 2526" width="49.095" height="39.75" transform="translate(0 -0.001)" fill="#315820"/>
    </clipPath>
  </defs>
  <g id="Group_757" data-name="Group 757" transform="translate(2116 5395)">
    <g id="Component_8_1" data-name="Component 8 – 1" transform="translate(-2116 -5395)">
      <rect id="Rectangle_2561" data-name="Rectangle 2561" width="80" height="80" fill="#9dcb20"/>
      <g id="Group_709" data-name="Group 709" transform="translate(15 20)">
        <g id="Group_689" data-name="Group 689" clip-path="url(#clip-path)">
          <path id="Path_413" data-name="Path 413" d="M10.548,27.3a1.2,1.2,0,1,1,0-2.407H29.219a1.2,1.2,0,0,1,0,2.407Z" fill="#315820"/>
          <path id="Path_414" data-name="Path 414" d="M5.55,39.75A5.557,5.557,0,0,1,.008,34.208V17.988a5.492,5.492,0,0,1,.808-2.87l.133-.22-.1-.236a10.538,10.538,0,0,1,19.236-8.6l.325.692.5-.576a8.978,8.978,0,0,1,15.734,5.919c0,.191-.009.381-.02.572l-.018.316.277.152a5.513,5.513,0,0,1,2.855,4.423l.049.638,7.721-2.573A1.2,1.2,0,0,1,49.1,16.76V35.435a1.221,1.221,0,0,1-.063.387,1.2,1.2,0,0,1-1.137.818,1.219,1.219,0,0,1-.383-.062L39.79,34l-.05.637a5.576,5.576,0,0,1-5.523,5.11H5.55ZM2.416,34.209a3.141,3.141,0,0,0,3.133,3.134H34.214a3.146,3.146,0,0,0,3.094-2.634h.04l.005-.5V17.988a3.129,3.129,0,0,0-.794-2.068l-.5-.558-.327.671a8.985,8.985,0,0,1-8.061,5.046A9.032,9.032,0,0,1,19.953,16.7l-.392-.659-.445.625a10.646,10.646,0,0,1-.985,1.188,10.515,10.515,0,0,1-14.868.291l-.847-.814ZM39.755,20.741V31.455l6.929,2.309,0-15.332ZM27.663,5.516a6.577,6.577,0,1,0,6.577,6.577,6.594,6.594,0,0,0-6.577-6.577ZM10.547,2.4a8.133,8.133,0,1,0,8.134,8.133A8.153,8.153,0,0,0,10.547,2.4Z" fill="#315820"/>
        </g>
      </g>
    </g>
  </g>
</svg>
