<svg xmlns="http://www.w3.org/2000/svg" xmlns:xlink="http://www.w3.org/1999/xlink" width="80" height="80" viewBox="0 0 80 80">
  <defs>
    <clipPath id="clip-path">
      <rect id="Rectangle_2589" data-name="Rectangle 2589" width="68" height="61.635" fill="#315820"/>
    </clipPath>
  </defs>
  <g id="Group_766" data-name="Group 766" transform="translate(1870 5252)">
    <rect id="Rectangle_2562" data-name="Rectangle 2562" width="80" height="80" transform="translate(-1870 -5252)" fill="#9dcb20"/>
    <g id="Group_735" data-name="Group 735" transform="translate(-1864 -5243)">
      <g id="Group_734" data-name="Group 734" clip-path="url(#clip-path)">
        <path id="Path_462" data-name="Path 462" d="M166.015,157.013c.421-.818-.232-1.286-.78-1.805a14.015,14.015,0,0,0-1.824-1.674,5.531,5.531,0,0,0-2.887-.927c-1.293-.051-2.59-.07-3.877-.187a7.544,7.544,0,0,1-4.675-2.232c-.887-.867-1.759-1.749-2.632-2.63a1.067,1.067,0,1,1,1.485-1.51q1.265,1.252,2.518,2.517a5.921,5.921,0,0,0,4.192,1.815c1.186.032,2.374.063,3.556.157a7.361,7.361,0,0,1,4.68,2.207,16.943,16.943,0,0,1,1.21,1.229c.322.39.535.327.826-.015s.6-.618.912-.918a1.053,1.053,0,0,1,1.576-.094,1.083,1.083,0,0,1-.082,1.582c-.491.5-.991.993-1.488,1.487a1.488,1.488,0,0,0-.131,2.226,1.69,1.69,0,0,0,2.384.018c.93-.9,1.835-1.826,2.751-2.742q3.681-3.681,7.364-7.358a1.765,1.765,0,0,0,.611-1.59,1.554,1.554,0,0,0-1.125-1.318,1.352,1.352,0,0,0-1.506.4c-1.556,1.6-3.142,3.162-4.719,4.738a1.1,1.1,0,0,1-1.621.12,1.068,1.068,0,0,1,.125-1.614c1.384-1.388,2.761-2.782,4.161-4.153.278-.272.262-.426,0-.677A20.019,20.019,0,0,1,175.044,142c-.242-.305-.375-.245-.614,0q-3.574,3.6-7.167,7.174c-.115.114-.226.232-.348.339a1.052,1.052,0,0,1-1.482-1.492c.685-.713,1.4-1.4,2.095-2.1,1.857-1.856,3.7-3.72,5.578-5.559a.543.543,0,0,0,.084-.844,11.782,11.782,0,0,1-1.068-1.808,16.215,16.215,0,0,0-3.9-5.173c-1.06-1-2.074-2.045-3.091-3.087a1.054,1.054,0,0,1,.363-1.792,1.042,1.042,0,0,1,1.133.3c1.638,1.641,3.285,3.275,4.9,4.935a10.62,10.62,0,0,1,1.936,2.842,24.24,24.24,0,0,0,5.355,7.176.721.721,0,0,0,.67.2,3.763,3.763,0,0,1,3.244,6.387q-5.152,5.184-10.345,10.327a3.516,3.516,0,0,1-4.094.727,3.69,3.69,0,0,1-2.283-3.533" transform="translate(-115.859 -99.264)" fill="#315820"/>
        <path id="Path_463" data-name="Path 463" d="M14.03,156.494a3.793,3.793,0,0,1-2.744-1.19q-5.033-5.035-10.066-10.07a3.8,3.8,0,0,1-.828-4.454,3.732,3.732,0,0,1,4.03-2.035.675.675,0,0,0,.614-.223,23.794,23.794,0,0,0,5.229-6.937,13.959,13.959,0,0,1,2.845-3.9c1.721-1.685,3.41-3.4,5.114-5.107.114-.114.226-.233.351-.335a1.05,1.05,0,0,1,1.456,1.513c-.67.7-1.366,1.379-2.052,2.066-1.067,1.069-2.116,2.156-3.207,3.2a12.74,12.74,0,0,0-2.7,3.671,17.625,17.625,0,0,1-1.7,2.874c-.275.368-.236.578.079.889,2.111,2.083,4.2,4.185,6.3,6.281l.153.152c.57.571.64,1.183.188,1.656-.468.491-1.088.43-1.694-.172q-.995-.988-1.984-1.983c-1.437-1.436-2.885-2.861-4.3-4.316-.319-.328-.47-.269-.739.038-.485.553-1.005,1.078-1.54,1.585-.277.262-.262.421.005.682,1.31,1.283,2.6,2.586,3.9,3.881.1.1.2.2.3.306a1.07,1.07,0,0,1,.078,1.582,1.1,1.1,0,0,1-1.587-.09c-.555-.538-1.092-1.094-1.638-1.641q-1.544-1.545-3.089-3.088a1.434,1.434,0,0,0-1.93-.276,1.673,1.673,0,0,0-.291,2.537q5.159,5.175,10.336,10.332a1.564,1.564,0,0,0,1.8.3,1.54,1.54,0,0,0,.975-1.431,1.1,1.1,0,0,0-.348-.921c-.572-.545-1.126-1.111-1.679-1.676a1.088,1.088,0,0,1-.113-1.62,1.066,1.066,0,0,1,1.615.127c.335.325.676.647.987.995.212.236.352.277.589.015.4-.44.84-.837,1.256-1.261a7.632,7.632,0,0,1,5.343-2.341c.988-.038,1.976-.085,2.965-.1a5.933,5.933,0,0,0,4.235-1.846c.266-.268.523-.546.8-.8a1.05,1.05,0,0,1,1.5,1.465,8.664,8.664,0,0,1-6.791,3.318,22.709,22.709,0,0,0-3.55.187,5.131,5.131,0,0,0-2.835,1.449c-.566.552-1.112,1.126-1.687,1.669a.7.7,0,0,0-.219.709,3.746,3.746,0,0,1-3.745,4.336" transform="translate(0 -94.892)" fill="#315820"/>
        <path id="Path_464" data-name="Path 464" d="M174.528,196.4a3.9,3.9,0,0,1,2.335,2.355.991.991,0,0,1-.569.911.941.941,0,0,1-1.112-.108,19.691,19.691,0,0,1-1.482-1.488.939.939,0,0,1-.091-1.113,1,1,0,0,1,.919-.557" transform="translate(-134.961 -152.799)" fill="#315820"/>
        <path id="Path_465" data-name="Path 465" d="M120.088,201.044a1.873,1.873,0,0,1-1.491,1.542,1.043,1.043,0,0,1-1.077-1.035,1.865,1.865,0,0,1,1.488-1.546,1.053,1.053,0,0,1,1.08,1.038" transform="translate(-91.431 -155.605)" fill="#315820"/>
        <path id="Path_466" data-name="Path 466" d="M122.455,21.348a7.915,7.915,0,0,0-2.222-5.567c-.712-.761-1.425-1.522-2.129-2.291a5.457,5.457,0,0,1-1.477-3.828c0-.719.014-1.439-.007-2.157a.762.762,0,0,1,.363-.709,3.73,3.73,0,0,0,1.346-4.178A3.711,3.711,0,0,0,114.8.016q-7.336-.028-14.671,0A3.711,3.711,0,0,0,96.6,2.638,3.735,3.735,0,0,0,97.97,6.81a.743.743,0,0,1,.341.659,23.923,23.923,0,0,1-1.292,8.857,10.929,10.929,0,0,0-.646,3.595c-.018,5.016-.032,10.033,0,15.049a3.294,3.294,0,0,0,4.138,3.323c.287-.057.4-.025.384.285-.016.395-.016.791,0,1.186a3.32,3.32,0,0,0,4.346,3.22c.344-.094.379.064.482.289a3.3,3.3,0,0,0,6.083.02c.142-.322.275-.361.595-.273a3.262,3.262,0,0,0,4-2.06,4.151,4.151,0,0,0,.226-1.483c-.006-1.868,0-3.736,0-5.651a1.985,1.985,0,0,1,.241.056,4.03,4.03,0,0,0,5.6-3.906c-.035-2.876,0-5.753-.01-8.63M120.333,29.9a2.624,2.624,0,0,1-.117.9,1.83,1.83,0,0,1-3.582-.559c-.013-2.787-.006-5.574-.007-8.361q0-1.5-1.067-1.49c-.706,0-1.059.5-1.06,1.51q0,4.4,0,8.793,0,4.343,0,8.685a2.013,2.013,0,0,1-.157,1,1.165,1.165,0,0,1-1.253.638A1.209,1.209,0,0,1,112.111,40a5.573,5.573,0,0,1-.021-.7q0-4.774,0-9.548a4.2,4.2,0,0,0-.009-.485,1.057,1.057,0,0,0-.96-.938,1.021,1.021,0,0,0-1.092.771,2.849,2.849,0,0,0-.059.694q-.006,5.961-.006,11.922a1.786,1.786,0,0,1-.091.743,1.188,1.188,0,0,1-2.283-.317,4.312,4.312,0,0,1-.03-.7q0-5.853,0-11.706c0-.072,0-.144,0-.216-.011-.762-.413-1.24-1.046-1.244-.666,0-1.071.467-1.076,1.267-.006.971,0,1.942,0,2.913q0,3.426,0,6.851a5.141,5.141,0,0,1-.025.7,1.13,1.13,0,0,1-.929,1,1.1,1.1,0,0,1-1.244-.541,1.812,1.812,0,0,1-.22-1.038q0-4.963,0-9.926c0-.882-.623-1.4-1.379-1.175a1.1,1.1,0,0,0-.743,1.183c-.006,1.672,0,3.345,0,5.017,0,.18,0,.36,0,.539a1.214,1.214,0,0,1-1.178,1.223,1.235,1.235,0,0,1-1.21-1.15,4.25,4.25,0,0,1-.015-.485q0-7.2,0-14.4a11.922,11.922,0,0,1,.694-3.746,21.127,21.127,0,0,0,.822-3.18c.061-.376.23-.444.572-.443,3.345.012,6.689.007,10.034.007a4.684,4.684,0,0,0,.539-.011,1.054,1.054,0,0,0,.019-2.095,3.485,3.485,0,0,0-.484-.014c-3.255,0-6.51-.009-9.764.009-.452,0-.574-.1-.533-.569a19.288,19.288,0,0,0,.038-2.263c-.012-.416.1-.55.536-.545,1.888.024,3.776.01,5.664.008a3.524,3.524,0,0,0,.485-.016,1.045,1.045,0,0,0,.034-2.062A3.311,3.311,0,0,0,106.6,5.3q-3.237,0-6.474,0A1.419,1.419,0,0,1,98.6,4.168a1.644,1.644,0,0,1,.855-1.86,1.724,1.724,0,0,1,.778-.193q7.229,0,14.457,0a1.636,1.636,0,0,1,1.6,1.073,1.6,1.6,0,0,1-.413,1.78,1.073,1.073,0,0,1-.819.338q-1.213-.02-2.427,0a1.06,1.06,0,1,0,.007,2.105c.09,0,.18-.006.27,0,.514.039,1.187-.228,1.5.111s.083,1,.092,1.516a12.5,12.5,0,0,0,.154,2.148,7.363,7.363,0,0,0,1.761,3.584c.743.83,1.512,1.638,2.273,2.452a5.907,5.907,0,0,1,1.65,4.207c-.009,2.823,0,5.646,0,8.469" transform="translate(-74.964 0)" fill="#315820"/>
      </g>
    </g>
  </g>
</svg>
