<svg xmlns="http://www.w3.org/2000/svg" xmlns:xlink="http://www.w3.org/1999/xlink" width="80" height="80" viewBox="0 0 80 80">
  <defs>
    <clipPath id="clip-path">
      <rect id="Rectangle_2596" data-name="Rectangle 2596" width="69.821" height="49.857" fill="#315820"/>
    </clipPath>
  </defs>
  <g id="Group_764" data-name="Group 764" transform="translate(1610 5252)">
    <rect id="Rectangle_2584" data-name="Rectangle 2584" width="80" height="80" transform="translate(-1610 -5252)" fill="#9dcb20"/>
    <g id="Group_750" data-name="Group 750" transform="translate(-1605 -5237)">
      <g id="Group_749" data-name="Group 749" clip-path="url(#clip-path)">
        <path id="Path_494" data-name="Path 494" d="M64.18,88.874a2.776,2.776,0,0,1-2.024-.886.95.95,0,0,1-.138-1.435.855.855,0,0,1,1.306-.176,1.382,1.382,0,0,0,2.033-.038c.472-.385.944-.165,1.291.263a.9.9,0,0,1-.055,1.234,2.958,2.958,0,0,1-2.413,1.038" transform="translate(-44.851 -62.568)" fill="#315820"/>
        <path id="Path_495" data-name="Path 495" d="M189.685,91.245a2.874,2.874,0,0,1-2.17-.918.989.989,0,0,1-.165-1.341.882.882,0,0,1,1.311-.246,1.521,1.521,0,0,0,2.162-.017.873.873,0,0,1,1.211.223.941.941,0,0,1-.062,1.34,2.884,2.884,0,0,1-2.286.958" transform="translate(-135.942 -64.315)" fill="#315820"/>
        <path id="Path_496" data-name="Path 496" d="M214.365,86.315c0-.9.153-1.656,1.12-1.611.867.04.99.769.982,1.5-.008.763-.073,1.565-1.05,1.569s-1.031-.819-1.052-1.457" transform="translate(-155.706 -61.523)" fill="#315820"/>
        <path id="Path_497" data-name="Path 497" d="M45.914,84.163c.015-1.092.179-1.873,1.135-1.8.936.071.977.895.972,1.651s-.2,1.447-1.061,1.422a1.066,1.066,0,0,1-1.046-1.272" transform="translate(-33.348 -59.821)" fill="#315820"/>
        <path id="Path_498" data-name="Path 498" d="M90.7,83.922c0,.773-.125,1.558-1.087,1.523-.848-.031-.981-.748-.978-1.489,0-.772.077-1.565,1.018-1.588.973-.024,1.035.8,1.047,1.555" transform="translate(-64.383 -59.827)" fill="#315820"/>
        <path id="Path_499" data-name="Path 499" d="M173.154,86.1c.035.92-.054,1.707-1.049,1.647s-.9-.917-.921-1.64c-.024-.744.106-1.451.994-1.431.973.022,1.057.792.975,1.423" transform="translate(-124.34 -61.508)" fill="#315820"/>
        <path id="Path_500" data-name="Path 500" d="M38.394,5.629c-.7-1.321-1.462-2.609-2.233-3.889C35.028-.141,33.279-.513,31.41.712a13.352,13.352,0,0,0-4.678,5.2c-.328.647-.608.8-1.335.519a16,16,0,0,0-11.943,0c-.724.281-1.011.152-1.349-.515A13.2,13.2,0,0,0,7.2.57,3.014,3.014,0,0,0,2.75,1.619C1.99,2.853,1.274,4.115.572,5.383-.663,7.615.141,9.542,2.594,10.209a14.488,14.488,0,0,1,3.019,1.2c.421.224.614.463.266.948a12.764,12.764,0,0,0-2.158,7.034c-.409,6.661,1.684,11.93,7.306,15.622,1.017.668,1.372,1.055.6,2.191a6.286,6.286,0,0,0-1.012,4.421c.192,1.386,1.565,2.221,1.915,3.581a.956.956,0,0,0,.621.491c.65.176.722.613.818,1.2a3.171,3.171,0,0,0,4.749,2.529,1.466,1.466,0,0,1,1.482.048,2.93,2.93,0,0,0,4.045-1.054c.65-1.322,1.068-2.693,2.349-3.624.5-.364.262-1.277.91-1.743a2.306,2.306,0,0,0,.8-2.328,8.308,8.308,0,0,0-1.32-3.953c-.558-.768-.348-1.1.412-1.478.706-.351,1.686-.793,1.038-1.807-.632-.988-1.424-.272-2.118.123-.118.067-.236.135-.356.2A13.723,13.723,0,0,1,5.708,21.842c0-2.623,0-2.623,2.65-2.624.954,0,1.908,0,2.862,0a20.807,20.807,0,0,0,11.875-3.738c.777-.532,1.616-1.607,2.283-1.5.808.125,1.474,1.225,2.183,1.92,1.45,1.421,2.734,3.081,4.975,3.32.538.057.422.506.467.84a13.335,13.335,0,0,1-2.734,10.085c-.451.606-.989,1.216-.213,1.874.816.693,1.326,0,1.767-.584A15.377,15.377,0,0,0,35,19.56a2.537,2.537,0,0,1-.071-1.2,3.769,3.769,0,0,0-.427-3.253,17.521,17.521,0,0,0-1.387-2.487c-.435-.634-.429-.979.308-1.325a20.184,20.184,0,0,1,3.046-1.138,3.029,3.029,0,0,0,1.922-4.525M17.186,47.787A1.078,1.078,0,0,1,16.042,46.7c-.092-.942.634-.643,1.1-.74.461.142,1.244-.3,1.23.626a1.108,1.108,0,0,1-1.187,1.207m5.658-1.038A1.151,1.151,0,0,1,21.6,47.788a1.077,1.077,0,0,1-1.13-1.241c.1-1.04.978-.45,1.5-.551.435-.083.962-.071.875.754m-8.771-9.66a.854.854,0,0,1,.97-.207,15.849,15.849,0,0,0,8.716,0,.957.957,0,0,1,1.227.5,6.3,6.3,0,0,1,1.162,4.312c-.516-.742-.822-1.225-1.172-1.675a1.007,1.007,0,0,0-1.449-.241A.925.925,0,0,0,23.3,41.1c.407.7.888,1.365,1.328,2.051.355.554.207.832-.465.831q-4.763-.006-9.527,0c-.731,0-.748-.338-.419-.844.419-.645.85-1.283,1.275-1.925a.944.944,0,0,0-.189-1.433,1,1,0,0,0-1.439.246c-.387.43-.568,1.032-1.107,1.349a5.818,5.818,0,0,1,1.32-4.287M3.055,8.24a1.085,1.085,0,0,1-.768-1.761c.69-1.269,1.433-2.51,2.168-3.755a1.122,1.122,0,0,1,1.082-.665,1.184,1.184,0,0,1,.389.112,11.747,11.747,0,0,1,4.58,5.051c.02.041.039.082.055.124.216.57-.28.792-.6.892-1.106.348-1.431,2.271-2.908,1.63a26.745,26.745,0,0,0-4-1.629m29.79,8.095c.107.246.277.544,0,.732-.142.1-.429.017-.64-.03A3.749,3.749,0,0,1,30.4,15.884c-1.348-1.348-2.71-2.682-4.044-4.044-.611-.624-1.191-.767-1.869-.115A19.535,19.535,0,0,1,9.751,17.244c-1.28,0-2.148-.057-3,.015-1.044.088-.981-.354-.688-1.1,2.988-7.582,12.889-11.244,19.9-7.209,1.136.654,2.141,1.613,3.29,2.361C31,12.454,32,14.4,32.845,16.334m3.109-8.149a15.981,15.981,0,0,0-4.238,1.756c-.546.324-3.578-1.563-3.558-2.2a1.942,1.942,0,0,1,.287-.748,12.376,12.376,0,0,1,3.992-4.538c.923-.651,1.556-.476,2.087.49.759,1.382,1.56,2.74,2.249,3.943.048.811-.3,1.164-.818,1.3" transform="translate(0 0)" fill="#315820"/>
        <path id="Path_501" data-name="Path 501" d="M168.678,29.455a4.091,4.091,0,0,1-.045-3.89c.653-1.275,1.245-2.764-.189-3.978-1.382-1.17-2.659-.388-3.825.444a2.013,2.013,0,0,1-2.543-.048,15.974,15.974,0,0,0-23.191,18.905,16.277,16.277,0,0,0,8.43,9.448A9.819,9.819,0,0,0,145,56.621a3.154,3.154,0,0,0,2.288,3.315c.869.206,1,.635,1.127,1.369a3.268,3.268,0,0,0,4.921,2.463,1.316,1.316,0,0,1,1.44.016,3.261,3.261,0,0,0,4.907-2.632c.065-.708.25-.993.963-1.172a3.071,3.071,0,0,0,2.383-3.074,9.252,9.252,0,0,0-2.25-6.536c.7-.413,1.334-.756,1.932-1.158a.931.931,0,0,0,.407-1.289,1.008,1.008,0,0,0-1.4-.423,5.461,5.461,0,0,0-.713.393,13.993,13.993,0,0,1-20.78-9.957c-.175-1.013.141-1.125.992-1.118,3.589.031,7.178.023,10.767.01A17.259,17.259,0,0,0,160.6,34.7a1.491,1.491,0,0,1,1.825.124,9.48,9.48,0,0,0,4.388,1.724c1.164.112,1.2.708,1.038,1.549a14.1,14.1,0,0,1-2.949,6.483c-.5.6-.969,1.243-.175,1.862s1.323-.02,1.78-.622c3.832-5.042,4.666-10.532,2.175-16.362M157.694,60.937a1.312,1.312,0,0,1-2.622-.106c-.018-.271,0-.545-.012-.817a1,1,0,0,0-.988-1.083c-.675-.033-.964.417-1.005,1.035-.07,1.048.017,2.324-1.536,2.163-1.451-.151-1.047-1.435-1.118-2.31.035-2.244-.27-1.942,1.861-1.964,1.5-.016,3,.019,4.5-.012.677-.014,1.024.18.976.919-.047.723.038,1.459-.054,2.174m2.935-5.7c.536-.037.345.508.4.822a3.041,3.041,0,0,1,.014.679c-.029.649-.3,1.3-.963,1.265-.8-.043-.074-.845-.346-1.076a5.61,5.61,0,0,1,.009-.954.963.963,0,0,1,.882-.736m-12.379-2.6c.4-.893,1-1.659,2.318-1.284a12.981,12.981,0,0,0,6.966.008,1.738,1.738,0,0,1,1.981.7c.612.709.464,1.131-.28,1.582-.708.43-1.555.75-1.547,1.853,0,.478-.531.38-.876.384-.95.011-1.9,0-2.85,0-.543,0-1.086-.006-1.628,0-.947.014-1.973.254-2.167-1.2-.039-.294-.6-.5-.88-.784-.388-.4-1.39-.49-1.038-1.27m-.037,5.236c-.528.415-.9-.158-1.034-.61a4.1,4.1,0,0,1,.038-2.018c.906.315,1.631,2.127,1,2.627m4.563-23.153c-1.767.081-3.541.012-5.312.012v.008c-2.134,0-4.269-.022-6.4.011-.787.012-.985-.2-.856-1.024a13.933,13.933,0,0,1,21.138-9.773,3.236,3.236,0,0,0,3.924.051c.553-.338,1.3-1.171,1.717-.769.551.538-.123,1.407-.429,2.065-2.722,5.857-7.255,9.12-13.78,9.418m14.268-.133a10.161,10.161,0,0,1-3.719-1.642,18.139,18.139,0,0,0,2.713-2.795c.336-.438.586-.494.835.1a14.417,14.417,0,0,1,1.015,3.631c.1.717-.2.879-.844.7" transform="translate(-100.273 -14.376)" fill="#315820"/>
      </g>
    </g>
  </g>
</svg>
