<svg xmlns="http://www.w3.org/2000/svg" xmlns:xlink="http://www.w3.org/1999/xlink" width="80" height="80" viewBox="0 0 80 80">
  <defs>
    <clipPath id="clip-path">
      <rect id="Rectangle_2588" data-name="Rectangle 2588" width="57.165" height="53.889" fill="#315820"/>
    </clipPath>
  </defs>
  <g id="Group_769" data-name="Group 769" transform="translate(2204 5252)">
    <g id="Group_733" data-name="Group 733">
      <rect id="Rectangle_2557" data-name="Rectangle 2557" width="80" height="80" transform="translate(-2204 -5252)" fill="#9dcb20"/>
      <g id="Group_732" data-name="Group 732" transform="translate(-2193 -5239)">
        <g id="Group_731" data-name="Group 731" clip-path="url(#clip-path)">
          <path id="Path_458" data-name="Path 458" d="M134.006,99.964a2.876,2.876,0,0,0-2.91,2.945,2.87,2.87,0,1,0,2.91-2.945" transform="translate(-95.267 -72.644)" fill="#315820"/>
          <path id="Path_459" data-name="Path 459" d="M90.947,137.055c-.822-.429-1.289.177-1.585.825a5.911,5.911,0,0,1-5.8,3.769,5.839,5.839,0,0,1-5.5-3.791c-.327-.737-.766-1.195-1.556-.792s-.643,1.123-.368,1.79a8.284,8.284,0,0,0,15.218-.033c.3-.729.33-1.383-.407-1.768" transform="translate(-55.17 -99.493)" fill="#315820"/>
          <path id="Path_460" data-name="Path 460" d="M59.593,99.984a2.945,2.945,0,0,0,.214,5.883,2.944,2.944,0,1,0-.214-5.883" transform="translate(-41.307 -72.658)" fill="#315820"/>
          <path id="Path_461" data-name="Path 461" d="M57.037,30.228a6.862,6.862,0,0,0-5.1-5.825,2.663,2.663,0,0,1-2.143-2.118,9.176,9.176,0,0,0-.42-1.294C45.649,12.387,39.163,7.581,29.78,6.774c-.41-.035-.916.016-1.06-.44a3.815,3.815,0,0,1,.33-3.16,1.991,1.991,0,0,1,2.159-.846,2.007,2.007,0,0,1,1.664,1.747c.184.713.448,1.575,1.384,1.328.978-.259,1.059-1.126.79-2.01A4.581,4.581,0,0,0,30.336.031a4.43,4.43,0,0,0-3.871,4.537c-.071,2.484.423,1.925-2.115,2.594-.132.035-.265.064-.4.1-8.1,1.887-13.611,6.711-16.422,14.56a3.47,3.47,0,0,1-2.584,2.689A7.175,7.175,0,0,0,.06,32.535,7.4,7.4,0,0,0,6.188,38.79c1.2.13,1.584.826,2,1.7,4.124,8.718,11.178,12.894,20.6,13.4,9.493-.679,16.356-5.089,20.32-13.768.337-.737.75-1.276,1.572-1.283a5.985,5.985,0,0,0,3.581-1.505,7,7,0,0,0,2.779-7.106M5.872,36.448c-2.1-.342-4.058-3.238-3.7-5.488a5.626,5.626,0,0,1,2.871-4.2c1-.579,1.286-.438,1.3.693.015,1.041,0,2.083,0,3.124A20.831,20.831,0,0,0,6.682,35.7c.2.752-.171.848-.81.744M39.1,48.6A19.825,19.825,0,0,1,10.109,39.2c-3.09-7.955-2.532-15.717,2.771-22.7a18.989,18.989,0,0,1,11.978-7.23c.97-.185,1.733-.145,1.645,1.2-.044.663.464.939,1.087.964.667.027.9-.458.916-.968.034-1.409.829-1.562,2-1.458A20.154,20.154,0,0,1,47.939,23.7a29.353,29.353,0,0,1,.674,5.406c.344,8.811-2.7,15.261-9.511,19.494M51.488,36.408c-.894.3-1.26.082-1.052-.82a31.934,31.934,0,0,0,.382-8.145c-.029-1.077.4-1.175,1.232-.7a5.289,5.289,0,0,1-.562,9.662" transform="translate(0 0)" fill="#315820"/>
        </g>
      </g>
    </g>
  </g>
</svg>
