<svg xmlns="http://www.w3.org/2000/svg" xmlns:xlink="http://www.w3.org/1999/xlink" width="80" height="80" viewBox="0 0 80 80">
  <defs>
    <clipPath id="clip-path">
      <rect id="Rectangle_2575" data-name="Rectangle 2575" width="60.815" height="58.055" fill="#315820"/>
    </clipPath>
  </defs>
  <g id="Group_751" data-name="Group 751" transform="translate(2751 5395)">
    <rect id="Rectangle_2552" data-name="Rectangle 2552" width="80" height="80" transform="translate(-2751 -5395)" fill="#9dcb20"/>
    <g id="Group_712" data-name="Group 712" transform="translate(-2741.408 -5383.027)">
      <g id="Group_711" data-name="Group 711" clip-path="url(#clip-path)">
        <path id="Path_415" data-name="Path 415" d="M58.423,19.464A3.212,3.212,0,0,0,60.8,16.5a2.717,2.717,0,0,0-1.567-2.959c-1.652-.567-1.558-1.669-1.49-2.939.036-.671.019-1.347,0-2.02A8.721,8.721,0,0,0,50.9.247a22.861,22.861,0,0,0-5.209-.2,8.583,8.583,0,0,0-8.413,7.282c-.152.95-.179,1.919-.265,2.9-4.492-1.521-7.24-1.528-13.27-.04,0-.412,0-.8,0-1.193A8.61,8.61,0,0,0,16.374.164,27.225,27.225,0,0,0,11.631.047,8.666,8.666,0,0,0,3.275,7.135a28.105,28.105,0,0,0-.168,4.856c-.011.582-.124.9-.737,1.124A3.491,3.491,0,0,0,0,16.348a3.565,3.565,0,0,0,2.6,3.188c.351.11.677.148.779.592a12.187,12.187,0,0,0,1.622,3.629c-.259.035-.4.064-.543.071C1.768,23.959.8,24.97.787,27.679c-.007,1.822,0,3.645,0,5.467,0,3.407-.006,6.814,0,10.22,0,1.754.447,2.2,2.161,2.22a17.8,17.8,0,0,0,2.138-.01A8.756,8.756,0,0,1,12.046,47.5a2.089,2.089,0,0,0,2.736.027c.932-.629,1.9-1.2,3.025-1.9,0,3.084-.006,5.928,0,8.772,0,1.4.531,1.942,1.921,1.954,1.782.016,3.568.07,5.347-.017a5.165,5.165,0,0,1,3.756,1.071,2.242,2.242,0,0,0,3.13.007,5.166,5.166,0,0,1,3.754-1.079c1.778.091,3.564.033,5.347.018,1.389-.012,1.943-.563,1.951-1.94.012-2.1,0-4.2,0-6.3v-2.5c1.171.732,2.146,1.318,3.1,1.942a1.947,1.947,0,0,0,2.526.029c2.234-1.939,4.855-2.268,7.65-2.006.353.033.713,0,1.069,0,2.4,0,2.7-.294,2.7-2.64q0-4.694,0-9.388a8.731,8.731,0,0,0-.075-1.3.787.787,0,0,0-.823-.711.837.837,0,0,0-.849.693,3.651,3.651,0,0,0-.052.708c-.012.253-.052.5-.378.481s-.347-.264-.347-.514c0-.634,0-1.268,0-1.9-.022-1.691-.8-2.162-2.251-1.342-2.343,1.322-4.671,2.669-7.013,3.994-.329.186-.657.552-1.08.317-1.521-.845-3.03-1.713-4.534-2.588a.7.7,0,0,1-.236-.953c.163-.355.476-.073.725-.01a4.246,4.246,0,0,0,3.725-.648.814.814,0,0,1,1.119-.019,4.289,4.289,0,0,0,6.849-3.231c.095-.857.43-.915,1.1-.916,2.046,0,2.2.122,2.329,2.157a2.419,2.419,0,0,0,.039.472.854.854,0,0,0,1.682.051,3.389,3.389,0,0,0-2.856-4.454c-.384-.036-.772-.037-1.268-.059a13.629,13.629,0,0,0,1.45-3.171,1.353,1.353,0,0,1,1.121-1.15M57.8,14.755a1.542,1.542,0,0,1,1.148,1.762A1.29,1.29,0,0,1,57.8,17.733ZM2.956,17.664c-.25.113-.444-.078-.618-.24-.814-.755-.558-1.916.754-2.674,0,.892,0,1.639,0,2.386,0,.185.079.433-.132.529M54.919,43.7c.482-.321.759-.534,1.061-.7a2.549,2.549,0,0,0,1.552-2.548c-.02-.285-.109-.714.377-.7s.3.453.339.729a4.267,4.267,0,0,1,.006.589c0,2.974,0,2.974-3.335,2.63M56.877,35.2c.832.088,1.588-.054,1.4,1.206-.119.791.235,1.827-1.188,1.448-1.022.223-1.484-.087-1.376-1.2.078-.8-.126-1.587,1.165-1.451m-7.862.07c1.92-1.1,3.833-2.211,5.769-3.282.263-.146.719-.729.924-.1.152.466.442,1.342-.319,1.546-1.326.355-1.475,1.245-1.43,2.353.027.672.027,1.346,0,2.017a1.7,1.7,0,0,0,1.185,1.833.878.878,0,0,1,.167,1.66c-2.243,1.463-4.523,2.868-7.026,4.446,0-3.363.01-6.443-.009-9.522,0-.557.361-.737.739-.953M38.9,9.428a7.1,7.1,0,0,1,7.671-7.676,27.587,27.587,0,0,1,3.671.161,6.823,6.823,0,0,1,5.638,6.052c.1,1.061.039,2.135.087,3.2.033.736-.295.755-.868.553a6.4,6.4,0,0,1-3.228-2.672c-.733-1.107-1.121-1.138-1.943-.124a6.9,6.9,0,0,1-4.047,2.043,39.9,39.9,0,0,1-5.529.662c-1.124.119-1.655-.173-1.459-1.371a5.226,5.226,0,0,0,.006-.83m-10.329,1.52c.633-.009,1.267,0,1.9,0,2.737-.206,5.3.2,7.4,2.155a8.3,8.3,0,0,1,2.737,6.1c.026,1.029-.05,2.064.027,3.087.073.971-.4.962-1.068.731a7.7,7.7,0,0,1-4-3.2c-.891-1.375-1.165-1.381-2.207-.1a7.176,7.176,0,0,1-3.891,2.133,33.716,33.716,0,0,1-8.463.975c-.4.008-.829.038-.808-.57a27.289,27.289,0,0,1,.125-4.5,8.265,8.265,0,0,1,8.246-6.809m11.615,14.8a.869.869,0,0,1,.43-.874c0,2.451.018,4.684-.011,6.916-.008.634-.567.4-.915.422-.374.021-.475-.167-.307-.524a13.168,13.168,0,0,0,.8-5.94M28.175,32.343c.1-.424.344-.462.675-.461q.827,0,1.655,0c2.115,0,2.115,0,2.114,2.088,0,1.682,0,1.682-1.668,1.772-2.79.151-3.449-.671-2.775-3.4m1.2,5.157a2.2,2.2,0,0,1-2.71,1.294,2.554,2.554,0,0,1-1.829-2.922A10.9,10.9,0,0,0,29.374,37.5m3.051-.137A11.153,11.153,0,0,0,35.383,36.2c.157-.1.4-.215.528-.16.264.109.166.4.136.624a2.574,2.574,0,0,1-2.547,2.2,2.412,2.412,0,0,1-1.251-.3c-.335-.208-.818-.423-.788-.809.042-.536.62-.291.963-.383m3.4-3.674c-.351.31-.742.576-1.4,1.081,0-1.092.02-1.869,0-2.644-.043-1.339-.647-2-1.947-2.041-1.383-.044-2.771-.046-4.154,0-1.311.044-1.9.7-1.937,2.04-.021.75-.024,1.5-.038,2.252,0,.033-.032.066-.111.221a7.756,7.756,0,0,1-3.852-6.268c-.33-3.719-.3-3.676,3.348-4.032,2.925-.285,5.808-.8,8.218-2.684.406-.317.6-.2.854.128a9.218,9.218,0,0,0,3.113,2.513c.255.128.516.244.53.569.133,3.252.1,6.459-2.622,8.864M20.2,25.633a1.3,1.3,0,0,1,.365-1.2c.187,2.718-.254,5.315,1.026,7.645-1.1.381-1.457.077-1.415-.987.072-1.817.01-3.64.024-5.46M8.133,2.87a8.752,8.752,0,0,1,5.367-1.1,10.7,10.7,0,0,1,3.413.3A6.859,6.859,0,0,1,21.907,8.3c.054.907.008,1.82.033,2.73.02.739-.3.9-.955.654a6.373,6.373,0,0,1-3.052-2.531C17.093,7.913,16.8,7.9,15.848,9c-1.224,1.418-2.962,1.739-4.66,2.1a33.775,33.775,0,0,1-5.427.519c-.394.02-.756.06-.886-.513A8.055,8.055,0,0,1,8.133,2.87M4.908,13.834c0-.68.632-.458,1.013-.464a27.648,27.648,0,0,0,7.611-1.018,7.694,7.694,0,0,0,2.656-1.275c.513-.414.772-.29,1.139.162a8.6,8.6,0,0,0,2.11,1.71c.267.172,1,.172.63.725-.3.449-.261,1.349-1.208,1.2a2.97,2.97,0,0,0-2.228.608.914.914,0,0,0-.36,1.328c.31.489.78.465,1.248.187.3-.18.621-.494.97-.291.485.283.023.7.025,1.061.009,1.977-.037,3.955-.048,5.933,0,.571-.006,1.11-.878,1.285,0-.959.013-1.851,0-2.742-.025-1.345-.631-1.989-1.934-2.011q-2.255-.037-4.51,0a1.729,1.729,0,0,0-1.895,1.924c-.015.474,0,.95,0,1.424,0,.43,0,.861,0,1.53a8.3,8.3,0,0,1-3.572-3.8c-1.143-2.4-.747-4.962-.763-7.475m6.055,8.631a.553.553,0,0,1,.638-.515c.592,0,1.183,0,1.775,0,2.486,0,2.486,0,2.485,2.463,0,1.663-.023,1.685-1.707,1.777-3.185.174-3.851-.614-3.19-3.724m1.278,5.456a2.422,2.422,0,0,1-2.776.764,2.324,2.324,0,0,1-1.648-2.231,12.945,12.945,0,0,0,4.424,1.467m5.242-.759c.277-.125.653-.558.906-.077a.972.972,0,0,1-.267,1.185,2.392,2.392,0,0,1-3.354-.309,17.54,17.54,0,0,0,2.714-.8M4.172,25.61c1.155-.088,1.746.054,1.967,1.475a4.215,4.215,0,0,0,6.605,2.769c.5-.323.791-.4,1.311-.02a4.208,4.208,0,0,0,3.622.611c.244-.059.553-.359.721.011a.712.712,0,0,1-.235.955c-1.5.876-3.01,1.746-4.536,2.581-.41.224-.745-.157-1.076-.344-2.34-1.326-4.667-2.673-7.01-3.993-1.4-.786-2.193-.32-2.224,1.272-.012.633,0,1.267,0,1.9,0,.279.014.609-.384.594s-.337-.369-.339-.63c-.009-.99,0-1.98,0-2.97,0-.871.021-1.743,0-2.614-.033-1.113.529-1.518,1.59-1.6M2.552,36.577c.064-.891.038-1.469,1.242-1.388.96.064,1.569.145,1.282,1.275.138.893.111,1.519-1.128,1.468-1.021-.041-1.479-.2-1.4-1.355m.59,7.221c-.314,0-.547-.08-.547-.448,0-1.062,0-2.123,0-3.185,0-.195.029-.4.292-.42.219-.015.338.075.416.3A13.334,13.334,0,0,0,5.8,43.8c-.963,0-1.81,0-2.658,0M17.81,37.96c-.012,1.582-.026,3.165.009,4.747a1.222,1.222,0,0,1-.67,1.247c-.913.517-1.791,1.1-2.876,1.769,0-1.284-.006-2.336,0-3.389.005-.616-.135-1.154-.865-1.157s-.857.554-.853,1.161c.006,1.051,0,2.1,0,3.414-2.536-1.606-4.878-3.047-7.168-4.566a.844.844,0,0,1,.25-1.527,1.743,1.743,0,0,0,1.246-1.912c-.03-.79-.019-1.582,0-2.373a1.621,1.621,0,0,0-1.267-1.866c-.966-.242-.655-1.112-.493-1.556.3-.814.784-.017,1.079.141,1.81.97,3.559,2.054,5.374,3.013a1.558,1.558,0,0,1,.99,1.772,3.433,3.433,0,0,0,.043,1.062.745.745,0,0,0,.758.625.83.83,0,0,0,.837-.54,1.267,1.267,0,0,0,.06-.348c.109-.687-.345-1.6.241-2.034a37.654,37.654,0,0,1,3.765-2.233c.093-.054.293-.091.333-.043.832.99,2.069.484,3.1.772-.1.629-.549.413-.848.451A3.059,3.059,0,0,0,17.81,37.96M20.8,48.01c-1.091-.005-1.311-.366-1.3-1.372s.172-1.464,1.348-1.44c1.081.022,1.447.344,1.214,1.382.259,1.057-.107,1.435-1.26,1.43m2.968,6.543c-1.177,0-2.354-.009-3.531,0-.488.005-.716-.178-.707-.691.02-1.181,0-2.362.01-3.542,0-.232,0-.492.3-.559.222-.049.445.053.421.276-.265,2.482,1.828,3.032,3.317,4.078.091.064.184.124.276.186l-.087.249m5.728,1.2c-2.47-1.552-4.75-2.955-7-4.412a.907.907,0,0,1,.2-1.659c.109-.046.217-.094.323-.147a1.67,1.67,0,0,0,.794-1.943c-.176-1.3.746-3.059-.793-3.8-1.22-.587-.908-1.254-.885-2.276l7.012,3.993c.326.185.344.494.343.822,0,3.047,0,6.095,0,9.421M29.479,43.68c-2.314-1.37-4.655-2.693-7-4.008-1.357-.76-2.094-.33-2.16,1.232-.029.672,0,1.346-.02,2.019-.007.269-.01.6-.425.557-.3-.035-.329-.3-.33-.542-.005-.871,0-1.742,0-2.614,0-.832-.032-1.665.009-2.494a1.356,1.356,0,0,1,1.51-1.445c1.074-.021,1.862-.082,2.263,1.38A4.141,4.141,0,0,0,29.6,39.98a1.177,1.177,0,0,1,1.534-.063,4.223,4.223,0,0,0,6.539-2.606c.328-1.454,1.267-.789,1.978-.9.8-.12,1.493.2,1.533,1.085.082,1.817.053,3.64.063,5.46,0,.242-.042.505-.348.525-.4.026-.418-.286-.422-.569-.01-.713.013-1.426-.015-2.138-.055-1.4-.817-1.851-2.04-1.167-2.382,1.331-4.756,2.679-7.1,4.074a1.577,1.577,0,0,1-1.84-.006M31.3,55.757c0-3.355,0-6.465,0-9.575,0-.558.421-.711.79-.923,1.883-1.081,3.763-2.167,5.661-3.222.274-.152.753-.681.91-.148.138.469.521,1.37-.336,1.608-1.187.329-1.407,1.111-1.378,2.147.022.79.009,1.581.015,2.372a1.64,1.64,0,0,0,1.1,1.657c.872.351.994,1.179.208,1.688-2.218,1.435-4.466,2.825-6.962,4.4m9.335-1.2c-1.2-.013-2.406,0-3.609,0l-.048-.272c.628-.4,1.237-.834,1.888-1.193a2.583,2.583,0,0,0,1.612-2.628c-.025-.284-.1-.7.39-.7s.374.428.378.712c.016,1.1,0,2.2.008,3.3,0,.436-.054.782-.618.776m-.7-6.549c-1.315.094-1.173-.629-1.24-1.5-.083-1.084.32-1.257,1.318-1.3,1.279-.058,1.359.565,1.207,1.51.279,1.133-.327,1.229-1.285,1.3m6.369-12.433c.3.089.257.455.257.733,0,3.045,0,6.09,0,9.416-1.2-.747-2.194-1.371-3.2-1.982-.424-.259-.352-.665-.352-1.053,0-1.5,0-3.007,0-4.511-.009-2.285-.911-3.29-3.2-3.59-.248-.032-.577.086-.686-.439.625-.242,1.4.128,1.906-.173,2.381-1.4,3.523,1.075,5.277,1.6m-3.681-7.38a.978.978,0,0,1-.235-1.089c.237-.527.593-.047.884.035.49.139.963.338,1.451.486.436.132.883.228,1.353.347a2.422,2.422,0,0,1-3.452.221m5.407-2c-3.1.13-3.776-.713-3.054-3.748a.566.566,0,0,1,.66-.5c.591,0,1.183,0,1.775,0,2.46,0,2.46,0,2.458,2.482,0,1.639-.031,1.67-1.721,1.76l-.118,0m3.555,2.395a2.473,2.473,0,0,1-2.981-.624,12.759,12.759,0,0,0,4.352-1.538,2.077,2.077,0,0,1-1.37,2.162m4.032-8.5a8.483,8.483,0,0,1-4.028,5.062c0-1.223.026-2.17-.007-3.115a1.673,1.673,0,0,0-1.778-1.794q-2.376-.053-4.753,0a1.7,1.7,0,0,0-1.8,1.785c-.026.474-.007.95-.007,1.426s0,.947,0,1.48c-.61-.047-.886-.3-.91-.874-.1-2.329.225-4.67-.221-6.99-.079-.409.232-.469.526-.384a4.316,4.316,0,0,1,.74.357.824.824,0,0,0,1.163-.2.886.886,0,0,0-.217-1.266,2.246,2.246,0,0,0-1.837-.7c-1.255.294-1.418-.6-1.906-1.416,1.648-.2,3.2-.344,4.735-.585a11.09,11.09,0,0,0,4.952-1.851c.4-.29.646-.317.978.087a6.943,6.943,0,0,0,4.064,2.492c.412.083.652.255.643.692-.041,1.934.2,3.889-.339,5.789" transform="translate(0 0)" fill="#315820"/>
        <path id="Path_416" data-name="Path 416" d="M140.527,105.127a2.888,2.888,0,0,1,2.055.832.773.773,0,0,1,.189,1.062c-.276.409-.671.642-1.106.343a1.714,1.714,0,0,0-2.179.015.724.724,0,0,1-1.031-.281.793.793,0,0,1,.088-1.083,2.858,2.858,0,0,1,1.984-.888" transform="translate(-105.387 -80.12)" fill="#315820"/>
        <path id="Path_417" data-name="Path 417" d="M102.486,106.794c-.172.614-.575,1.015-1.266.593a1.616,1.616,0,0,0-1.967-.01.789.789,0,0,1-1.216-.279c-.3-.447-.079-.826.251-1.156a2.911,2.911,0,0,1,3.793-.044,1.084,1.084,0,0,1,.4.9" transform="translate(-74.609 -80.188)" fill="#315820"/>
        <path id="Path_418" data-name="Path 418" d="M121.775,110.455c-.015-.561-.053-1.182.639-1.35.676-.164,1.027.226,1.079.9.033.427.418.4.678.54a.775.775,0,0,1,.447.876.931.931,0,0,1-.815.739c-1.268.258-2.029-.375-2.029-1.7" transform="translate(-92.803 -83.122)" fill="#315820"/>
        <path id="Path_419" data-name="Path 419" d="M27.388,62.258a3.355,3.355,0,0,1,1.956.778.866.866,0,0,1,.225,1.251.782.782,0,0,1-1.15.2,1.642,1.642,0,0,0-2.068-.015.81.81,0,0,1-1.23-.258c-.342-.517-.045-.89.332-1.221a3.267,3.267,0,0,1,1.936-.736" transform="translate(-19.03 -47.448)" fill="#315820"/>
        <path id="Path_420" data-name="Path 420" d="M51.379,67.979c-.673-.043-1.31-.229-1.447-.97a2.8,2.8,0,0,1,.242-2.49c.447-.529,1.242-.22,1.4.555.115.578.077,1.139.844,1.336a.655.655,0,0,1,.336.9c-.241.653-.8.67-1.371.67" transform="translate(-37.923 -48.971)" fill="#315820"/>
        <path id="Path_421" data-name="Path 421" d="M215.519,64c-.161.689-.623,1.1-1.2.775a2,2,0,0,0-2.4,0,.737.737,0,0,1-1.036-.279.836.836,0,0,1,.02-.992c.834-1.3,3.7-1.246,4.449.087a3.087,3.087,0,0,1,.162.407" transform="translate(-160.605 -47.68)" fill="#315820"/>
        <path id="Path_422" data-name="Path 422" d="M193.031,65.756a2.862,2.862,0,0,1,.042-.588.87.87,0,0,1,.886-.794.8.8,0,0,1,.813.727c.06.65.12,1.2.893,1.425a.647.647,0,0,1,.32.81.969.969,0,0,1-.743.686c-1.385.4-2.217-.365-2.211-2.266" transform="translate(-147.113 -49.061)" fill="#315820"/>
        <path id="Path_423" data-name="Path 423" d="M211.083,149.748c0,.791.039,1.585-.01,2.374a1.83,1.83,0,0,1-1.733,1.79,2.146,2.146,0,0,1-2.44-1.241,1.754,1.754,0,0,1,1.545-2.315c.837-.105.958-.48.912-1.158-.032-.473-.006-.949-.006-1.424,0-.647-.03-1.408.844-1.423.856-.014.906.706.893,1.379s0,1.346,0,2.018Z" transform="translate(-157.605 -111.538)" fill="#315820"/>
        <path id="Path_424" data-name="Path 424" d="M140.376,192.457c0,.869.053,1.742-.015,2.606a1.757,1.757,0,0,1-1.568,1.552,2.133,2.133,0,0,1-2.313-.83,1.551,1.551,0,0,1-.055-1.88,2,2,0,0,1,1.582-.925c.585-.056.709-.32.68-.841-.037-.67-.006-1.343-.007-2.015,0-.584.2-1.034.85-1.058.674-.025.859.435.858,1.02,0,.79,0,1.58,0,2.371h-.011" transform="translate(-103.752 -144.092)" fill="#315820"/>
      </g>
    </g>
  </g>
</svg>
