<svg xmlns="http://www.w3.org/2000/svg" width="80" height="80" viewBox="0 0 80 80">
  <g id="Group_776" data-name="Group 776" transform="translate(2469 5109)">
    <g id="Component_20_1" data-name="Component 20 – 1" transform="translate(-2469 -5109)">
      <rect id="Rectangle_2567" data-name="Rectangle 2567" width="80" height="80" fill="#9dcb20"/>
      <path id="work-organization-svgrepo-com" d="M53.08,70.148A1.447,1.447,0,0,1,51.633,71.6H45.351a1.447,1.447,0,0,1,0-2.894h6.282A1.447,1.447,0,0,1,53.08,70.148ZM24.707,22.894a5.033,5.033,0,1,1,5.033,5.033A5.038,5.038,0,0,1,24.707,22.894Zm2.894,0a2.139,2.139,0,1,0,2.139-2.139A2.141,2.141,0,0,0,27.6,22.894ZM19.627,42.623a1.447,1.447,0,0,0,1.9-.755l2.206-5.109c1.2-2.775,2.514-3.907,4.542-3.907H31.2c2.028,0,3.344,1.132,4.542,3.907l2.206,5.109a1.447,1.447,0,0,0,2.657-1.147L38.4,35.612c-1.048-2.427-2.934-5.653-7.2-5.653H28.277c-4.265,0-6.151,3.226-7.2,5.653l-2.206,5.109A1.446,1.446,0,0,0,19.627,42.623ZM59.359,69.575l-2.206-5.109c-1.048-2.427-2.935-5.653-7.2-5.653H47.03c-4.264,0-6.151,3.226-7.2,5.653l-2.205,5.109a1.447,1.447,0,1,0,2.657,1.147l2.205-5.109c1.2-2.775,2.515-3.907,4.543-3.907h2.926c2.028,0,3.343,1.132,4.542,3.906L56.7,70.722a1.447,1.447,0,1,0,2.657-1.147Zm-15.9-17.827a5.033,5.033,0,1,1,5.033,5.033A5.039,5.039,0,0,1,43.459,51.748Zm2.894,0a2.139,2.139,0,1,0,2.139-2.139A2.141,2.141,0,0,0,46.353,51.748ZM19.648,64.466c-1.048-2.427-2.934-5.653-7.2-5.653H9.523c-4.264,0-6.151,3.226-7.2,5.653L.119,69.575a1.447,1.447,0,1,0,2.657,1.147l2.206-5.109c1.2-2.775,2.514-3.907,4.542-3.907h2.926c2.028,0,3.344,1.132,4.542,3.906L19.2,70.722a1.447,1.447,0,1,0,2.657-1.147ZM14.128,68.7H7.845a1.447,1.447,0,0,0,0,2.894h6.282a1.447,1.447,0,0,0,0-2.894Zm17.5,0H27.853a1.447,1.447,0,0,0,0,2.894h3.772a1.447,1.447,0,0,0,0-2.894ZM5.954,51.748a5.033,5.033,0,1,1,5.033,5.033A5.038,5.038,0,0,1,5.954,51.748Zm2.894,0a2.139,2.139,0,1,0,2.139-2.139A2.141,2.141,0,0,0,8.848,51.748ZM32.88,42.741a1.447,1.447,0,0,0,0-2.894H26.6a1.447,1.447,0,1,0,0,2.894Zm-8.174,9.007a5.033,5.033,0,1,1,5.033,5.033A5.038,5.038,0,0,1,24.707,51.748Zm2.894,0a2.139,2.139,0,1,0,2.139-2.139A2.141,2.141,0,0,0,27.6,51.748Zm8.013,8.628A6.662,6.662,0,0,0,31.2,58.813H28.277a6.659,6.659,0,0,0-4.412,1.563,1.447,1.447,0,0,0,1.864,2.214,3.791,3.791,0,0,1,2.548-.883H31.2a3.793,3.793,0,0,1,2.549.883,1.447,1.447,0,1,0,1.863-2.215Z" transform="translate(10.261 -4.729)" fill="#315820"/>
    </g>
  </g>
</svg>
