<svg xmlns="http://www.w3.org/2000/svg" width="80" height="80" viewBox="0 0 80 80">
  <g id="Group_761" data-name="Group 761" transform="translate(1610 5395)">
    <g id="Component_11_1" data-name="Component 11 – 1" transform="translate(-1610 -5395)">
      <rect id="Rectangle_2555" data-name="Rectangle 2555" width="80" height="80" fill="#9dcb20"/>
      <g id="assistant-svgrepo-com" transform="translate(-9.214 9.972)">
        <g id="Group_680" data-name="Group 680" transform="translate(26.29)">
          <g id="Group_679" data-name="Group 679" transform="translate(0)">
            <path id="Path_399" data-name="Path 399" d="M60.031,169.752H57.848v3.275H54.573v2.183h3.275v3.275h2.183V175.21h3.275v-2.183H60.031Z" transform="translate(-26.19 -123.888)" fill="#315820"/>
            <path id="Path_400" data-name="Path 400" d="M117.362,60.988a2.183,2.183,0,1,1,4.367,0v1.092h2.183V60.988a4.367,4.367,0,0,0-8.733,0v1.092h2.183V60.988Z" transform="translate(-91.163 -41.323)" fill="#315820"/>
            <path id="Path_401" data-name="Path 401" d="M75.1,56.621a4.371,4.371,0,0,0-4.367,4.367v1.092h2.183V60.988a2.183,2.183,0,1,1,4.367,0v1.092h2.183V60.988A4.371,4.371,0,0,0,75.1,56.621Z" transform="translate(-58.726 -41.323)" fill="#315820"/>
            <path id="Path_402" data-name="Path 402" d="M62.317,40.406H54.673v-3a19.134,19.134,0,1,0-10.916.057v2.944H36.113a9.835,9.835,0,0,0-9.823,9.825v9.825H72.139V50.231A9.834,9.834,0,0,0,62.317,40.406ZM49.1,2.183a16.923,16.923,0,0,1,14.3,7.894,11.9,11.9,0,0,1-6.543,1.946A11.989,11.989,0,0,1,46.227,5.608l-.682-1.292L44.5,5.336a11.943,11.943,0,0,1-8.385,3.412c-.138,0-.259.006-.379.011A16.9,16.9,0,0,1,49.1,2.183ZM32.168,19.119a16.825,16.825,0,0,1,2.087-8.132,6.2,6.2,0,0,0,1.124-.018c.216-.018.45-.038.735-.038a14.1,14.1,0,0,0,8.88-3.12,14.161,14.161,0,0,0,11.861,6.4A14.067,14.067,0,0,0,64.449,12,16.887,16.887,0,0,1,49.4,36.039h-.589A16.946,16.946,0,0,1,32.168,19.119ZM69.956,57.872H28.473V50.231a7.649,7.649,0,0,1,7.639-7.642H45.94V38.223h2.869c.1,0,.2.015.295.015s.2-.014.294-.015h3.091v4.367h9.827a7.65,7.65,0,0,1,7.639,7.642Z" transform="translate(-26.29)" fill="#315820"/>
          </g>
        </g>
      </g>
    </g>
  </g>
</svg>
