<svg xmlns="http://www.w3.org/2000/svg" xmlns:xlink="http://www.w3.org/1999/xlink" width="80" height="80" viewBox="0 0 80 80">
  <defs>
    <clipPath id="clip-path">
      <rect id="Rectangle_2525" data-name="Rectangle 2525" width="58.149" height="25.601" transform="translate(0 0)" fill="#315820"/>
    </clipPath>
  </defs>
  <g id="Group_775" data-name="Group 775" transform="translate(2557 5109)">
    <g id="Component_19_1" data-name="Component 19 – 1" transform="translate(-2557 -5109)">
      <rect id="Rectangle_2565" data-name="Rectangle 2565" width="80" height="80" fill="#9dcb20"/>
      <g id="Group_710" data-name="Group 710" transform="translate(11 27)">
        <g id="Group_687" data-name="Group 687" clip-path="url(#clip-path)">
          <path id="Path_412" data-name="Path 412" d="M56.671,25.6a1.817,1.817,0,0,1-1.214-.462l-8.523-9.987-.765.8a30.889,30.889,0,0,1-21.943,9.474c-9.018,0-17.5-4.113-23.866-11.579a1.539,1.539,0,0,1,0-1.984C6.72,4.4,15.2.287,24.234.287A30.944,30.944,0,0,1,46.17,9.762l.764.8L55.5.526a1.5,1.5,0,0,1,2.12-.162,1.538,1.538,0,0,1,.16,2.144L48.952,12.864l8.827,10.343a1.509,1.509,0,0,1-.12,2.1,1.814,1.814,0,0,1-.988.291M24.234,3.324A28.032,28.032,0,0,0,4.183,12.173l-.637.681.636.683a27.963,27.963,0,0,0,20.053,8.849,28,28,0,0,0,20.072-8.847l.637-.683-.637-.681A27.957,27.957,0,0,0,24.256,3.324h-.022Z" fill="#315820"/>
        </g>
      </g>
    </g>
  </g>
</svg>
