<svg xmlns="http://www.w3.org/2000/svg" xmlns:xlink="http://www.w3.org/1999/xlink" width="80" height="80" viewBox="0 0 80 80">
  <defs>
    <clipPath id="clip-path">
      <rect id="Rectangle_2582" data-name="Rectangle 2582" width="64.384" height="60.199" fill="#315820"/>
    </clipPath>
  </defs>
  <g id="Group_771" data-name="Group 771" transform="translate(2380 5252)">
    <rect id="Rectangle_2559" data-name="Rectangle 2559" width="80" height="80" transform="translate(-2380 -5252)" fill="#9dcb20"/>
    <g id="Group_728" data-name="Group 728" transform="translate(-2372 -5242)">
      <g id="Group_727" data-name="Group 727" clip-path="url(#clip-path)">
        <path id="Path_449" data-name="Path 449" d="M59.113,58.6c-.488,0-.979-.033-1.464.009s-.59-.158-.578-.6c.029-1.131.047-2.265,0-3.394-.028-.637.095-.9.811-.849,1.053.073,1.314-.272,1.172-1.3Q58.1,45.578,57.133,38.7c-.043-.306-.007-.466.305-.609a2.874,2.874,0,0,0,1.775-2.859,40.74,40.74,0,0,0-1.22-9.676c-1.232-4.889-3.348-9.211-8.118-11.883.147-.1.225-.144.291-.2,2.267-1.951,2.446-5.78,0-7.57-.236-.172-.216-.335-.139-.562a3.827,3.827,0,0,0,.218-1.766A4.036,4.036,0,0,0,46.727.023a3.956,3.956,0,0,0-4.269,2.763c-.139.4-.309.482-.708.405a3.75,3.75,0,0,0-4.1,1.684,3.791,3.791,0,0,0,.017,4.434,1.048,1.048,0,0,1,.167.854,8.532,8.532,0,0,0,.109,3.7c.538,2.169,1.592,3.957,3.788,4.8.544.209.536.429.329.863-1.241,2.6-2.368,5.248-3.695,7.805a16.569,16.569,0,0,1-2.758,3.894c-.417.433-.564.378-.752-.176q-2.383-7.013-4.812-14.011a.827.827,0,0,1,.156-.895,10.15,10.15,0,0,0,1.922-8.971,6.749,6.749,0,0,0-10.583-3.9,1.507,1.507,0,0,1-.738.248,3.465,3.465,0,0,0-2.578,1.579,4.968,4.968,0,0,0,.1,5.62c.1.132.282.23.228.462a18.68,18.68,0,0,0-3.016.434C9.54,13.2,5.269,16.651,3.567,22.839a23.471,23.471,0,0,0-.794,6.977c.009.3.062.562-.361.728a3.846,3.846,0,0,0-2.4,3.466c-.074.632.209,1.044.695,1.1s.786-.277.872-.935a2.489,2.489,0,0,1,1.084-1.994c.172.123.113.267.119.39a3.079,3.079,0,0,0,3.167,3.078c.493,0,.571.164.57.606q-.018,10.883,0,21.767c0,.48-.148.591-.6.582-1.42-.027-2.84-.014-4.26-.008-.658,0-1.034.295-1,.8.046.625.466.8,1.024.773.177-.009.355,0,.533,0H46.353l12.781,0c.772,0,1.147-.264,1.14-.794s-.369-.772-1.16-.775M46.994,1.7a2.323,2.323,0,0,1,1.633,2.173,4.878,4.878,0,0,0-3.993-1.551,2.112,2.112,0,0,1,2.36-.622M38.606,7.574a2.349,2.349,0,0,1,2.845-2.809,2.043,2.043,0,0,0,2.05-.329,2.886,2.886,0,0,1,3.034-.162,1.73,1.73,0,0,1,1.122,1.59.866.866,0,0,0,.669.885A2.6,2.6,0,0,1,50.3,9.008a3.563,3.563,0,0,1-1.287,3.366c-.132-.758-.031-1.4-.144-2.033a2.191,2.191,0,0,0-1.546-1.818,15.961,15.961,0,0,1-4.183-1.806.863.863,0,0,0-1,.088,20.181,20.181,0,0,1-3.166,1.153c-.362.155-.332-.219-.372-.385m1.419,7.448a7.911,7.911,0,0,1-.761-3.325c.009-.128.016-.305.034-.481.176-1.718.219-1.61,1.808-2.246a3.156,3.156,0,0,1,3.168.174,8.929,8.929,0,0,0,2.234.8.943.943,0,0,1,.788.971,8.052,8.052,0,0,1-.733,4.2,3.6,3.6,0,0,1-3.856,2.207,3.944,3.944,0,0,1-2.683-2.3m2.1,8.044a29.025,29.025,0,0,0,1.721-3.813.5.5,0,0,1,.4-.38,5.691,5.691,0,0,0,4-3.67c.171-.423.321-.4.664-.226a13.232,13.232,0,0,1,6.205,6.943,31.357,31.357,0,0,1,2.257,9.261,31.591,31.591,0,0,1,.267,3.98c-.017,1.091-.505,1.589-1.587,1.6-.533.006-1.065,0-1.6,0v0c-.555,0-1.111-.025-1.664.007-.506.03-.543-.145-.388-.576a19.888,19.888,0,0,0,1.194-7.44,20.141,20.141,0,0,0-2.792-9.669c-.332-.565-.771-.746-1.19-.469-.528.35-.445.806-.169,1.277a18.57,18.57,0,0,1,2.573,9.975,19.961,19.961,0,0,1-.529,3.948c-.109.482-.309.525-.726.36a16.67,16.67,0,0,0-1.826-.61c-.441-.118-.51-.3-.41-.744a15.313,15.313,0,0,0-2.18-12.086c-.213-.331-.441-.63-.88-.6-.646.043-.915.726-.506,1.355a14.728,14.728,0,0,1,1.754,3.64,14.007,14.007,0,0,1-.18,8.949,5.144,5.144,0,0,0-.484,2.32c.04.323-.141.363-.4.36-.621-.007-1.243.01-1.864,0a1.382,1.382,0,0,1-1.455-1.649c.118-1.593.225-3.185.244-4.784a7.073,7.073,0,0,0-.613-2.97,4.773,4.773,0,0,1,.161-4.289m5.4,28.584c0,.422-.1.573-.548.567-1.775-.025-3.55-.022-5.324,0-.446,0-.537-.1-.472-.562q.914-6.416,1.768-12.84c.046-.344.125-.506.518-.494,1.02.03,2.041.006,3.061.016.716.007.987.289.988,1q0,3.062,0,6.123c0,2.063-.011,4.127.008,6.19M35.911,33.107a17.43,17.43,0,0,0,4.126-5.561,1.561,1.561,0,0,1,.184-.231,1.026,1.026,0,0,1,.09.121c1.2,3.107.937,3.092-1.035,5.18a32.49,32.49,0,0,1-2.926,2.655,8.3,8.3,0,0,1-.6-1.713.4.4,0,0,1,.166-.452m-1.257,2.257a5.506,5.506,0,0,1,.393,1.463,1.547,1.547,0,0,1-1.167,1.508,1.568,1.568,0,0,1-1.825-.728c-.678-1.182-.667-1.221.536-1.788.5-.235,1.01-.448,1.5-.705.331-.174.472-.086.566.251M22.358,4.781c.125-.589.884-.745,1.444-.928a5.167,5.167,0,0,1,6.936,4.351c.071.5.1,1.013.139,1.355a9.162,9.162,0,0,1-1.73,5.384,3.851,3.851,0,0,1-5.664.945,6.312,6.312,0,0,1-2.724-4.6,1.32,1.32,0,0,0-.454-.984.992.992,0,0,1-.3-.508.478.478,0,0,1,.139-.544.471.471,0,0,1,.614.013,2.306,2.306,0,0,1,.691.958c.387.807.929.887,1.547.231A4.157,4.157,0,0,0,24.149,8.1a1.687,1.687,0,0,0-.728-1.848c-.532-.339-1.209-.789-1.063-1.475m2.094,13.706c-.562.819-1.135,1.631-1.822,2.614l-.523-4.2a8.763,8.763,0,0,0,2.319,1.2c.33.1.107.275.025.394M20.216,5.326c.24-.133.462-.281.6.147a3.75,3.75,0,0,0,1.472,1.911c.4.284.3.584.2.925-.058.2-.173.25-.328.087a2.246,2.246,0,0,0-3.1-.39,2.787,2.787,0,0,1,1.161-2.679M7.563,32.664A1.564,1.564,0,0,1,5.943,34.1a1.572,1.572,0,0,1-1.58-1.407c-.228-1.793-.208-1.817,1.589-1.814h.6c1.029,0,1.029,0,1.018,1.059a7.251,7.251,0,0,1,0,.729m2,25.886a3.229,3.229,0,0,1-1.377-.017c-.222-.05-.1-.438-.1-.671q-.008-8.816,0-17.632c0-1.575.008-3.149-.007-4.724a1.29,1.29,0,0,1,.332-.957,3.125,3.125,0,0,0,.746-2.079c.06-2.084-.184-4.167-.011-6.25a7.911,7.911,0,0,1,.565-2.574v2.123q0,16.035-.006,32.07c0,.245.149.648-.133.711m1.711-37.571c0-.47.062-.983-.493-1.189A1.172,1.172,0,0,0,9.45,20.3a8,8,0,0,0-1.6,3.749,18.971,18.971,0,0,0-.351,4.7c.02.437-.078.59-.529.568-.708-.034-1.42-.024-2.13,0-.354.01-.515-.07-.508-.471a18.234,18.234,0,0,1,2.053-8.847,14.268,14.268,0,0,1,9.42-6.819,14.746,14.746,0,0,1,3.159-.41c.347-.011.463.133.617.435,1.088,2.125.9,4.488,1.3,6.74.188,1.068.281,2.153.41,3.232a.832.832,0,0,0,.579.806.813.813,0,0,0,.961-.407c1.081-1.544,2.172-3.082,3.237-4.637.288-.42.575-.781,1.136-.785a1.955,1.955,0,0,0,.257-.063c.4-.061.8-.553,1.117-.3.279.223.316.754.453,1.151C30.62,23.544,32.2,28.152,33.8,32.752c.174.5.118.753-.391.952a14.886,14.886,0,0,0-1.863.876c-.5.278-.661.136-.816-.367-1.1-3.578-2.221-7.148-3.336-10.72-.033-.106-.071-.21-.1-.317-.132-.5-.4-.878-.976-.77-.533.1-.643.52-.642,1.014.009,3.151-.009,6.3.016,9.452,0,.537-.109.717-.682.708-2.174-.036-4.349-.015-6.523-.015s-4.349-.018-6.523.013c-.54.008-.709-.114-.705-.684.027-3.971.013-7.943.016-11.915m18.64,37.478c-.08.253-.343.132-.52.134-1.42.011-2.839,0-4.259.011-.344,0-.555-.007-.567-.473a2.128,2.128,0,0,0-1.588-2.067,13.117,13.117,0,0,0-1.925-.494c-.57-.1-.744-.353-.742-.934.023-5.346.014-10.691.014-16.037,0-.177.011-.356-.005-.532a.781.781,0,0,0-1.562.033c-.012.177,0,.355,0,.532q0,8.052.009,16.1c0,.473-.068.687-.623.718a14.736,14.736,0,0,0-2.941.513c-.62.163-.943.57-.792,1.018.2.589.647.66,1.184.519.772-.2,1.561-.314,2.347-.448a10.417,10.417,0,0,1,4.39.445.912.912,0,0,1,.553.344.679.679,0,0,1,.106.633c-.08.211-.309.117-.47.117-3.571.006-7.142,0-10.714.014-.453,0-.542-.152-.54-.569.015-3.726.009-7.453.008-11.179,0-3.7.009-7.409-.013-11.113,0-.5.137-.625.63-.623q6.588.029,13.176,0c.5,0,.627.128.625.626q-.026,9.482,0,18.965c0,.381-.08.608-.475.735-.512.164-.886.5-.637,1.1.242.578.728.595,1.227.357a1.313,1.313,0,0,1,1.186.011,11.21,11.21,0,0,0,1.8.453,2.043,2.043,0,0,1,.916.363.668.668,0,0,1,.212.727m10.034-.2a.4.4,0,0,1-.46.342q-3.794-.007-7.588,0c-.27,0-.39-.061-.4-.366A2.308,2.308,0,0,0,29.57,55.94c-.575-.16-1.165-.267-1.749-.4a.621.621,0,0,1-.571-.681q.012-12.947.01-25.894a2.268,2.268,0,0,1,.084-.335c.366,1.164.676,2.191,1.012,3.208a52.49,52.49,0,0,0,2.1,6.081,3.2,3.2,0,0,0,6.11-.433.988.988,0,0,1,.273-.517c1.318-1.177,2.675-2.31,4.044-3.712-.043.606-.059,1.037-.106,1.465a3.181,3.181,0,0,0,.583,2.454.89.89,0,0,1,.137.752q-1.029,7.374-2.053,14.749c-.1.731.2,1.085.954,1.092,1.087.01,2.176.038,3.261-.011.577-.026.76.174.67.708a1.2,1.2,0,0,0,0,.2c0,1.171-.086,1.262-1.229,1.264a2.974,2.974,0,0,0-3.144,2.323m7.581-3.866c-.036,1.24-.025,2.483,0,3.724.006.376-.11.5-.488.489-.842-.024-1.685-.008-2.527-.008-.865,0-1.73-.014-2.594.006-.454.01-.431-.172-.229-.456A1.511,1.511,0,0,1,43,57.5a4.356,4.356,0,0,0,1.254-.078,2.2,2.2,0,0,0,1.633-2.031c.011-.2,0-.4,0-.6,0-1.029,0-1,1.009-1.029.5-.015.643.128.629.628m.086-18.383a2.27,2.27,0,0,1,.031-.267c.174-.832.236-.868,1.03-.6.589.195,1.171.412,1.767.58.355.1.368.266.267.574a1.6,1.6,0,0,1-1.8,1.312,1.528,1.528,0,0,1-1.291-1.594m1.468,18.155c0-.278.084-.4.377-.391.818.014,1.635,0,2.453.006.128,0,.339-.031.352.1a3.618,3.618,0,0,1-.059,1.7c-.16.4-.564.374-.919.354a3.556,3.556,0,0,0-2.2.557c0-.87.008-1.6,0-2.325m6.437.364c-.048,1.2-.02,2.394-.01,3.591,0,.307-.034.49-.421.487-1.839-.017-3.678-.007-5.62-.007a1.471,1.471,0,0,1,1.388-1.088c.309-.018.621.007.931-.012A2.205,2.205,0,0,0,53.88,55.39c.013-.243,0-.488.005-.731.018-1.012-.139-.83.877-.895.613-.039.787.157.762.764m-5.913-2.31c-.481,0-.529-.2-.527-.59.014-1.974.006-3.949.006-5.923,0-1.952.018-3.9-.013-5.856-.008-.483.134-.666.608-.705a2.431,2.431,0,0,0,1.529-.736c.33-.331.518-.2.723.112a2.018,2.018,0,0,1,.272.876.756.756,0,0,0,.86.735.735.735,0,0,0,.694-.883c-.02-.283-.173-.709-.047-.819.258-.225.68-.042,1.027-.1.575-.088.791.136.868.718q.838,6.326,1.74,12.643c.062.437-.089.522-.487.519-2.418-.014-4.836-.02-7.254,0" transform="translate(0 0.001)" fill="#315820"/>
        <path id="Path_450" data-name="Path 450" d="M470.787,440.49a.8.8,0,0,1-.845-.814.83.83,0,0,1,1.659-.034.8.8,0,0,1-.814.848" transform="translate(-407.22 -380.291)" fill="#315820"/>
      </g>
    </g>
  </g>
</svg>
