<svg xmlns="http://www.w3.org/2000/svg" xmlns:xlink="http://www.w3.org/1999/xlink" width="80" height="80" viewBox="0 0 80 80">
  <defs>
    <clipPath id="clip-path">
      <rect id="Rectangle_2595" data-name="Rectangle 2595" width="61.178" height="59.191" fill="#315820"/>
    </clipPath>
  </defs>
  <g id="Group_767" data-name="Group 767" transform="translate(1982 5252)">
    <rect id="Rectangle_2562" data-name="Rectangle 2562" width="80" height="80" transform="translate(-1982 -5252)" fill="#9dcb20"/>
    <g id="Group_748" data-name="Group 748" transform="translate(-1972.589 -5242)">
      <g id="Group_747" data-name="Group 747" clip-path="url(#clip-path)">
        <path id="Path_493" data-name="Path 493" d="M60.916,33.967a40.369,40.369,0,0,0-2.495-7.154,7.99,7.99,0,0,0-5.36-4.7c-.463-.141-.454-.125-.143-.478a6.643,6.643,0,0,0,1.347-7.293,6.5,6.5,0,0,0-6.03-4.309,6.5,6.5,0,0,0-6.55,3.828,6.659,6.659,0,0,0,.907,7.541c.087.109.259.182.224.351-1.616,0-3.218-.008-4.821.008a.54.54,0,0,1-.554-.332c-1.072-1.961-2.164-3.912-3.237-5.873a3.855,3.855,0,0,0-2.179-1.886.546.546,0,0,1-.428-.631c.011-3.884.007-7.768.007-11.652a4.429,4.429,0,0,0-.013-.506A.992.992,0,0,0,30.539,0a.978.978,0,0,0-.976.919,5.309,5.309,0,0,0,0,.885c.035.363-.109.443-.452.441-2.914-.012-5.826,0-8.74-.008a1.088,1.088,0,0,0-1.094.563,1.121,1.121,0,0,0,.191,1.256c.613.806,1.2,1.63,1.827,2.427a.438.438,0,0,1-.013.649c-.647.833-1.269,1.685-1.9,2.533a1.046,1.046,0,0,0-.1,1.154.962.962,0,0,0,.936.532c.127,0,.253,0,.38,0,2.843,0,5.685,0,8.528-.006.318,0,.46.067.437.42a13.026,13.026,0,0,0,0,1.393.411.411,0,0,1-.343.476,3.887,3.887,0,0,0-2.257,1.913c-1.07,1.963-2.162,3.913-3.237,5.873a.548.548,0,0,1-.549.345c-1.491,0-2.983.022-4.474.033-.119,0-.252.048-.392-.089a6.861,6.861,0,0,0,1.874-5.355,6.683,6.683,0,0,0-2.754-4.972A6.929,6.929,0,0,0,8.5,21.949a.858.858,0,0,1-.448.179,8.048,8.048,0,0,0-5.3,4.649c-.743,1.73-1.417,3.489-2,5.279A13.445,13.445,0,0,0,0,36.4,4.165,4.165,0,0,0,5.11,40.51c.438-.1.45.036.449.389q-.013,6.86,0,13.721a4.834,4.834,0,0,0,.08,1.007,4.21,4.21,0,0,0,3,3.342,4.193,4.193,0,0,0,4.393-1.079c.214-.206.315-.2.523,0a4.147,4.147,0,0,0,3.365,1.268,4.338,4.338,0,0,0,4.111-4.5q.007-3.546,0-7.093,0-8.611-.008-17.222c0-.368.092-.484.469-.474,1.11.027,2.222,0,3.332.022a5.069,5.069,0,0,0,4.882-2.782c.216-.394.472-.767.679-1.166.164-.317.251-.244.393.011.273.491.567.971.856,1.454a4.664,4.664,0,0,0,3.912,2.428c1.374.075,2.755.043,4.133.034.341,0,.467.079.456.441-.025.857-.006,1.716-.006,2.573q0,10.913,0,21.826a4.32,4.32,0,0,0,2.693,4.121,4.255,4.255,0,0,0,4.79-.949c.225-.213.325-.181.524.013a4.221,4.221,0,0,0,3.992,1.179,4.366,4.366,0,0,0,3.485-4.467q.005-6.882,0-13.763c0-.321.018-.435.4-.343a4.109,4.109,0,0,0,4.975-2.944,7.492,7.492,0,0,0-.07-3.593M29.557,8.917c0,.249-.038.388-.34.386-2.237-.01-4.474-.006-6.711-.008a1.642,1.642,0,0,1-.224-.041L23.43,7.707c.556-.748.557-1.056,0-1.805-.351-.475-.705-.948-1.057-1.422a.39.39,0,0,1-.034-.082c.083-.144.225-.079.338-.079,2.153,0,4.306,0,6.458-.009.294,0,.426.048.422.387-.018,1.407-.011,2.814,0,4.221M47.85,12.08a4.853,4.853,0,1,1-4.845,4.873A4.848,4.848,0,0,1,47.85,12.08M8.441,16.935a4.856,4.856,0,1,1,4.87,4.85,4.853,4.853,0,0,1-4.87-4.85m20.447,7.5a13.768,13.768,0,0,0-1.017,1.7,3.027,3.027,0,0,1-2.937,1.674c-1.477-.028-2.954-.013-4.432-.015-.169,0-.338,0-.506.016a1,1,0,0,0-1.014,1.1q-.011,12.665-.022,25.33a4.1,4.1,0,0,1-.074,1.133,2.311,2.311,0,0,1-4.549-.61c-.011-3.673,0-7.346,0-11.019a2.95,2.95,0,0,0-.026-.5,1.036,1.036,0,0,0-1.066-.886,1.025,1.025,0,0,0-.976,1.029c-.015.563-.005,1.126-.005,1.689,0,3.237.01,6.474,0,9.71a2.307,2.307,0,0,1-3.5,1.991,2.22,2.22,0,0,1-1.139-2c-.012-4.855,0-9.71-.011-14.566a.37.37,0,0,1,.34-.425c1.472-.365,2.941-.744,4.411-1.116a4.146,4.146,0,1,0-1.724-8.11c-1.789.424-3.564.908-5.343,1.378A1.008,1.008,0,0,0,4.5,33.248a1.031,1.031,0,0,0,1.317.673c.778-.191,1.552-.4,2.328-.593.953-.242,1.905-.49,2.861-.722a2.09,2.09,0,0,1,2.5,1.466,2.05,2.05,0,0,1-1.461,2.53c-2.173.576-4.354,1.123-6.532,1.682-.218.056-.435.114-.653.168a2.152,2.152,0,0,1-2.8-2.269,12.382,12.382,0,0,1,.676-3.55c.541-1.642,1.157-3.258,1.835-4.847a6.051,6.051,0,0,1,5.9-3.928c4.46-.049,8.922-.031,13.383-.019a1.352,1.352,0,0,0,1.348-.8c.553-1.059,1.148-2.1,1.728-3.141a.681.681,0,0,1,.244-.326,21.462,21.462,0,0,0,1.714,3.153,1.265,1.265,0,0,1,0,1.715M56.334,38.456q-3.536-.891-7.067-1.8a2.077,2.077,0,0,1,.1-4.094,4.085,4.085,0,0,1,1.694.266c1.433.348,2.857.735,4.287,1.1a1.032,1.032,0,1,0,.519-1.993c-1.74-.454-3.482-.892-5.224-1.338a4.139,4.139,0,1,0-1.958,8.043q2.24.594,4.492,1.144a.41.41,0,0,1,.373.483c-.009,4.827,0,9.654-.008,14.481a2.322,2.322,0,1,1-4.643-.006c-.01-3.743,0-7.486-.006-11.23a1.021,1.021,0,0,0-1.353-1.084.925.925,0,0,0-.669.744,3.624,3.624,0,0,0-.047.629q0,5.446,0,10.892a2.311,2.311,0,1,1-4.619.059c-.007-2.913,0-5.826,0-8.739V41.914h.007q0-6.163,0-12.327c0-.253.006-.508-.016-.759a1.017,1.017,0,0,0-1.1-1.027c-1.449-.006-2.9.009-4.347,0a7.729,7.729,0,0,1-1.3-.051A2.648,2.648,0,0,1,33.5,26.467c-1.528-2.654-3.242-5.2-4.547-7.985a2.027,2.027,0,0,1,.8-2.8,1.954,1.954,0,0,1,2.689.973c1.157,2.091,2.327,4.176,3.456,6.282a1.508,1.508,0,0,0,1.5.9q6.649-.031,13.3.008a6.207,6.207,0,0,1,5.329,2.818,6.654,6.654,0,0,1,.68,1.4,46.173,46.173,0,0,1,2.117,6,9.5,9.5,0,0,1,.281,2.213,2.142,2.142,0,0,1-2.773,2.179" transform="translate(0 0)" fill="#315820"/>
      </g>
    </g>
  </g>
</svg>
