<svg xmlns="http://www.w3.org/2000/svg" xmlns:xlink="http://www.w3.org/1999/xlink" width="80" height="80" viewBox="0 0 80 80">
  <defs>
    <clipPath id="clip-path">
      <rect id="Rectangle_2594" data-name="Rectangle 2594" width="62.326" height="57.394" fill="#315820"/>
    </clipPath>
  </defs>
  <g id="Group_763" data-name="Group 763" transform="translate(1516 5252)">
    <rect id="Rectangle_2586" data-name="Rectangle 2586" width="80" height="80" transform="translate(-1516 -5252)" fill="#9dcb20"/>
    <g id="Group_746" data-name="Group 746" transform="translate(-1507 -5239)">
      <g id="Group_745" data-name="Group 745" clip-path="url(#clip-path)">
        <path id="Path_492" data-name="Path 492" d="M15.112,47.027c.46-.023.806-.006.986.647.882,3.19,2.193,4.265,5.542,4.558.7.061.764.386.91.912,1.229,4.432,5.9,5.661,9.163,2.426,1.375-1.362,2.758-2.718,4.091-4.12a1.748,1.748,0,0,1,1.308-.583,5.622,5.622,0,0,0,5.756-4.907c.125-.615.291-.828.923-.882,3.668-.314,5.355-1.854,5.975-5.471.106-.617.27-.829.922-.868,3.7-.219,5.684-2.4,5.524-6.087a2.168,2.168,0,0,1,.754-1.8,18.7,18.7,0,0,0,3.69-5.294,30.994,30.994,0,0,0,1.668-5.951V16.285a.794.794,0,0,1-.152-.515,41.976,41.976,0,0,0-1.249-4.627C56.37-.073,41.684-3.647,32.594,4.359c-1.183,1.041-1.75.9-2.836-.022A17.964,17.964,0,0,0,2.9,8.314,16.58,16.58,0,0,0,.268,15.653,5.114,5.114,0,0,1,0,16.562v3.047c.058.069.162.133.169.207A18.119,18.119,0,0,0,5.656,31.128c.5.5.277.725-.074,1.09A5.023,5.023,0,0,0,4.267,37.79a4.931,4.931,0,0,0,4.395,3.474c.511.044,1.007.09,1.026.827a5.206,5.206,0,0,0,5.424,4.936M16.6,44.164a2.142,2.142,0,0,1-1.5.473,2.682,2.682,0,0,1-2.776-1.731,2.584,2.584,0,0,1,.674-3.125c1.566-1.426,3.039-2.956,4.521-4.472,1.216-1.243,2.478-1.42,3.755-.454a2.751,2.751,0,0,1,.672,3.918A46.761,46.761,0,0,1,16.6,44.164m6.656,4.926a3.271,3.271,0,0,1-1.874.737A3.142,3.142,0,0,1,18.633,48a2.58,2.58,0,0,1,.649-3.123c1.578-1.541,3.073-3.167,4.614-4.746a2.819,2.819,0,0,1,3.871-.022,2.886,2.886,0,0,1,.347,4.086c-1.544,1.7-3.209,3.3-4.863,4.9m11.2.293c-1.561,1.631-3.207,3.18-4.811,4.769a2.461,2.461,0,0,1-1.891.714,2.776,2.776,0,0,1-2.8-1.823,2.506,2.506,0,0,1,.657-3c1.572-1.614,3.269-3.1,4.7-4.861.858-1.053,2.8-.919,3.867.116a2.823,2.823,0,0,1,.273,4.084M34.023,6.308c4.988-4.462,10.905-5.194,16.99-2.439,5.9,2.67,8.607,7.632,9.052,13.426A16.579,16.579,0,0,1,55.9,28.666c-.573.652-.965.871-1.728.093-3.939-4.013-8.053-7.857-11.9-11.951a6.5,6.5,0,0,0-9.735-.07c-1.354,1.618-3.022,2.971-4.519,4.472-2.987,2.994-5.442,1.28-7.353-.944-.363-.423-.066-.65.2-.916,4.373-4.364,8.566-8.929,13.164-13.043M2.439,16.692A14.7,14.7,0,0,1,11.344,3.919C17.467,1.1,23.254,2.046,28.513,6.31c.894.725.79,1.2.074,1.9-3.284,3.236-6.564,6.476-9.805,9.754-2.121,2.146-1.931,1.5,0,3.51,1.391,1.446,2.672,3.038,4.87,3.42a6.22,6.22,0,0,0,5.709-1.688c1.726-1.664,3.383-3.4,5.1-5.076,1.9-1.857,3.932-1.834,5.818.029q6.249,6.172,12.5,12.347c1.553,1.535,1.665,3.515.281,4.9a3.288,3.288,0,0,1-5.009-.086c-2.907-2.9-5.816-5.79-8.684-8.725-.689-.705-1.109-.9-1.914-.068s-.341,1.207.2,1.755Q42.036,32.7,46.4,37.137a3.489,3.489,0,0,1-1.877,5.875,3.128,3.128,0,0,1-2.861-1.029q-4.407-4.4-8.808-8.8a1.421,1.421,0,0,0-2.474.534c-.167.466.3.6.521.819,2.888,2.915,5.8,5.808,8.694,8.715a3.137,3.137,0,0,1-1.223,5.163c-.55.161-.992.271-1.042-.669-.18-3.38-2.1-5.216-5.556-5.375a.818.818,0,0,1-.908-.752c-.7-2.762-2.389-4.406-5.327-4.529-.572-.024-.674-.353-.766-.77a5.28,5.28,0,0,0-4.808-4.438c-.653-.088-.826-.3-.863-.928a4.869,4.869,0,0,0-3.339-4.482,5.087,5.087,0,0,0-5.522,1.062c-.347.3-.658.644-.986.967-1.55,1.523-1.563,1.534-3-.181-2.522-3-3.852-6.45-3.817-11.627M7.178,38.067a2.944,2.944,0,0,1,.152-4.3c1.428-1.5,2.907-2.946,4.387-4.392A2.714,2.714,0,0,1,15,28.788a2.931,2.931,0,0,1,1.736,2.744,3.05,3.05,0,0,1-.972,2.22c-1.388,1.409-2.765,2.831-4.19,4.2a2.911,2.911,0,0,1-4.4.113" transform="translate(0 0)" fill="#315820"/>
      </g>
    </g>
  </g>
</svg>
