<svg xmlns="http://www.w3.org/2000/svg" xmlns:xlink="http://www.w3.org/1999/xlink" width="80" height="80" viewBox="0 0 80 80">
  <defs>
    <clipPath id="clip-path">
      <rect id="Rectangle_2581" data-name="Rectangle 2581" width="64.575" height="60.176" fill="#315820"/>
    </clipPath>
  </defs>
  <g id="Group_758" data-name="Group 758" transform="translate(1910 5395)">
    <g id="Group_726" data-name="Group 726">
      <rect id="Rectangle_2563" data-name="Rectangle 2563" width="80" height="80" transform="translate(-1910 -5395)" fill="#9dcb20"/>
      <g id="Group_725" data-name="Group 725" transform="translate(-1902 -5384.795)">
        <g id="Group_724" data-name="Group 724" clip-path="url(#clip-path)">
          <path id="Path_441" data-name="Path 441" d="M96.151,63.377a7.673,7.673,0,0,0-7.684-7.706q-4.589-.056-9.18,0a7.716,7.716,0,0,0-7.623,7.639c-.041,3.338-.032,6.676-.011,10.015a4.335,4.335,0,0,0,3.541,4.515c.8.181.932.522.927,1.2-.019,2.828-.008,5.657-.008,8.485h.012c0,2.736,0,5.471,0,8.206a4.442,4.442,0,0,0,7.075,3.6c.527-.39.811-.477,1.386-.033a4.284,4.284,0,0,0,4.837.4,4.2,4.2,0,0,0,2.289-4.124c-.029-5.471,0-10.942-.021-16.413,0-.8.15-1.177,1.04-1.41a4.491,4.491,0,0,0,3.426-4.641c.01-3.245.021-6.491-.006-9.737M82.58,57.951c.874-.048,1.753-.043,2.628-.008.346.014.244.311.167.52-.438,1.19-.883,2.377-1.471,3.956-.579-1.562-1.022-2.746-1.455-3.933-.071-.2-.218-.516.131-.535M93.917,73.067a2.755,2.755,0,0,1-.389,1.459c-.347.571-.883,1.149-1.544.978-.583-.151-.247-.886-.251-1.35C91.7,70.77,91.7,67.385,91.709,64c0-.8-.066-1.588-1.068-1.619-1.093-.034-1.186.788-1.184,1.644q.012,7.929,0,15.858,0,7.65,0,15.3c0,1.88-.69,2.727-2.174,2.762-1.339.031-2.228-1.048-2.234-2.77q-.022-5.634-.011-11.267c0-.912-.251-1.629-1.319-1.489-.892.117-.942.86-.94,1.6.012,3.709-.005,7.419.012,11.128a2.278,2.278,0,0,1-1.542,2.508c-1.557.5-2.847-.563-2.861-2.407-.035-4.544-.025-9.088-.028-13.632q-.006-8.764-.006-17.527c0-.5.076-1.027-.356-1.431a1.045,1.045,0,0,0-1.157-.236,1.256,1.256,0,0,0-.737,1.359c.006,3.524.007,7.048-.017,10.572,0,.419.314,1.044-.257,1.221-.492.153-.958-.251-1.315-.63a2.622,2.622,0,0,1-.619-1.928c.012-3.107-.011-6.213.009-9.32a5.64,5.64,0,0,1,4.691-5.72,1.151,1.151,0,0,1,1.544.888c.771,2.23,1.633,4.429,2.472,6.636.228.6.415,1.273,1.252,1.294.913.022,1.117-.695,1.362-1.343.818-2.164,1.673-4.317,2.412-6.509.332-.986.854-1.127,1.769-.921a5.512,5.512,0,0,1,4.487,5.307c.073,3.244.014,6.491.024,9.737" transform="translate(-51.608 -40.087)" fill="#315820"/>
          <path id="Path_442" data-name="Path 442" d="M98.383,0a6.609,6.609,0,0,0-6.741,6.617A6.68,6.68,0,1,0,105,6.739,6.614,6.614,0,0,0,98.383,0m-.131,11.112a4.483,4.483,0,0,1-4.363-4.5,4.428,4.428,0,0,1,8.854.137,4.469,4.469,0,0,1-4.491,4.365" transform="translate(-66.022 0.001)" fill="#315820"/>
          <path id="Path_443" data-name="Path 443" d="M171.088,15.767a4.335,4.335,0,0,0-4.513,4.426,1.91,1.91,0,0,1-1.188,2.027c-1.762.918-3.455,1.968-5.177,2.963-.7.406-1.268.928-.745,1.776.512.828,1.234.592,1.937.179,1.715-1.006,3.458-1.965,5.152-3.005.769-.472,1.387-.748,2.2-.032a2.984,2.984,0,0,0,2.148.617,4.476,4.476,0,0,0,.182-8.95m-.146,6.69A2.191,2.191,0,0,1,171,18.075a2.2,2.2,0,0,1,2.194,2.212,2.238,2.238,0,0,1-2.248,2.17" transform="translate(-114.737 -11.359)" fill="#315820"/>
          <path id="Path_444" data-name="Path 444" d="M173.931,145.192a4.159,4.159,0,0,0-5.021-.51,1.982,1.982,0,0,1-2.47-.042c-1.649-1.027-3.363-1.95-5.034-2.942-.71-.422-1.423-.658-1.933.17s.03,1.361.746,1.771c1.768,1.012,3.505,2.08,5.3,3.047a1.74,1.74,0,0,1,1.062,1.825,4.323,4.323,0,0,0,4.438,4.5,4.451,4.451,0,0,0,2.916-7.815m-2.951,5.568a2.2,2.2,0,0,1-.026-4.4,2.2,2.2,0,1,1,.026,4.4" transform="translate(-114.742 -101.806)" fill="#315820"/>
          <path id="Path_445" data-name="Path 445" d="M29.851,141.83c-.5-.845-1.225-.6-1.931-.185-1.758,1.029-3.551,2-5.28,3.075a1.639,1.639,0,0,1-2.093-.02,4.249,4.249,0,0,0-5.047.365,4.455,4.455,0,0,0,2.785,7.919,4.353,4.353,0,0,0,4.449-4.5,1.741,1.741,0,0,1,1.063-1.829c1.791-.968,3.53-2.033,5.3-3.041.725-.412,1.247-.947.754-1.78m-11.424,8.9a2.208,2.208,0,1,1-.177-4.413,2.208,2.208,0,0,1,.177,4.413" transform="translate(-9.966 -101.772)" fill="#315820"/>
          <path id="Path_446" data-name="Path 446" d="M16.363,86.844c-1.989.015-3.98-.03-5.968.027a1.966,1.966,0,0,1-2.148-1.188,4.3,4.3,0,0,0-4.872-2.069A4.524,4.524,0,0,0,.012,87.583,4.432,4.432,0,0,0,2.9,92.169c1.754.668,4.069.253,4.945-1.4.916-1.73,2.174-1.776,3.709-1.669.46.032.925.005,1.387.005v-.008c1.157,0,2.313-.01,3.47,0,.8.009,1.412-.268,1.4-1.151s-.659-1.108-1.445-1.1M4.447,90.169a2.278,2.278,0,0,1-2.177-2.11,2.253,2.253,0,0,1,2.15-2.276,2.193,2.193,0,1,1,.028,4.386" transform="translate(0 -60.144)" fill="#315820"/>
          <path id="Path_447" data-name="Path 447" d="M181.8,83.59a4.322,4.322,0,0,0-4.946,2.21,1.69,1.69,0,0,1-1.825,1.05c-1.945-.063-3.894-.018-5.841-.031-.868-.006-1.822-.032-1.806,1.156.014,1.076.894,1.106,1.73,1.1,2.039-.013,4.08.033,6.118-.013a1.453,1.453,0,0,1,1.578.949,4.333,4.333,0,0,0,5.032,2.271,4.5,4.5,0,0,0-.04-8.694m-1.018,6.551a2.192,2.192,0,1,1,2.121-2.154,2.22,2.22,0,0,1-2.121,2.154" transform="translate(-120.59 -60.124)" fill="#315820"/>
          <path id="Path_448" data-name="Path 448" d="M29.238,25.391c-1.646-.94-3.254-1.952-4.932-2.832a2.233,2.233,0,0,1-1.457-2.3,4.342,4.342,0,0,0-4.466-4.2c-2.424.056-4.369,2.067-4.346,4.989a4.142,4.142,0,0,0,2.321,3.35,4.036,4.036,0,0,0,4.466-.169,1.446,1.446,0,0,1,1.851-.02c1.778,1.08,3.6,2.094,5.389,3.149.709.417,1.438.629,1.934-.2s-.045-1.362-.761-1.771M18.431,22.67a2.227,2.227,0,0,1-2.174-2.244,2.193,2.193,0,0,1,4.385.037,2.223,2.223,0,0,1-2.211,2.207" transform="translate(-10.113 -11.569)" fill="#315820"/>
        </g>
      </g>
    </g>
  </g>
</svg>
