<svg xmlns="http://www.w3.org/2000/svg" xmlns:xlink="http://www.w3.org/1999/xlink" width="80" height="80" viewBox="0 0 80 80">
  <defs>
    <clipPath id="clip-path">
      <rect id="Rectangle_155" data-name="Rectangle 155" width="53.605" height="47.124" fill="#315820"/>
    </clipPath>
  </defs>
  <g id="Group_756" data-name="Group 756" transform="translate(2204 5395)">
    <g id="Component_7_1" data-name="Component 7 – 1" transform="translate(-2204 -5395)">
      <rect id="Rectangle_2556" data-name="Rectangle 2556" width="80" height="80" fill="#9dcb20"/>
      <g id="Group_705" data-name="Group 705" transform="translate(13.198 16)">
        <g id="Group_73" data-name="Group 73" clip-path="url(#clip-path)">
          <path id="Path_265" data-name="Path 265" d="M0,2.2c.066-.135.14-.266.2-.4A2.8,2.8,0,0,1,2.84,0Q26.815,0,50.79,0A2.8,2.8,0,0,1,53.6,2.783q.008,16.1,0,32.2A2.821,2.821,0,0,1,50.709,37.8q-8.585.008-17.17,0h-.655c-.014.186-.035.336-.036.486,0,.611,0,1.222,0,1.832,0,2.818,0,2.821,1.6,5.128a.867.867,0,0,0,.535.294,9.214,9.214,0,0,0,.94.017.781.781,0,0,1,0,1.561c-.1.008-.209,0-.314,0H18.074a1.92,1.92,0,0,1-.418-.013.739.739,0,0,1-.625-.786.749.749,0,0,1,.6-.755.435.435,0,0,1,.208-.011c1.013.237,1.577-.287,1.982-1.132a6.229,6.229,0,0,1,.6-.921,2.034,2.034,0,0,0,.459-1.344.807.807,0,0,1,.782-.877.869.869,0,0,1,.825.9A2.453,2.453,0,0,1,22.007,44c-.362.458-.647.976-1,1.523H32.7c-.313-.49-.566-.963-.893-1.378a2.889,2.889,0,0,1-.593-1.994c.044-1.427.013-2.857.013-4.319H22.516c-.109.666.231,1.67-.855,1.658-1.048-.012-.717-.987-.832-1.693H3.214A2.883,2.883,0,0,1,.078,35.659C.068,35.634.027,35.621,0,35.6V2.2M52.035,27.87v-.6q0-12.016,0-24.032c0-1.209-.464-1.672-1.676-1.672H3.244c-1.211,0-1.673.462-1.673,1.674q0,12.016,0,24.032v.6H2.2c1.92,0,3.839,0,5.758,0,.688,0,1.08.431.931,1.007-.137.531-.565.607-1.027.607h-6.3c0,1.716,0,3.354,0,4.991,0,1.308.442,1.746,1.762,1.746h46.9c1.381,0,1.8-.421,1.8-1.817q0-2.173,0-4.346v-.574h-.818q-19.579,0-39.157,0a1.582,1.582,0,0,1-.767-.073c-.249-.154-.55-.452-.561-.7a1.155,1.155,0,0,1,.494-.749c.162-.126.466-.09.707-.09q19.683-.005,39.366,0Z" transform="translate(0 0)" fill="#315820"/>
          <path id="Path_266" data-name="Path 266" d="M75.708,51.5v-.984q0-6.937,0-13.874a4.55,4.55,0,0,1,.009-.523.729.729,0,0,1,.767-.7.743.743,0,0,1,.788.686,2.464,2.464,0,0,1,.009.418q0,7.67,0,15.341c0,.987-.325,1.315-1.316,1.315q-22.353,0-44.705,0c-.963,0-1.3-.335-1.3-1.279q0-10.34,0-20.681c0-.954.3-1.261,1.239-1.261H76.063c.905,0,1.217.316,1.219,1.229,0,.541.009,1.082,0,1.623a.785.785,0,1,1-1.567.007c-.008-.209,0-.419,0-.628,0-.191,0-.382,0-.615H31.564V51.5Z" transform="translate(-26.819 -26.811)" fill="#315820"/>
          <path id="Path_267" data-name="Path 267" d="M244.24,303.812a1.238,1.238,0,1,1,1.226,1.236,1.235,1.235,0,0,1-1.226-1.236" transform="translate(-218.623 -270.816)" fill="#315820"/>
          <path id="Path_268" data-name="Path 268" d="M125.109,74.808c0,1.079,0,2.1,0,3.134a2.118,2.118,0,0,1-.05.522.685.685,0,0,1-1.288.083,1.567,1.567,0,0,1-.078-.555q-.007-4.937,0-9.875a1.459,1.459,0,0,1,1.675-1.657c1.013.007,2.031-.024,3.038.065a4.148,4.148,0,0,1,.287,8.186,17.458,17.458,0,0,1-2.262.1c-.417.011-.834,0-1.316,0m.028-1.434c1.039,0,2.055.072,3.058-.017a2.644,2.644,0,0,0,2.414-2.611,2.7,2.7,0,0,0-2.2-2.806,8.765,8.765,0,0,0-1.536-.054c-.578-.007-1.155,0-1.733,0Z" transform="translate(-110.714 -59.489)" fill="#315820"/>
          <path id="Path_269" data-name="Path 269" d="M217.61,74.72c0,1.169,0,2.278,0,3.388a.683.683,0,0,1-.743.762.627.627,0,0,1-.63-.572,2.742,2.742,0,0,1-.017-.446c0-3.265.025-6.531-.014-9.8a1.52,1.52,0,0,1,1.69-1.692c1,.049,2-.016,3,.072a4.154,4.154,0,0,1,.243,8.2,6,6,0,0,1-.926.077c-.849.01-1.7,0-2.6,0m.022-1.43c1.032,0,2.048.07,3.05-.017a2.691,2.691,0,0,0,2.452-2.59,2.66,2.66,0,0,0-2.228-2.821,25.519,25.519,0,0,0-3.274-.028Z" transform="translate(-193.529 -59.4)" fill="#315820"/>
          <path id="Path_270" data-name="Path 270" d="M313.516,67.869V78.125c0,.473-.2.754-.562.813a.683.683,0,0,1-.818-.756c-.006-1.314,0-2.628,0-3.941V67.869h-1.449c-.378,0-.757,0-1.136,0-.555-.007-.9-.289-.891-.727s.338-.693.875-.7c.568-.005,1.136,0,1.7,0H315.9c.095,0,.189,0,.284,0,.5.021.821.314.809.725a.736.736,0,0,1-.771.7l-.027,0c-.73.012-1.46,0-2.19,0h-.488" transform="translate(-276.283 -59.473)" fill="#315820"/>
          <path id="Path_271" data-name="Path 271" d="M173.1,198.822h8.841c.488,0,.743.168.836.536a.673.673,0,0,1-.474.825.689.689,0,0,1-.073.015,2.96,2.96,0,0,1-.445.017H164.431c-.692,0-1.028-.227-1.03-.692s.34-.7,1.023-.7H173.1" transform="translate(-146.262 -177.966)" fill="#315820"/>
          <path id="Path_272" data-name="Path 272" d="M362.88,200.164c-.243,0-.486.014-.727,0a.689.689,0,0,1-.019-1.374,15.034,15.034,0,0,1,1.535,0,.688.688,0,0,1-.022,1.373c-.255.017-.512,0-.768,0" transform="translate(-323.59 -177.919)" fill="#315820"/>
          <path id="Path_273" data-name="Path 273" d="M125.123,200.179c-.243,0-.486.014-.727,0a.688.688,0,0,1-.027-1.373,15.1,15.1,0,0,1,1.535,0,.691.691,0,0,1,.631.716.7.7,0,0,1-.644.66.769.769,0,0,1-.083.005h-.685v0" transform="translate(-110.763 -177.933)" fill="#315820"/>
        </g>
      </g>
    </g>
  </g>
</svg>
