<svg xmlns="http://www.w3.org/2000/svg" xmlns:xlink="http://www.w3.org/1999/xlink" width="80" height="80" viewBox="0 0 80 80">
  <defs>
    <clipPath id="clip-path">
      <rect id="Rectangle_2578" data-name="Rectangle 2578" width="43.192" height="60.235" fill="#315820"/>
    </clipPath>
  </defs>
  <g id="Group_772" data-name="Group 772" transform="translate(2517 5252)">
    <g id="Group_723" data-name="Group 723">
      <rect id="Rectangle_2559" data-name="Rectangle 2559" width="80" height="80" transform="translate(-2517 -5252)" fill="#9dcb20"/>
      <g id="Group_719" data-name="Group 719" transform="translate(-2499 -5242.118)">
        <g id="Group_718" data-name="Group 718" clip-path="url(#clip-path)">
          <path id="Path_432" data-name="Path 432" d="M283.362,381.47c-.591.908-1.057.955-1.853.2q-3.282-3.11-6.569-6.215a7.731,7.731,0,0,1-2.458-7.7c.137-.628.207-1.271.314-1.907a.9.9,0,0,1,1.054-.844.835.835,0,0,1,.712,1.027c-.1.853-.211,1.708-.386,2.548a5.666,5.666,0,0,0,1.909,5.491c2.168,2.094,4.372,4.151,6.572,6.211a2.908,2.908,0,0,1,.706.957Z" transform="translate(-240.17 -321.961)" fill="#315820"/>
          <path id="Path_433" data-name="Path 433" d="M175.37,0a1.458,1.458,0,0,1,.52,1.274c-.02,1.7-.007,3.406-.008,5.109,0,.137,0,.275-.009.411a.85.85,0,0,1-.9.872.863.863,0,0,1-.877-.905c-.015-1.957-.006-3.915-.005-5.872A1.122,1.122,0,0,1,174.665,0Z" transform="translate(-153.564)" fill="#315820"/>
          <path id="Path_434" data-name="Path 434" d="M11.034,370.141a7.058,7.058,0,0,1-2.471,5.12c-2.258,2.228-4.6,4.374-6.9,6.551-.491.463-1.015.5-1.4.115-.4-.409-.345-.927.184-1.428,2.232-2.115,4.483-4.209,6.7-6.342a5.718,5.718,0,0,0,2.083-4.882c-.1-.872-.263-1.737-.4-2.606-.036-.232-.082-.464-.094-.7a.837.837,0,0,1,.729-.962.813.813,0,0,1,1.005.68,26.756,26.756,0,0,1,.561,4.451" transform="translate(0 -321.971)" fill="#315820"/>
          <path id="Path_435" data-name="Path 435" d="M20.866,118.573l2.084.479c1.2.273,2.395.534,3.586.823.624.151.9.587.762,1.1a.91.91,0,0,1-1.2.635q-2.764-.626-5.525-1.265a.931.931,0,0,1-.8-1c.066-.474.443-.783,1.087-.773" transform="translate(-17.44 -104.595)" fill="#315820"/>
          <path id="Path_436" data-name="Path 436" d="M286.222,118.51a.821.821,0,0,1,.878.736.87.87,0,0,1-.728,1.034c-1.212.288-2.428.555-3.642.832-.645.147-1.288.3-1.934.443a.932.932,0,0,1-1.2-.646.894.894,0,0,1,.79-1.09c1.818-.429,3.639-.847,5.46-1.266a3.5,3.5,0,0,1,.376-.044" transform="translate(-246.613 -104.539)" fill="#315820"/>
          <path id="Path_437" data-name="Path 437" d="M71.116,31.3a.829.829,0,0,1-.7-.334c-1.265-1.44-2.536-2.873-3.791-4.321a.884.884,0,0,1,.032-1.346.865.865,0,0,1,1.294.159c1.273,1.432,2.53,2.878,3.8,4.317a.912.912,0,0,1,.177,1.033.794.794,0,0,1-.809.492" transform="translate(-58.512 -22.118)" fill="#315820"/>
          <path id="Path_438" data-name="Path 438" d="M254.578,26.031a1.225,1.225,0,0,1-.3.674c-1.254,1.424-2.5,2.857-3.755,4.278a.914.914,0,0,1-1.343.159.863.863,0,0,1-.03-1.3q1.886-2.17,3.8-4.319a.854.854,0,0,1,1.039-.307.952.952,0,0,1,.589.818" transform="translate(-219.532 -22.177)" fill="#315820"/>
          <path id="Path_439" data-name="Path 439" d="M92.113,118.18c-.6-1.312-1.255-2.6-1.773-3.948-1.3-3.383-2.536-6.793-3.8-10.189-.579-1.552-1.09-3.136-1.78-4.638a3.336,3.336,0,0,0-5.251-1.43c-.191.17-.31.149-.491-.006a2.916,2.916,0,0,0-1.524-.7,3.675,3.675,0,0,0-3.982,2.664c-2.353,6.086-4.295,12.333-7.1,18.243a11.568,11.568,0,0,0-.568,7.958.884.884,0,0,0,1.061.759.941.941,0,0,0,.689-1.127c-.05-.309-.1-.619-.169-.922a8.9,8.9,0,0,1,.626-5.946c.6-1.314,1.256-2.6,1.776-3.947,1.2-3.108,2.309-6.162,3.56-9.531.6-1.626,1.2-3.254,1.808-4.88a3.584,3.584,0,0,1,.249-.529,1.648,1.648,0,0,1,2.057-.894c.744.306,1.021,1.042.76,2.038q-1.436,5.488-2.872,10.976a.981.981,0,0,1-.534.685,3.445,3.445,0,0,0-1.932,3.184c-.012,1.588,0,3.175-.006,4.763a6.242,6.242,0,0,1-.064.817,6.905,6.905,0,0,1-.983,2.424.883.883,0,0,0,.278,1.234.84.84,0,0,0,1.189-.249,7.092,7.092,0,0,0,1.339-3.755c.021-1.685,0-3.371.01-5.057a1.846,1.846,0,0,1,1.851-1.986,1.788,1.788,0,0,1,1.813,1.942q.005,8.085,0,16.171a10.323,10.323,0,0,1-.192,2.042,9.658,9.658,0,0,1-1.514,3.4q-2.193,3.33-4.367,6.672c-.406.622-.288,1.246.283,1.471.555.22.927-.045,1.222-.508,1.818-2.845,3.757-5.612,5.486-8.533,1.75,2.964,3.717,5.762,5.557,8.64a.908.908,0,0,0,.7.468.849.849,0,0,0,.847-.411.934.934,0,0,0-.09-1.094c-1.491-2.271-2.969-4.552-4.472-6.816a9.147,9.147,0,0,1-1.63-5.171q.008-8.2-.006-16.406a1.762,1.762,0,0,1,.125-.745,1.856,1.856,0,0,1,2.056-1.1,1.888,1.888,0,0,1,1.484,1.865c.016,1.725-.01,3.45.013,5.174A7.006,7.006,0,0,0,85.2,125a.8.8,0,0,0,1.139.26.878.878,0,0,0,.369-1.165,3.024,3.024,0,0,0-.2-.358A5.962,5.962,0,0,1,85.6,120.4c.041-1.469.02-2.94.006-4.41a3.442,3.442,0,0,0-1.894-3.149,1.049,1.049,0,0,1-.574-.721c-.808-3.094-1.639-6.182-2.428-9.281a8.506,8.506,0,0,1-.524-2.511,1.321,1.321,0,0,1,1.371-1.306c.819,0,1.4.563,1.824,1.649,2.338,6.008,4.255,12.178,7.007,18.027a8.339,8.339,0,0,1,.863,5.234q-.185.949-.328,1.906a.915.915,0,0,0,.7,1.062.866.866,0,0,0,1.043-.706c.073-.283.091-.58.158-.864a10.758,10.758,0,0,0-.712-7.15m-11.749-9.575c.3,1.166.592,2.338.929,3.495.087.3,0,.367-.242.426a3.247,3.247,0,0,0-1.557.879c-.178.178-.279.191-.463,0a3.217,3.217,0,0,0-1.555-.882c-.244-.059-.323-.128-.242-.427.666-2.459,1.3-4.926,1.948-7.39.006-.024.054-.038.141-.093.35,1.343.7,2.666,1.041,3.989" transform="translate(-57.694 -85.748)" fill="#315820"/>
        </g>
      </g>
    </g>
  </g>
</svg>
