<svg xmlns="http://www.w3.org/2000/svg" xmlns:xlink="http://www.w3.org/1999/xlink" width="80" height="80" viewBox="0 0 80 80">
  <defs>
    <clipPath id="clip-path">
      <rect id="Rectangle_142" data-name="Rectangle 142" width="56.331" height="50.707" fill="#315820"/>
    </clipPath>
  </defs>
  <g id="Group_755" data-name="Group 755" transform="translate(2292 5395)">
    <g id="Group_738" data-name="Group 738">
      <rect id="Rectangle_2554" data-name="Rectangle 2554" width="80" height="80" transform="translate(-2292 -5395)" fill="#9dcb20"/>
      <g id="Group_704" data-name="Group 704" transform="translate(-2280 -5380)">
        <g id="Group_59" data-name="Group 59" transform="translate(0 0)" clip-path="url(#clip-path)">
          <path id="Path_208" data-name="Path 208" d="M56.33,2.644V48.062c-.042.1-.092.192-.125.293a3.3,3.3,0,0,1-3.227,2.35q-24.833,0-49.666,0A3.261,3.261,0,0,1,0,47.4Q0,25.352,0,3.308A3.257,3.257,0,0,1,3.314,0Q28.174,0,53.035,0a3.256,3.256,0,0,1,3.11,2.2c.055.151.123.3.186.446M2.2,22.065v.647q0,12.123,0,24.246c0,1.192.353,1.546,1.541,1.546H52.576c1.2,0,1.555-.353,1.555-1.533q0-12.151,0-24.3v-.605Zm51.934-2.241v-.547q0-7.8,0-15.595c0-1.106-.379-1.481-1.5-1.481H3.688c-1.116,0-1.49.373-1.49,1.485q0,7.8,0,15.595c0,.176.016.353.025.542Z" transform="translate(0.001 0)" fill="#315820"/>
          <path id="Path_211" data-name="Path 211" d="M48.339,231.053a2.251,2.251,0,0,1-2.427-2.506q0-1.928,0-3.857a2.246,2.246,0,0,1,2.427-2.5c0-.335-.009-.678,0-1.019a1.109,1.109,0,0,1,1.128-1.16,1.071,1.071,0,0,1,1.083,1.135c.015.328,0,.656,0,1.019a7.02,7.02,0,0,1,.775.1,2.2,2.2,0,0,1,1.687,2.179c.033,1.45.04,2.9,0,4.352-.039,1.36-.83,2.075-2.455,2.28v.639q0,4.408,0,8.815a2.939,2.939,0,0,1-.074.817,1.093,1.093,0,0,1-1.235.692,1.143,1.143,0,0,1-.906-1.209c-.006-2.222,0-4.444,0-6.667v-3.112m-.183-2.255h2.586v-4.359H48.156Z" transform="translate(-40.851 -195.754)" fill="#315820"/>
          <path id="Path_212" data-name="Path 212" d="M405.214,226.6a2.317,2.317,0,0,1,2.444,2.553c-.08,1.262-.017,2.533-.018,3.8a2.253,2.253,0,0,1-2.427,2.51c0,.188,0,.381,0,.575,0,1.616.007,3.232,0,4.848a1.122,1.122,0,0,1-.9,1.155,1.062,1.062,0,0,1-1.207-.644,2.274,2.274,0,0,1-.1-.754c-.009-1.524,0-3.049,0-4.573v-.584c-1.823-.228-2.467-.97-2.468-2.774q0-1.708,0-3.416c0-1.753.675-2.515,2.468-2.72v-.581c0-1.579-.007-3.159,0-4.738.005-.784.416-1.24,1.082-1.249a1.12,1.12,0,0,1,1.133,1.267c.006,1.76,0,3.52,0,5.324m.207,2.264h-2.6V233.2h2.6Z" transform="translate(-356.373 -195.754)" fill="#315820"/>
          <path id="Path_213" data-name="Path 213" d="M139.277,235.5c0,1.18,0,2.369,0,3.558,0,.606.008,1.212,0,1.817a1.072,1.072,0,0,1-1.1,1.175,1.087,1.087,0,0,1-1.1-1.176c-.009-1.67,0-3.341,0-5.012,0-.125-.011-.251-.009-.223a10.93,10.93,0,0,1-1.682-.773,1.827,1.827,0,0,1-.74-1.583c0-1.4,0-2.79,0-4.186a2.243,2.243,0,0,1,2.434-2.5v-.57c0-1.579,0-3.157,0-4.736,0-.8.423-1.284,1.108-1.283s1.094.462,1.1,1.285c.006,1.56,0,3.121,0,4.681v.6a6.809,6.809,0,0,1,.8.112,2.17,2.17,0,0,1,1.653,2.2c.028,1.431.033,2.864,0,4.3-.033,1.385-.751,2.05-2.451,2.324m-2.4-2.3h2.582v-4.358h-2.582Z" transform="translate(-119.793 -195.756)" fill="#315820"/>
          <path id="Path_214" data-name="Path 214" d="M316.48,230.977a2.315,2.315,0,0,1,2.449,2.6,29.645,29.645,0,0,0,0,3.578,2.353,2.353,0,0,1-2.451,2.708c0,.34.009.684,0,1.028a1.093,1.093,0,0,1-1.092,1.134,1.063,1.063,0,0,1-1.106-1.107c-.013-.345,0-.69,0-1.049a6.883,6.883,0,0,1-.795-.109,2.152,2.152,0,0,1-1.656-2.134c-.033-1.468-.039-2.938,0-4.405.035-1.36.795-2.045,2.448-2.268v-.583q0-4.571,0-9.142a1.108,1.108,0,1,1,2.2-.03c.006,2.368,0,4.736,0,7.1v2.68m.19,2.263h-2.581V237.6h2.581Z" transform="translate(-277.426 -195.725)" fill="#315820"/>
          <path id="Path_215" data-name="Path 215" d="M227.8,231.058v3.4q0,3.169,0,6.337c0,.775-.408,1.244-1.074,1.256-.694.013-1.121-.462-1.122-1.263q0-4.546,0-9.093v-.63a6.5,6.5,0,0,1-.722-.075,2.153,2.153,0,0,1-1.709-2.032c-.034-1.377.037-2.758-.032-4.132a2.337,2.337,0,0,1,2.464-2.644c0-.36-.01-.722,0-1.083a1.1,1.1,0,0,1,2.192,0c.011.346,0,.693,0,1.072a6.48,6.48,0,0,1,.722.073,2.15,2.15,0,0,1,1.708,2.032c.035,1.377-.035,2.757.033,4.132a2.339,2.339,0,0,1-2.463,2.646m-2.408-2.268h2.6v-4.341h-2.6Z" transform="translate(-198.537 -195.754)" fill="#315820"/>
          <path id="Path_216" data-name="Path 216" d="M257.6,53.217q-4.344,0-8.689,0a3.272,3.272,0,0,1-3.4-3.39q0-3.251,0-6.5a3.263,3.263,0,0,1,3.343-3.332q8.771,0,17.542,0A3.263,3.263,0,0,1,269.71,43.3q.01,3.306,0,6.612a3.267,3.267,0,0,1-3.316,3.305q-4.4.009-8.8,0m0-2.2q4.263,0,8.526,0c.99,0,1.395-.412,1.4-1.415q0-3,0-6.007c0-.993-.41-1.4-1.413-1.4q-8.5,0-17,0c-.992,0-1.395.41-1.4,1.414q0,2.976,0,5.952c0,1.068.39,1.454,1.468,1.454q4.208,0,8.416,0" transform="translate(-218.443 -35.581)" fill="#315820"/>
          <path id="Path_217" data-name="Path 217" d="M80.406,50a2.479,2.479,0,0,1,.038,4.957A2.479,2.479,0,1,1,80.406,50" transform="translate(-69.332 -44.492)" fill="#315820"/>
          <path id="Path_218" data-name="Path 218" d="M167.719,52.493a2.451,2.451,0,0,1-2.471,2.469A2.479,2.479,0,1,1,165.27,50a2.448,2.448,0,0,1,2.449,2.489" transform="translate(-144.814 -44.491)" fill="#315820"/>
          <path id="Path_219" data-name="Path 219" d="M75.149,131.107a1.07,1.07,0,0,1-1.106,1.1,1.1,1.1,0,0,1,0-2.2,1.064,1.064,0,0,1,1.107,1.1" transform="translate(-64.903 -115.676)" fill="#315820"/>
          <path id="Path_220" data-name="Path 220" d="M115.077,131.126a1.068,1.068,0,0,1-1.125,1.082,1.1,1.1,0,0,1,.036-2.2,1.066,1.066,0,0,1,1.089,1.117" transform="translate(-100.429 -115.677)" fill="#315820"/>
          <path id="Path_221" data-name="Path 221" d="M153.922,130.007a1.1,1.1,0,0,1-.007,2.2,1.1,1.1,0,1,1,.007-2.2" transform="translate(-135.949 -115.675)" fill="#315820"/>
          <path id="Path_222" data-name="Path 222" d="M194.919,131.112a1.07,1.07,0,0,1-1.112,1.1,1.1,1.1,0,0,1,.01-2.2,1.066,1.066,0,0,1,1.1,1.1" transform="translate(-171.468 -115.676)" fill="#315820"/>
        </g>
      </g>
    </g>
  </g>
</svg>
