<svg xmlns="http://www.w3.org/2000/svg" width="80" height="80" viewBox="0 0 80 80">
  <g id="Group_774" data-name="Group 774" transform="translate(2646 5109)">
    <g id="Component_18_1" data-name="Component 18 – 1" transform="translate(-2646 -5109)">
      <rect id="Rectangle_2573" data-name="Rectangle 2573" width="80" height="80" fill="#9dcb20"/>
      <g id="money-svgrepo-com" transform="translate(11 12)">
        <g id="Group_678" data-name="Group 678">
          <g id="Group_677" data-name="Group 677">
            <path id="Path_379" data-name="Path 379" d="M326.516,281.419a7.544,7.544,0,0,0-2.25,5.522v4.8a.959.959,0,1,0,1.919,0v-4.8a5.635,5.635,0,0,1,1.638-4.119l6.716-6.716a2.024,2.024,0,0,1,1.337-.621,1.626,1.626,0,0,1,1.26.5,1.651,1.651,0,0,1,.5,1.26,2.024,2.024,0,0,1-.621,1.337l-4.8,4.8a.959.959,0,0,0,1.357,1.357l4.8-4.8a3.944,3.944,0,0,0,1.182-2.617,3.646,3.646,0,0,0-3.761-3.76,3.94,3.94,0,0,0-2.616,1.182Z" transform="translate(-287.806 -242.804)" fill="#315820"/>
            <path id="Path_380" data-name="Path 380" d="M10.554,185.264a.959.959,0,0,0,.678-1.638L3.5,175.9a5.52,5.52,0,0,1-1.583-4.069V157.439a1.919,1.919,0,1,1,3.838,0v7.6a.959.959,0,1,0,1.919,0v-7.6a3.838,3.838,0,0,0-7.676,0v14.392a7.414,7.414,0,0,0,2.2,5.476l7.676,7.676A.957.957,0,0,0,10.554,185.264Z" transform="translate(0 -136.33)" fill="#315820"/>
            <path id="Path_381" data-name="Path 381" d="M51.7,277.329a3.94,3.94,0,0,0,1.182,2.616l4.8,4.8a.959.959,0,1,0,1.357-1.357l-4.8-4.8a2.02,2.02,0,0,1-.621-1.337,1.651,1.651,0,0,1,.5-1.26,1.63,1.63,0,0,1,1.26-.5,2.023,2.023,0,0,1,1.337.621l6.761,6.759a5.63,5.63,0,0,1,1.593,4.077v4.8a.959.959,0,0,0,1.919,0v-4.8a7.537,7.537,0,0,0-2.2-5.476l-6.716-6.716a3.939,3.939,0,0,0-2.616-1.182,3.646,3.646,0,0,0-3.761,3.76Z" transform="translate(-45.881 -242.807)" fill="#315820"/>
            <path id="Path_382" data-name="Path 382" d="M225.7,88.211a1.921,1.921,0,0,1,1.919,1.919.959.959,0,1,0,1.919,0,3.834,3.834,0,0,0-2.878-3.7v-.136a.959.959,0,1,0-1.919,0v.136a3.83,3.83,0,0,0,.959,7.54,1.919,1.919,0,1,1-1.919,1.919.959.959,0,1,0-1.919,0,3.834,3.834,0,0,0,2.878,3.7v.136a.959.959,0,0,0,1.919,0v-.136a3.83,3.83,0,0,0-.959-7.54,1.919,1.919,0,1,1,0-3.838Z" transform="translate(-196.92 -75.738)" fill="#315820"/>
            <path id="Path_383" data-name="Path 383" d="M67.511,460.8H52.159a.959.959,0,0,0-.959.959V465.6a.959.959,0,0,0,1.919,0v-2.878H66.552V465.6a.959.959,0,0,0,1.919,0v-3.838A.959.959,0,0,0,67.511,460.8Z" transform="translate(-45.443 -408.988)" fill="#315820"/>
            <path id="Path_384" data-name="Path 384" d="M323.511,460.8H308.159a.959.959,0,0,0-.959.959V465.6a.959.959,0,0,0,1.919,0v-2.878h13.433V465.6a.959.959,0,1,0,1.919,0v-3.838A.959.959,0,0,0,323.511,460.8Z" transform="translate(-272.659 -408.988)" fill="#315820"/>
            <path id="Path_385" data-name="Path 385" d="M149.966,34.133A13.433,13.433,0,1,0,163.4,47.566,13.448,13.448,0,0,0,149.966,34.133Zm0,24.947A11.514,11.514,0,1,1,161.48,47.566,11.527,11.527,0,0,1,149.966,59.08Z" transform="translate(-121.181 -30.295)" fill="#315820"/>
            <path id="Path_386" data-name="Path 386" d="M417.273,153.6a3.842,3.842,0,0,0-3.838,3.838v7.6a.959.959,0,1,0,1.919,0v-7.6a1.919,1.919,0,0,1,3.838,0V171.83a5.522,5.522,0,0,1-1.638,4.119l-7.676,7.676a.959.959,0,1,0,1.357,1.357l7.616-7.621a7.426,7.426,0,0,0,2.26-5.53V157.438A3.842,3.842,0,0,0,417.273,153.6Z" transform="translate(-363.542 -136.329)" fill="#315820"/>
            <path id="Path_387" data-name="Path 387" d="M136.941,17.271a17.271,17.271,0,1,0-17.271,17.271A17.291,17.291,0,0,0,136.941,17.271ZM119.671,32.622a15.352,15.352,0,1,1,15.352-15.352A15.37,15.37,0,0,1,119.671,32.622Z" transform="translate(-90.886)" fill="#315820"/>
          </g>
        </g>
      </g>
    </g>
  </g>
</svg>
