<svg id="Component_3_1" data-name="Component 3 – 1" xmlns="http://www.w3.org/2000/svg" xmlns:xlink="http://www.w3.org/1999/xlink" width="80" height="80" viewBox="0 0 80 80">
  <defs>
    <clipPath id="clip-path">
      <rect id="Rectangle_147" data-name="Rectangle 147" width="53.605" height="57.786" fill="#315820"/>
    </clipPath>
  </defs>
  <rect id="Rectangle_2551" data-name="Rectangle 2551" width="80" height="80" fill="#9dcb20"/>
  <g id="Group_703" data-name="Group 703" transform="translate(13 11)">
    <g id="Group_69" data-name="Group 69" transform="translate(0)" clip-path="url(#clip-path)">
      <path id="Path_255" data-name="Path 255" d="M118.715,48.245c.013-.834-.582-1.247-1.158-1.011a3.971,3.971,0,0,0-.393.216c-2.186,1.2-4.341,2.458-6.567,3.577-1.687.849-3.464,1.52-5.2,2.27-.12.052-.244.1-.364.151a.856.856,0,1,0,.622,1.585c1.61-.664,3.254-1.266,4.806-2.049,2.576-1.3,5.1-2.711,7.624-4.1a2.714,2.714,0,0,0,.631-.637" transform="translate(-92.591 -41.834)" fill="#315820"/>
      <path id="Path_256" data-name="Path 256" d="M25.679,0c.959.152,1.922.28,2.875.462a15.756,15.756,0,0,1,5.122,1.8,6.236,6.236,0,0,1,1.534,1.131,2.885,2.885,0,0,0,2.028.911A9.785,9.785,0,0,1,42.89,6.853a.87.87,0,0,1,.189,1.287c-.353.415-.839.419-1.333-.021A8.5,8.5,0,0,0,36.6,5.966a3.442,3.442,0,0,1-2.323-1.109,9.3,9.3,0,0,0-4.441-2.313,21.8,21.8,0,0,0-13.566.431A15.733,15.733,0,0,0,5.924,14.694a24.088,24.088,0,0,0-.693,5.858c0,.816.279,1.051,1.035.745,4.275-1.729,8.577-3.4,12.8-5.249,3.9-1.708,7.713-3.612,11.56-5.438a2.44,2.44,0,0,1,3.3.741,79.236,79.236,0,0,0,7.3,8.366,32.923,32.923,0,0,0,2.529,2.157c.663.522,1.22.263,1.345-.576a17.98,17.98,0,0,0-1.083-9.944.888.888,0,0,1,.4-1.28c.5-.193.931.03,1.2.633a18.449,18.449,0,0,1,1.451,8.19c-.034.917-.161,1.832-.282,2.744a2.447,2.447,0,0,1-1.651,2.1.663.663,0,0,0-.374.388,16.946,16.946,0,0,1-7.722,10.863c-.092.06-.176.131-.266.2.265.582.512,1.146.781,1.7a.851.851,0,0,0,.3.317,11.883,11.883,0,0,0,7.319,2.165c1.019-.068,2.019-.393,3.036-.55a4.718,4.718,0,0,1,2.493,9.028,15.636,15.636,0,0,1-5.058,1.007A19.619,19.619,0,0,1,38.792,48a2.678,2.678,0,0,0-.349-.05c0,.232,0,.429,0,.627,0,1.5.016,3.01-.017,4.514a4.879,4.879,0,0,1-4.779,4.685c-4.852.014-9.7.006-14.557,0-.649,0-1.041-.328-1.036-.851s.393-.836,1.05-.837q7,0,13.993,0a3.306,3.306,0,0,0,3.646-3.624q0-5.473,0-10.946a11.079,11.079,0,0,0-1.525-5.443c-.8.326-1.592.72-2.425.964a3.172,3.172,0,0,0-1.8,1.436,57.047,57.047,0,0,1-3.6,4.753,2.77,2.77,0,0,1-4.344.017,31.971,31.971,0,0,1-4.008-5.365,1.564,1.564,0,0,0-.694-.579c-1.019-.425-2.059-.8-3.136-1.212a9.568,9.568,0,0,0-1.364,4.017c-.122,1.231-.12,2.476-.127,3.715-.016,2.878.017,5.756-.015,8.633a3.505,3.505,0,0,0,1.663,3.236,1.181,1.181,0,0,1,.45.87c0,.233-.312.54-.56.67a.9.9,0,0,1-.731-.086,4.608,4.608,0,0,1-2.48-3.8c-.087-1.29-.017-2.591-.017-4.011a3.265,3.265,0,0,0-.408.314c-1.046,1.182-2.1,2.358-3.124,3.558a4.612,4.612,0,0,1-4.826,1.7,4.508,4.508,0,0,1-3.53-3.561,4.585,4.585,0,0,1,.894-3.984,48.151,48.151,0,0,1,6.954-7.3c1.651-1.418,3.423-2.7,5.127-4.053a5.3,5.3,0,0,0,.659-.782C9.294,32.334,6.35,28.487,5.542,23.2c-1.715-.638-2.119-1.3-2.044-3.141a24.878,24.878,0,0,1,1.949-9.251C7.883,5.351,12.161,2.133,17.863.7c1.177-.3,2.4-.4,3.6-.6a3.78,3.78,0,0,0,.376-.1Zm-.771,36.659a20.006,20.006,0,0,0,10.947-2.972,15.023,15.023,0,0,0,7.158-9.7.63.63,0,0,0-.3-.741c-.81-.641-1.622-1.285-2.373-1.993a76.064,76.064,0,0,1-7.669-8.715c-.506-.649-.672-.684-1.427-.316-1.956.953-3.9,1.928-5.874,2.847-5.814,2.709-11.65,5.37-17.69,7.552-.457.165-.429.421-.368.774a14.348,14.348,0,0,0,4.8,8.456,19.665,19.665,0,0,0,12.792,4.809M12.266,38.743A60.06,60.06,0,0,0,4.85,45.5a13.245,13.245,0,0,1,4.584,3.956c.757-.766,1.487-1.468,2.168-2.216a1.459,1.459,0,0,0,.372-.864c.044-1.859.022-3.719.062-5.579.014-.645.141-1.288.23-2.054m26.18.8c0,.9,0,1.781,0,2.659s-.005,1.766,0,2.649c0,1.281,0,1.29,1.232,1.622a18.787,18.787,0,0,0,5.692.682,14.072,14.072,0,0,1-.994-6.044,13.634,13.634,0,0,1-5.925-1.568m10.213.939c-.625.133-1.484.308-2.338.507a.365.365,0,0,0-.208.269,11.218,11.218,0,0,0,.975,5.473.453.453,0,0,0,.387.189,21.119,21.119,0,0,0,2.549-.661,2.967,2.967,0,0,0,1.825-3.322,3.088,3.088,0,0,0-3.19-2.456M4.764,53.314a2.618,2.618,0,0,0,1.953-.741,18.193,18.193,0,0,0,1.372-1.641.422.422,0,0,0-.023-.386A10.193,10.193,0,0,0,3.98,47.013a.612.612,0,0,0-.554.134,13.009,13.009,0,0,0-1.191,1.5,2.858,2.858,0,0,0-.14,3.1,2.863,2.863,0,0,0,2.67,1.573M29.293,38a25.817,25.817,0,0,1-8.1.112c1.042,1.426,2.122,2.79,3.258,4.106a.976.976,0,0,0,1.47.059A24.14,24.14,0,0,0,29.293,38" transform="translate(0 0.001)" fill="#315820"/>
      <path id="Path_257" data-name="Path 257" d="M118.715,48.245a2.714,2.714,0,0,1-.631.637c-2.528,1.392-5.048,2.8-7.624,4.1-1.552.783-3.2,1.384-4.806,2.049a.856.856,0,1,1-.622-1.585c.12-.053.243-.1.364-.151,1.737-.75,3.514-1.422,5.2-2.27,2.226-1.12,4.381-2.378,6.567-3.577a3.971,3.971,0,0,1,.393-.216c.576-.235,1.171.177,1.158,1.011" transform="translate(-92.591 -41.834)" fill="#315820"/>
      <path id="Path_258" data-name="Path 258" d="M247.256,398.833c-.506,0-1.032.013-1.556,0-.623-.02-.98-.341-.985-.853-.006-.529.376-.865,1.019-.883.507-.014,1.014-.016,1.521-.026.014,0,.027-.023.1-.088,0-.486-.008-1.027,0-1.567a.837.837,0,0,1,.829-.935c.534-.012.853.33.865.948.01.524,0,1.048,0,1.668a11.787,11.787,0,0,1,1.695.022,1.386,1.386,0,0,1,.851.509.865.865,0,0,1-.073.811,1.3,1.3,0,0,1-.815.382,15.171,15.171,0,0,1-1.658.017c0,.581.007,3.816,0,4.354-.01.612-.337.98-.847.978s-.838-.378-.849-.982c-.01-.508-.011-3.712-.017-4.22,0-.016-.018-.031-.08-.131" transform="translate(-217.042 -349.868)" fill="#315820"/>
      <path id="Path_259" data-name="Path 259" d="M142.756,183.656a2.41,2.41,0,0,1,2.385,2.246.911.911,0,0,1-.778,1.008.839.839,0,0,1-.912-.733c-.087-.445-.239-.834-.757-.812-.474.02-.625.39-.7.818a.816.816,0,0,1-.914.722.856.856,0,0,1-.769-.9,2.4,2.4,0,0,1,2.442-2.354" transform="translate(-124.446 -162.888)" fill="#315820"/>
      <path id="Path_260" data-name="Path 260" d="M265.515,183.656a2.411,2.411,0,0,1,2.391,2.179.928.928,0,0,1-.708,1.065.853.853,0,0,1-.987-.768c-.085-.431-.257-.784-.738-.768s-.633.379-.706.809a.835.835,0,0,1-.906.737.888.888,0,0,1-.778-.947,2.4,2.4,0,0,1,2.431-2.307" transform="translate(-233.334 -162.888)" fill="#315820"/>
      <path id="Path_261" data-name="Path 261" d="M203.472,215.9a3.089,3.089,0,0,1-2.189-.958.854.854,0,1,1,1.157-1.253,1.361,1.361,0,0,0,2.089-.014.852.852,0,1,1,1.169,1.241,3.1,3.1,0,0,1-2.227.985" transform="translate(-178.258 -189.305)" fill="#315820"/>
    </g>
  </g>
</svg>
