<svg xmlns="http://www.w3.org/2000/svg" xmlns:xlink="http://www.w3.org/1999/xlink" width="80" height="80" viewBox="0 0 80 80">
  <defs>
    <clipPath id="clip-path">
      <rect id="Rectangle_2577" data-name="Rectangle 2577" width="42.002" height="60.056" fill="#315820"/>
    </clipPath>
  </defs>
  <g id="Group_754" data-name="Group 754" transform="translate(2391 5395)">
    <rect id="Rectangle_2553" data-name="Rectangle 2553" width="80" height="80" transform="translate(-2391 -5395)" fill="#9dcb20"/>
    <g id="Group_717" data-name="Group 717" transform="translate(-2372.001 -5385.028)">
      <g id="Group_716" data-name="Group 716" clip-path="url(#clip-path)">
        <path id="Path_429" data-name="Path 429" d="M69.493,83.646c0-.534-.01-1.068,0-1.6.016-.673.123-1.341-.926-1.344-.541,0-.845-.459-.833-1.021a.888.888,0,0,1,.9-.964c.729,0,.894-.338.884-.986a.974.974,0,0,1,1.047-1.108.954.954,0,0,1,.993,1.029c.01.671.134,1.092.947,1.078a.849.849,0,0,1,.833.879c.038.543-.2,1.038-.763,1.067-1.038.053-1.023.682-1,1.443.041,1.2.008,2.4.02,3.6.007.739-.179,1.406-1.027,1.427s-1.091-.6-1.079-1.364c.012-.711,0-1.423,0-2.135" transform="translate(-49.562 -56.063)" fill="#315820"/>
        <path id="Path_430" data-name="Path 430" d="M41.117,27.876c-.7-.133-1.04.363-1.2.972a7.15,7.15,0,0,0-.112.788,11.562,11.562,0,0,1-10.855,9.418,1.275,1.275,0,0,1-1.339-.756,3.234,3.234,0,0,0-3.087-1.7q-3.534.05-7.07-.008a3.224,3.224,0,0,0-3.094,1.695,1.346,1.346,0,0,1-1.477.75A11.5,11.5,0,0,1,2.464,30.753c-.2-.721-.3-1.469-.49-2.194a.9.9,0,0,0-1.1-.723A.985.985,0,0,0,0,28.854a6.806,6.806,0,0,0,.061,1.064,13.659,13.659,0,0,0,12.7,11.223c1,.02,1.131.369,1.121,1.236-.046,3.912-.012,7.826-.035,11.739a6.788,6.788,0,0,0,1.4,4.333,2.448,2.448,0,0,1,.5,1.469q.353,7.256.754,14.509c.149,2.744.161,2.744-2.463,3.679-1.452.518-1.616,1.053-.7,2.288h.8c.933-.268,1.919-.254,2.846-.576,1.8-.626,2.084-.966,2.077-2.894-.01-2.839-.245-5.669-.446-8.5-.145-2.035.008-4.083-.312-6.112-.108-.685.226-.993.944-.82a7.286,7.286,0,0,0,3.431,0c.863-.206,1.058.286.937.955a61.3,61.3,0,0,0-.389,6.773c-.191,2.738-.458,5.481-.4,8.238A2.142,2.142,0,0,0,24.283,79.6a22.405,22.405,0,0,0,3.472.808h.8c.915-1.225.75-1.775-.695-2.287a10.076,10.076,0,0,0-1.26-.391,1.379,1.379,0,0,1-1.269-1.7c.341-5.454.595-10.914.864-16.372a1.839,1.839,0,0,1,.413-1.09,7.451,7.451,0,0,0,1.5-4.843c-.043-3.823,0-7.648-.008-11.472,0-.6-.074-1.078.842-1.094a12.988,12.988,0,0,0,9.783-4.619,12.766,12.766,0,0,0,3.269-7.385,1.057,1.057,0,0,0-.875-1.283M21.248,59.226c-2.249.21-4.333-1.346-5.116-3.914l9.554.009a4.715,4.715,0,0,1-4.438,3.9m3.725-6.05c-2.667-.038-5.337-.062-8,0-.891.021-1.008-.317-.989-1.073.048-1.911.019-3.824.021-5.736,0-1.956.032-3.914,0-5.869-.023-1.22.44-1.8,1.724-1.766,2.177.055,4.358.051,6.536.008,1.176-.023,1.723.44,1.716,1.637-.022,3.957-.036,7.915,0,11.872.008.8-.292.936-1,.926" transform="translate(0.001 -20.352)" fill="#315820"/>
        <path id="Path_431" data-name="Path 431" d="M58.237,0a7.34,7.34,0,0,0,0,14.681,7.367,7.367,0,0,0,7.347-7.323A7.4,7.4,0,0,0,58.237,0M53.383,5.454a5.433,5.433,0,0,1,5.509-3.286c.259.044.525.052.68.4-.118.149-.242.327-.387.486A10.42,10.42,0,0,1,54.01,6.07c-.534.14-.872.1-.627-.617M62.916,9.6a4.944,4.944,0,0,1-3.967,2.942c-2.8,0-4.7-1.264-5.49-3.159-.277-.663-.394-1,.6-1.188A11.422,11.422,0,0,0,61.09,4.055c.585-.732.861-.463,1.237.065A5.027,5.027,0,0,1,62.916,9.6" transform="translate(-37.248 0)" fill="#315820"/>
      </g>
    </g>
  </g>
</svg>
