<svg xmlns="http://www.w3.org/2000/svg" xmlns:xlink="http://www.w3.org/1999/xlink" width="80" height="80" viewBox="0 0 80 80">
  <defs>
    <clipPath id="clip-path">
      <rect id="Rectangle_134" data-name="Rectangle 134" width="57.057" height="57.057" transform="translate(-0.294 0.221)" fill="#315820"/>
    </clipPath>
  </defs>
  <g id="Group_753" data-name="Group 753" transform="translate(2484 5395)">
    <g id="Component_5_1" data-name="Component 5 – 1" transform="translate(-2484 -5395)">
      <rect id="Rectangle_2553" data-name="Rectangle 2553" width="80" height="80" fill="#9dcb20"/>
      <g id="Group_701" data-name="Group 701" transform="translate(13.294 14.172)">
        <g id="Group_53" data-name="Group 53" transform="translate(-3.029 -3.029)" clip-path="url(#clip-path)">
          <path id="Path_174" data-name="Path 174" d="M59.062,169.987q0-8.055,0-16.111c0-.882-.26-1.285-.83-1.3-.593-.015-.872.4-.872,1.316q0,16.082,0,32.164c0,.874.267,1.289.831,1.3.583.016.871-.418.871-1.321q0-8.027,0-16.054" transform="translate(-49.103 -129.941)" fill="#315820"/>
          <path id="Path_175" data-name="Path 175" d="M112.346,58.121c-.685-.13-1.383-.211-2.052-.4a12.92,12.92,0,0,1-9.513-9.492l-.11-.383a7.252,7.252,0,0,1-6.906.583,7.062,7.062,0,0,1-3.642-3.5,7.235,7.235,0,0,1,2.474-9.14,7.317,7.317,0,0,1,10.08,1.9,2.656,2.656,0,0,0,.774-2.584,9.964,9.964,0,0,1,.295-5.369c.126-.371.047-.517-.281-.7a14.456,14.456,0,1,0-9.189,27.018,14.161,14.161,0,0,0,6.834-.509c.108-.036.214-.073.323-.105a.862.862,0,1,1,.539,1.616,16.172,16.172,0,0,1-16.527-3.627c-.117.175-.224.32-.314.474-.667,1.142-1.328,2.289-2,3.429-.348.591-.848.766-1.308.478-.435-.273-.494-.753-.15-1.347.757-1.309,1.51-2.62,2.288-3.917a.619.619,0,0,0-.041-.835,16.037,16.037,0,0,1,1.546-21.546,2.32,2.32,0,0,0,.81-1.947c-.061-1.53-.018-3.064-.018-4.6v-.674c-.307,0-.548.011-.788,0a.784.784,0,0,1-.815-.779.8.8,0,0,1,.7-.887,2.324,2.324,0,0,1,.508-.029q10.415,0,20.83,0a2.055,2.055,0,0,1,.614.072.828.828,0,0,1-.159,1.612c-.28.027-.564,0-.9,0v2.62c.752-.515,1.492-1.059,2.271-1.54a6.019,6.019,0,0,1,1.442-.649.713.713,0,0,0,.6-.833c-.02-3.9-.006-7.795-.022-11.692a1.731,1.731,0,0,0-.254-.953,7.287,7.287,0,0,1-1.342-5.236,11.67,11.67,0,0,0,0-1.985A2.377,2.377,0,0,1,110.643,0h5.562a2.4,2.4,0,0,1,1.667,2.691,12.59,12.59,0,0,0,0,2.1,7.132,7.132,0,0,1-1.289,5.02,2.157,2.157,0,0,0-.31,1.165c-.022,3.837,0,7.674-.025,11.511a.771.771,0,0,0,.606.89,10.135,10.135,0,0,1,6.555,11.515,3.114,3.114,0,0,0,.577,2.662,11.907,11.907,0,0,1,2.041,4.387c.16.657.262,1.328.391,1.993v2.384c-.036.144-.082.287-.107.433a12.848,12.848,0,0,1-9.227,10.815,23.836,23.836,0,0,1-2.586.558Zm-1.794-33.168c-.3.121-.513.195-.715.289a8.493,8.493,0,0,0-4.726,9.5,4.49,4.49,0,0,1-.816,3.692,11.106,11.106,0,0,0-2.069,8.256,11.3,11.3,0,1,0,20.313-8.245,4.658,4.658,0,0,1-.818-3.752,8.355,8.355,0,0,0-2.2-7.641,7.816,7.816,0,0,0-3.194-2.068,1.224,1.224,0,0,0-.053.222c0,3.538-.009,7.075.007,10.613a.866.866,0,0,0,.3.552,4.881,4.881,0,0,1,1.784,4.222,4.8,4.8,0,0,1-2.506,3.948.852.852,0,1,1-.9-1.438c.109-.075.227-.137.333-.215a3.149,3.149,0,0,0,1.337-3.224,3.264,3.264,0,0,0-5.711-1.553,3.277,3.277,0,0,0,.724,4.864,1.581,1.581,0,0,1,.625.8,1.007,1.007,0,0,1-.351.758c-.318.3-.7.163-1.047-.039a4.967,4.967,0,0,1-.7-8.032,1.006,1.006,0,0,0,.387-.864c-.013-2.365-.007-4.73-.007-7.094Zm-19.439,17.2a5.253,5.253,0,0,0,3.078,4.581,5.356,5.356,0,0,0,5.785-.5.932.932,0,0,0,.453-.888,12.813,12.813,0,0,1,1.081-5.518,1,1,0,0,0-.047-.766,5.51,5.51,0,0,0-6.2-2.63,5.67,5.67,0,0,0-4.144,5.725M116.161,4.582c0-.737-.011-1.475,0-2.212.01-.481-.189-.676-.678-.669q-2.07.028-4.141,0c-.527-.008-.7.218-.692.716.016,1.418,0,2.836.013,4.254a1.5,1.5,0,0,0,.163.641,18.293,18.293,0,0,0,.914,1.63.815.815,0,0,0,.556.331,21.409,21.409,0,0,0,2.211,0,.849.849,0,0,0,.566-.32,5.109,5.109,0,0,0,1.089-3.861,3.431,3.431,0,0,1,0-.51M88.01,22.983v5.029l3.958-1.8V22.983ZM104.463,27.6V22.986h-4.144c0,.9.017,1.761-.008,2.624-.011.358.128.469.456.561.724.2,1.436.455,2.139.724.52.2,1.018.456,1.558.7m-5.879-4.611H93.766v2.766h4.817Zm13.7-8.811h2.232V11.038h-2.232Zm-.01,17.292h2.241V28.924h-2.241Zm2.24-15.525h-2.228v2.541h2.228Zm.012,4.317H112.3v2.56h2.222Zm-2.24,6.859h2.238V24.588h-2.238Zm0,8.156h2.235V33.259h-2.235Z" transform="translate(-68.727 -0.458)" fill="#315820"/>
          <path id="Path_176" data-name="Path 176" d="M0,56.647a8.151,8.151,0,0,1,.514-.99,2.562,2.562,0,0,1,2.864-.971q6.5,1.784,12.99,3.588c.491.136.985.264,1.471.416a2.627,2.627,0,1,1-1.418,5.059c-1.916-.5-3.822-1.051-5.732-1.579-.069-.019-.14-.033-.3-.072,0,.56,0,1.079,0,1.6,0,.832.013,1.664-.007,2.5-.014.6-.337.928-.848.925s-.832-.331-.839-.934c-.017-1.323-.028-2.648,0-3.97a.652.652,0,0,0-.578-.778c-1.808-.474-3.592-1.039-5.409-1.47A3.354,3.354,0,0,1,0,57.782V56.647m2.795-.355a.927.927,0,1,0-.275,1.833q4.689,1.309,9.38,2.608c1.618.45,3.234.907,4.856,1.345a.948.948,0,0,0,1.273-.612.959.959,0,0,0-.778-1.18c-.09-.028-.181-.053-.272-.079Q10.6,58.438,4.215,56.669c-.508-.141-1.02-.271-1.42-.377" transform="translate(-0.425 -46.774)" fill="#315820"/>
          <path id="Path_177" data-name="Path 177" d="M59.062,169.987q0,8.027,0,16.054c0,.9-.288,1.337-.871,1.321-.564-.015-.831-.431-.831-1.3q0-16.082,0-32.164c0-.912.279-1.331.872-1.316.57.015.83.418.83,1.3q0,8.055,0,16.111" transform="translate(-49.103 -129.941)" fill="#315820"/>
          <path id="Path_184" data-name="Path 184" d="M271.946,326.008c-1.226,0-2.453.017-3.679-.006-.73-.014-1.169-.685-.789-1.23a1.193,1.193,0,0,1,.839-.441c2.4-.035,4.792-.027,7.188-.016.641,0,.985.323.987.846s-.338.84-.98.847c-1.188.012-2.377,0-3.566,0Z" transform="translate(-227.3 -275.677)" fill="#315820"/>
        </g>
      </g>
    </g>
  </g>
</svg>
