<svg xmlns="http://www.w3.org/2000/svg" width="80" height="80" viewBox="0 0 80 80">
  <g id="Group_768" data-name="Group 768" transform="translate(2116 5252)">
    <g id="Component_17_1" data-name="Component 17 – 1" transform="translate(-2116 -5252)">
      <rect id="Rectangle_2564" data-name="Rectangle 2564" width="80" height="80" fill="#9dcb20"/>
      <g id="users-young-svgrepo-com" transform="translate(9.999 -9.925)">
        <g id="Group_666" data-name="Group 666" transform="translate(26.234 52.619)">
          <g id="Group_665" data-name="Group 665" transform="translate(0 0)">
            <path id="Path_375" data-name="Path 375" d="M230.524,283.12a.923.923,0,0,0-1.28-.258,6.724,6.724,0,0,1-4.928,0,.923.923,0,0,0-1.022,1.538,8.215,8.215,0,0,0,6.971,0A.923.923,0,0,0,230.524,283.12Z" transform="translate(-222.882 -282.708)" fill="#315820"/>
          </g>
        </g>
        <g id="Group_668" data-name="Group 668" transform="translate(21.328 43.037)">
          <g id="Group_667" data-name="Group 667">
            <path id="Path_376" data-name="Path 376" d="M187.545,202.129a5.843,5.843,0,0,0-6,0,.923.923,0,1,0,1.169,1.429,4.273,4.273,0,0,1,3.667,0,.923.923,0,0,0,1.169-1.429Z" transform="translate(-181.201 -201.299)" fill="#315820"/>
          </g>
        </g>
        <g id="Group_670" data-name="Group 670" transform="translate(23.329 45.875)">
          <g id="Group_669" data-name="Group 669" transform="translate(0 0)">
            <circle id="Ellipse_4" data-name="Ellipse 4" cx="1.34" cy="1.34" r="1.34" fill="#315820"/>
          </g>
        </g>
        <g id="Group_672" data-name="Group 672" transform="translate(32.253 43.037)">
          <g id="Group_671" data-name="Group 671">
            <path id="Path_377" data-name="Path 377" d="M280.366,202.13a5.843,5.843,0,0,0-6,0,.923.923,0,0,0,1.169,1.429,4.272,4.272,0,0,1,3.667,0,.923.923,0,1,0,1.169-1.429Z" transform="translate(-274.022 -201.3)" fill="#315820"/>
          </g>
        </g>
        <g id="Group_674" data-name="Group 674" transform="translate(34.255 45.875)">
          <g id="Group_673" data-name="Group 673" transform="translate(0 0)">
            <circle id="Ellipse_5" data-name="Ellipse 5" cx="1.34" cy="1.34" r="1.34" fill="#315820"/>
          </g>
        </g>
        <g id="Group_676" data-name="Group 676" transform="translate(0.001 21.925)">
          <g id="Group_675" data-name="Group 675">
            <path id="Path_378" data-name="Path 378" d="M60.195,72.064A19.14,19.14,0,0,0,47.081,60.67V57.716a13.2,13.2,0,0,0,8.3-9.92,4.431,4.431,0,0,0,2.288-7.633V37.153a15.258,15.258,0,0,0-5.027-11.305.923.923,0,0,0-1.237,1.37,13.408,13.408,0,0,1,4.418,9.935v1.983q-.111-.03-.224-.054c0-.047,0-.094,0-.141a12.339,12.339,0,0,0-1.03-4.626,11.792,11.792,0,0,0-.787-1.495.923.923,0,0,0-1.516-.078,1.277,1.277,0,0,1-2.291-.779.923.923,0,1,0-1.846,0,1.279,1.279,0,0,1-2.558,0,.923.923,0,1,0-1.846,0,1.269,1.269,0,0,1-.137.569,1.306,1.306,0,0,1-.379.452L43.184,33a15.206,15.206,0,0,0-2.018-2.637l-.031-.033a15.256,15.256,0,0,0-5.912-3.836c-.079-.028-.544-.243-.6-.2a13.4,13.4,0,0,1,13.891-1.068.923.923,0,0,0,.839-1.645,15.235,15.235,0,0,0-17.03,2.2,15.242,15.242,0,0,0-4.377,0,15.226,15.226,0,0,0-18.987-1,.923.923,0,1,0,1.076,1.5,13.386,13.386,0,0,1,15.612.02,15.242,15.242,0,0,0-6.134,3.653,15.522,15.522,0,0,0-1.652,1.89A13.463,13.463,0,0,0,17.08,33l-.019-.014a1.3,1.3,0,0,1-.516-1.021.923.923,0,0,0-1.846,0,1.279,1.279,0,0,1-2.558,0,.923.923,0,0,0-1.846,0A1.277,1.277,0,0,1,8,32.742a.923.923,0,0,0-1.516.078,12.081,12.081,0,0,0-1.7,4.726A12.8,12.8,0,0,0,4.67,38.94c0,.047,0,.094,0,.141-.075.016-.15.034-.224.054V37.152A13.4,13.4,0,0,1,7.5,28.632a.923.923,0,1,0-1.423-1.176,15.251,15.251,0,0,0-3.486,9.7v3.009A4.432,4.432,0,0,0,4.884,47.8a13.2,13.2,0,0,0,8.3,9.92v2.954a19.019,19.019,0,0,0-6.775,3.208.923.923,0,0,0,1.1,1.482,17.314,17.314,0,0,1,3.211-1.89c-.248.112,1.69,2.474,1.888,2.654a7.726,7.726,0,0,0,5.216,2.033h.137a19.225,19.225,0,0,0-3.174,3.332H2.355a17.3,17.3,0,0,1,2.568-3.765.923.923,0,0,0-1.376-1.231A19.1,19.1,0,0,0,.068,72.063a.923.923,0,0,0,.856,1.27H13.567a19.005,19.005,0,0,0-1.191,2.423.923.923,0,0,0,.855,1.27h33.8a.923.923,0,0,0,.856-1.27A18.967,18.967,0,0,0,46.7,73.333H59.339a.923.923,0,0,0,.856-1.27ZM55.592,45.8c0-.132.006-.264.006-.4v-4.4l.012,0a2.6,2.6,0,0,1,.483.254l.031.021a2.588,2.588,0,0,1-.534,4.551C55.591,45.824,55.591,45.812,55.592,45.8ZM3.012,43.419a2.626,2.626,0,0,1,1.64-2.409l.012,0v4.4c0,.133,0,.265.006.4,0,.012,0,.024,0,.036A2.594,2.594,0,0,1,3.012,43.419ZM47.819,62.8l-.025.058a5.833,5.833,0,0,1-1.5,2.009,5.88,5.88,0,0,1-9.2-2.009l-.025-.058a17.283,17.283,0,0,1,1.849-.492.923.923,0,0,0,.735-.9V58.263l.142.029a13.192,13.192,0,0,0,5.349-.008l.1-.02v3.142a.923.923,0,0,0,.735.9A17.208,17.208,0,0,1,47.819,62.8ZM22.465,59.783h0a13.14,13.14,0,0,0,3.026,1.625V61.7c-.234-.1-.47-.2-.709-.3l-.074-.028h0a19.1,19.1,0,0,0-2.241-.707Zm-3.537-9.132,0-.017a11.25,11.25,0,0,1-.1-1.539V42.929a10.347,10.347,0,0,1,1.033-4.514,3.077,3.077,0,0,0,.523.22,3.129,3.129,0,0,0,3.149-.764,3.12,3.12,0,0,0,4.4,0,3.117,3.117,0,0,0,1.884.894,3.152,3.152,0,0,0,.318.016,3.115,3.115,0,0,0,2.2-.91,3.12,3.12,0,0,0,4.4,0,3.126,3.126,0,0,0,3.672.544,10.344,10.344,0,0,1,1.033,4.514V49.1c0,.336-.016.672-.045,1.007l0,.05a11.38,11.38,0,0,1-2.935,6.59l-.247.26a11.323,11.323,0,0,1-4.97,2.97l-.017.005a11.342,11.342,0,0,1-6.186,0l-.017-.005A11.493,11.493,0,0,1,18.927,50.652Zm5.684,13.464c.114-.21.221-.427.315-.647q.284.128.563.266v.627q-.6.15-1.193.339l-.047.014C24.38,64.523,24.5,64.32,24.611,64.116Zm.194,2.362A17.5,17.5,0,0,1,26.6,66a.923.923,0,0,0,.735-.9V61.956l.1.02A13.2,13.2,0,0,0,32.707,62c.073-.014.147-.029.22-.044V65.1a.923.923,0,0,0,.735.9,17.049,17.049,0,0,1,1.79.474l.058.019-.025.057-.043.093a5.878,5.878,0,0,1-10.689-.15Zm9.968-2.115v-.626q.281-.139.564-.267c-.027.013.548,1.048.623,1.163.018.028.035.056.053.084l-.048-.015q-.2-.064-.4-.124Q35.17,64.461,34.773,64.362Zm.784-2.985h0l-.082.031c-.234.091-.467.19-.7.292v-.294A13.138,13.138,0,0,0,37.8,59.783v.886A19.13,19.13,0,0,0,35.557,61.377Zm8.5-26.746a4.985,4.985,0,0,0,.582-.457,3.12,3.12,0,0,0,4.408,0,3.125,3.125,0,0,0,3.672.544,10.347,10.347,0,0,1,1.033,4.514V45.4c0,.446-.036.887-.079,1.33a11.342,11.342,0,0,1-8.089,9.537l-.052.016a11.434,11.434,0,0,1-4.586.331l-.016,0a13.135,13.135,0,0,0,.915-1.527l.006-.012a13.22,13.22,0,0,0,1.2-3.467l.005-.026c.006-.031.012-.063.018-.094a4.431,4.431,0,0,0,2.288-7.633V40.846a15.181,15.181,0,0,0-.628-4.328l0-.016a15.388,15.388,0,0,0-.686-1.86Zm-.27,10.324.032.022a2.588,2.588,0,0,1-.534,4.551c0-.012,0-.024,0-.036,0-.132.006-.264.006-.4V44.7l.012,0A2.613,2.613,0,0,1,43.785,44.956ZM16.75,40.846a13.381,13.381,0,0,1,.93-4.9A13.565,13.565,0,0,1,25.2,28.406a13.325,13.325,0,0,1,7.921-.6q.607.139,1.2.336a13.56,13.56,0,0,1,5.523,3.517,13.413,13.413,0,0,1,3.038,5.14l.011.035a13.46,13.46,0,0,1,.558,2.777l0,.034c.036.4.055.8.055,1.206v1.983c-.074-.02-.149-.038-.224-.054,0-.047,0-.094,0-.141a12.164,12.164,0,0,0-1.817-6.121.923.923,0,0,0-1.516-.078,1.277,1.277,0,0,1-2.291-.779.923.923,0,1,0-1.846,0,1.279,1.279,0,0,1-2.558,0,.923.923,0,1,0-1.846,0,1.279,1.279,0,1,1-2.558,0,.923.923,0,1,0-1.846,0,1.279,1.279,0,0,1-2.558,0,.923.923,0,0,0-1.846,0,1.277,1.277,0,0,1-2.291.779.923.923,0,0,0-1.516.078,11.95,11.95,0,0,0-1.146,2.41,12.693,12.693,0,0,0-.545,2.222,11.984,11.984,0,0,0-.127,1.5c0,.044,0,.087,0,.131-.075.016-.15.034-.224.054V40.846Zm-.3,4.132a2.656,2.656,0,0,1,.514-.275l.012,0v4.4c0,.135,0,.269.007.4,0,.01,0,.02,0,.03a2.588,2.588,0,0,1-.534-4.551ZM6.59,46.734a11.4,11.4,0,0,1-.079-1.33V39.237a10.347,10.347,0,0,1,1.033-4.514,3.126,3.126,0,0,0,3.672-.544,3.12,3.12,0,0,0,4.408,0,5.739,5.739,0,0,0,.54.429l.042.027.015.01c-.133.3-.255.6-.368.907s-.223.631-.318.952l0,.016a15.181,15.181,0,0,0-.628,4.328v3.009a4.431,4.431,0,0,0,2.288,7.633c.006.034.013.067.019.1l0,.013a13.228,13.228,0,0,0,2.119,5.012l-.015,0A11.31,11.31,0,0,1,6.59,46.734ZM17.823,66.31a5.956,5.956,0,0,1-4.606-2.23,4.009,4.009,0,0,1-.764-1.279,12.114,12.114,0,0,1,1.84-.492.923.923,0,0,0,.735-.9V58.263l.1.019a13.219,13.219,0,0,0,5.494-.02v3.143a.923.923,0,0,0,.735.9,9.218,9.218,0,0,1,1.849.5,6.144,6.144,0,0,1-3.647,3.239A5.856,5.856,0,0,1,17.823,66.31Zm-3.16,8.869a17.428,17.428,0,0,1,6.714-7.163l.01-.006a17.74,17.74,0,0,1,1.642-.847A10.326,10.326,0,0,0,23.7,68.4a7.732,7.732,0,0,0,13.536-1.241c.452.2.9.426,1.33.668a17.437,17.437,0,0,1,5.022,4.234q.3.368.576.754A17.3,17.3,0,0,1,45.6,75.18H14.664Zm30.814-3.692h0A19.216,19.216,0,0,0,42.3,68.156h.137a7.826,7.826,0,0,0,6.118-3.014,7.724,7.724,0,0,0,.985-1.674,17.407,17.407,0,0,1,8.365,8.018H45.477Z" transform="translate(-0.001 -21.925)" fill="#315820"/>
          </g>
        </g>
      </g>
    </g>
  </g>
</svg>
