<svg xmlns="http://www.w3.org/2000/svg" xmlns:xlink="http://www.w3.org/1999/xlink" width="80" height="80" viewBox="0 0 80 80">
  <defs>
    <clipPath id="clip-path">
      <rect id="Rectangle_2593" data-name="Rectangle 2593" width="65.719" height="53.592" fill="#315820"/>
    </clipPath>
  </defs>
  <g id="Group_762" data-name="Group 762" transform="translate(1405 5252)">
    <rect id="Rectangle_2585" data-name="Rectangle 2585" width="80" height="80" transform="translate(-1405 -5252)" fill="#9dcb20"/>
    <g id="Group_744" data-name="Group 744" transform="translate(-1396.719 -5238.26)">
      <g id="Group_743" data-name="Group 743" clip-path="url(#clip-path)">
        <path id="Path_484" data-name="Path 484" d="M33.206,25.982a.451.451,0,0,1,.16.131l6.5,6.5a3.366,3.366,0,0,1,.837,1.359A3.408,3.408,0,0,1,39.132,38a.689.689,0,0,0-.259.17,3.418,3.418,0,0,1,.4,2.772,3.355,3.355,0,0,1-1.79,2.148c-.007.089.047.124.088.164.478.478.949.965,1.439,1.432a9.293,9.293,0,0,0,4.875,2.475,8.6,8.6,0,0,0,2.228.131,1.139,1.139,0,0,1,.924.334l.169.168,8.465,8.465a2.788,2.788,0,0,1,.263.285,1.108,1.108,0,0,1-.507,1.72,1.082,1.082,0,0,1-1.1-.182,3.262,3.262,0,0,1-.259-.246q-4-4-8-8a.707.707,0,0,0-.671-.284,11.547,11.547,0,0,1-8.124-3.417c-.846-.829-1.676-1.674-2.514-2.51a.9.9,0,0,0-.253-.216c-.059.1-.113.193-.171.285a3.405,3.405,0,0,1-5.24.7c-.269-.251-.523-.519-.785-.777a.624.624,0,0,0-.221-.18c-.082.049-.107.151-.156.231a3.414,3.414,0,0,1-5.23.789c-.075-.065-.144-.137-.215-.208q-4.855-4.855-9.711-9.71a11.73,11.73,0,0,1-2.605-3.892,11.58,11.58,0,0,1-.831-3.466c-.028-.348-.047-.695-.042-1.043a.344.344,0,0,0-.118-.29c-.082-.072-.155-.154-.233-.231L.495,17.148a2.92,2.92,0,0,1-.264-.284,1.11,1.11,0,0,1,.53-1.732,1.085,1.085,0,0,1,1.069.188,2.4,2.4,0,0,1,.195.185l9.12,9.119.085.085a1.116,1.116,0,0,1,.343.86c-.008.239-.014.478-.013.716a9.424,9.424,0,0,0,2.757,6.6l9.774,9.774a2.242,2.242,0,0,0,.22.2,1.158,1.158,0,0,0,1.573-1.682c-.065-.075-.138-.143-.209-.213l-4.179-4.18c-.07-.07-.143-.139-.209-.213a1.089,1.089,0,0,1-.238-1.138,1.114,1.114,0,0,1,1.759-.5,3.085,3.085,0,0,1,.26.246l7.389,7.388c.077.077.153.157.236.228a1.157,1.157,0,0,0,1.614-1.653c-.066-.074-.138-.143-.209-.213l-7.388-7.389a2.643,2.643,0,0,1-.264-.283,1.121,1.121,0,0,1,.954-1.8,1.059,1.059,0,0,1,.675.281c.082.072.158.152.235.229l8.7,8.7c.077.077.153.157.235.229a1.158,1.158,0,0,0,1.634-1.634c-.072-.083-.152-.157-.23-.235l-8.612-8.613c-.085-.084-.172-.167-.247-.259a1.113,1.113,0,0,1,.076-1.517,1.13,1.13,0,0,1,1.5-.062c.092.075.175.163.259.247l6.84,6.839c.07.07.139.143.212.21a1.158,1.158,0,0,0,1.657-1.617c-.072-.082-.152-.157-.23-.235L28.43,24.35a2.7,2.7,0,0,1-.265-.283,1.12,1.12,0,0,1,.946-1.8,1.3,1.3,0,0,1,.349.073q2.271.73,4.54,1.466a1.391,1.391,0,0,0,.585.083,1.156,1.156,0,0,0,.434-2.17,2.636,2.636,0,0,0-.273-.12c-2.106-.838-4.209-1.683-6.319-2.511-.61-.24-1.236-.438-1.859-.645a3.792,3.792,0,0,1-.757-.344,9.431,9.431,0,0,0-5.843-1.269,1.263,1.263,0,0,1-1.1-.4q-4.449-4.46-8.906-8.911A2.1,2.1,0,0,1,9.8,7.342a1.12,1.12,0,0,1,1.577-1.571,3.639,3.639,0,0,1,.281.267q4.117,4.116,8.234,8.232c.355.355.193.288.7.271a11.55,11.55,0,0,1,6.333,1.6,1.562,1.562,0,0,0,.321.155c1.7.53,3.338,1.231,4.992,1.885q.888.351,1.774.705l.195.076a.167.167,0,0,0,.191-.041c.043-.042.088-.081.134-.119a3.413,3.413,0,0,1,4.57.15c.115.111.226.225.338.337l6.1,6.1c.084.084.169.166.272.267a.371.371,0,0,0-.033-.246,3.365,3.365,0,0,1-.159-1.028,3.405,3.405,0,0,1,6.548-1.3c.378.92.737,1.847,1.1,2.77.5,1.265,1.017,2.527,1.51,3.8.226.583.415,1.181.615,1.775a3.228,3.228,0,0,0,.268.6A11.44,11.44,0,0,1,57.111,36.2a9.92,9.92,0,0,1,.1,2.291.363.363,0,0,0,.13.342c.06.051.113.112.169.168L65.212,46.7c.07.07.144.138.209.213a1.121,1.121,0,0,1-.806,1.873,1.046,1.046,0,0,1-.743-.262c-.068-.058-.13-.123-.193-.186l-8.317-8.317c-.056-.056-.115-.111-.167-.171a1.073,1.073,0,0,1-.276-.737q0-.164.019-.328a9.3,9.3,0,0,0-1.33-5.829,1.958,1.958,0,0,1-.209-.427c-.524-1.7-1.22-3.342-1.876-5q-.676-1.705-1.358-3.408a2.274,2.274,0,0,0-.147-.326,1.156,1.156,0,0,0-2.1.914c.266.854.547,1.7.822,2.555q.329,1.022.658,2.044a2.078,2.078,0,0,1,.086.316,1.136,1.136,0,0,1-.214.874,8.276,8.276,0,0,0-.83,1.447,7.7,7.7,0,0,0-.672,2.341,5.86,5.86,0,0,0,1.292,4.462c.087.109.182.212.262.325a1.117,1.117,0,0,1-.392,1.639,1.13,1.13,0,0,1-1.277-.165,1.961,1.961,0,0,1-.163-.174,8.162,8.162,0,0,1-1.837-3.7,8.343,8.343,0,0,1-.118-2.494,10.344,10.344,0,0,1,1.292-4.033c.024-.044.048-.087.072-.131a.089.089,0,0,0-.015-.109c-.046-.052-.095-.1-.144-.151q-4.538-4.539-9.076-9.078a1.416,1.416,0,0,0-.56-.385.231.231,0,0,0-.2-.007c.007.1.091.149.147.214a3.4,3.4,0,0,1,.75,1.506,3.338,3.338,0,0,1-.055,1.652c-.019.067-.04.133-.062.2a.147.147,0,0,0,.042.162l.189.191,5.066,5.067c.07.07.143.139.207.215a1.12,1.12,0,0,1-1.57,1.584,3.235,3.235,0,0,1-.237-.227l-4.834-4.834c-.035-.035-.069-.072-.106-.105-.081-.072-.138-.187-.247-.208s-.2.075-.3.119a3.378,3.378,0,0,1-2.3.191c-.077-.02-.152-.046-.229-.066a.173.173,0,0,0-.154.03Z" transform="translate(0 -4.749)" fill="#315820"/>
        <path id="Path_485" data-name="Path 485" d="M82.088,284.693a1.115,1.115,0,0,1,.99,1.659,1.5,1.5,0,0,1-.154.219q-1.869,2.327-3.738,4.654a1.147,1.147,0,0,1-.768.467,1.117,1.117,0,0,1-1.131-1.661,1.674,1.674,0,0,1,.174-.242q1.831-2.281,3.664-4.56a1.534,1.534,0,0,1,.357-.357,1.028,1.028,0,0,1,.606-.179" transform="translate(-66.34 -244.86)" fill="#315820"/>
        <path id="Path_486" data-name="Path 486" d="M250.636,19.707a1.114,1.114,0,0,1-1.049-1.54,1.929,1.929,0,0,1,.091-.188l2.659-5.265c.031-.062.063-.124.1-.183a1.119,1.119,0,0,1,1.991,1.008c-.035.082-.075.162-.115.242l-2.594,5.131c-.045.089-.086.18-.139.263a1.092,1.092,0,0,1-.943.531" transform="translate(-214.597 -10.32)" fill="#315820"/>
        <path id="Path_487" data-name="Path 487" d="M175.673,6.337a1.109,1.109,0,0,1-1.043-.709,2.167,2.167,0,0,1-.07-.228q-.517-1.929-1.033-3.858a1.946,1.946,0,0,1-.069-.35A1.118,1.118,0,0,1,175.611.7a1.9,1.9,0,0,1,.07.228q.523,1.943,1.044,3.886a1.393,1.393,0,0,1,.049.617,1.119,1.119,0,0,1-1.1.907" transform="translate(-149.188 0)" fill="#315820"/>
        <path id="Path_488" data-name="Path 488" d="M319.56,86.143a1.087,1.087,0,0,1-.634,1,3.574,3.574,0,0,1-.331.134l-3.582,1.4a1.308,1.308,0,0,1-.756.1,1.121,1.121,0,0,1-.318-2.073,2.506,2.506,0,0,1,.3-.131l3.637-1.421c.083-.032.168-.061.253-.089a1.111,1.111,0,0,1,1.429,1.082" transform="translate(-269.525 -73.118)" fill="#315820"/>
        <path id="Path_489" data-name="Path 489" d="M169.18,323.418c.035.665.072,1.33.1,2a1.086,1.086,0,0,1-.482,1,1.117,1.117,0,0,1-1.746-.812c-.021-.238-.035-.476-.048-.714q-.089-1.623-.175-3.246c-.007-.139-.015-.278-.012-.417a1.117,1.117,0,0,1,2.209-.215,2.038,2.038,0,0,1,.04.325c.038.695.072,1.39.108,2.085h0" transform="translate(-143.48 -275.341)" fill="#315820"/>
        <path id="Path_490" data-name="Path 490" d="M22.745,230.4a1.128,1.128,0,0,1-1.175-.968,1.092,1.092,0,0,1,.838-1.234c.319-.074.645-.117.968-.171.931-.155,1.862-.311,2.794-.46a3.9,3.9,0,0,1,.709-.092,1.055,1.055,0,0,1,1.01.665,1.107,1.107,0,0,1-.8,1.546c-.341.067-.685.119-1.028.175l-2.794.461c-.2.032-.392.059-.523.079" transform="translate(-18.544 -195.646)" fill="#315820"/>
        <path id="Path_491" data-name="Path 491" d="M237.324,151.562l.027-.032-.028.035s0,0,0,0" transform="translate(-204.118 -130.329)" fill="#315820"/>
      </g>
    </g>
  </g>
</svg>
