<svg xmlns="http://www.w3.org/2000/svg" xmlns:xlink="http://www.w3.org/1999/xlink" width="80" height="80" viewBox="0 0 80 80">
  <defs>
    <clipPath id="clip-path">
      <rect id="Rectangle_2576" data-name="Rectangle 2576" width="66.801" height="66.595" fill="#315820"/>
    </clipPath>
  </defs>
  <g id="Group_752" data-name="Group 752" transform="translate(2573 5395)">
    <g id="Group_715" data-name="Group 715" transform="translate(-23 193)">
      <rect id="Rectangle_2553" data-name="Rectangle 2553" width="80" height="80" transform="translate(-2550 -5588)" fill="#9dcb20"/>
      <g id="Group_714" data-name="Group 714" transform="translate(-2543.401 -5581.27)">
        <g id="Group_713" data-name="Group 713" clip-path="url(#clip-path)">
          <path id="Path_425" data-name="Path 425" d="M58.907,73.953a5.785,5.785,0,0,0,2.508-1.78A25.036,25.036,0,0,0,66.8,61.186v-3.11c-.431-.556-.444-1.322-.907-1.855a8.7,8.7,0,0,1-1.757-2.554c-.31-.824-.012-1.566-.176-2.411a7.359,7.359,0,0,0-.6-1.63,12.938,12.938,0,0,0-2.129-3.205c-1.707-1.9-4.149-3.5-6.806-3.261-.435.038-.681-.135-.43-.6.439-.824.567-1.783,1.008-2.633a3.49,3.49,0,0,0,.241-2.234,19.681,19.681,0,0,0-.2-3.386,12.68,12.68,0,0,0-3.855-6.833c-.475-.43-.782-.366-1.08.231a4.945,4.945,0,0,0-.39,1.436c-.1.609-.242.637-.632.237-1.179-1.209-2.515-2.239-3.785-3.345-.718-.625-1.178-.566-1.364.335-.3,1.435-.775,2.872-.273,4.378a3.782,3.782,0,0,1,.022,1.215c-.008.41-.217.444-.474.194s-.514-.42-.864-.17a1.05,1.05,0,0,0-.442,1.056c.038.361.229.666.249,1.048A5.18,5.18,0,0,0,43.4,37.222a2.875,2.875,0,0,1,.753,2.2,8.171,8.171,0,0,0,.935,4.382,14.354,14.354,0,0,0,1.579,1.859c-.6.7-1.318,1.267-1.9,1.992a2.021,2.021,0,0,1-1.173.867,6.944,6.944,0,0,0-4.283,2.511c-.1.109.019.419-.382.205-1.573-.836-3.185-1.6-4.792-2.372-.469-.225-.631-.379-.5-1.032a13.352,13.352,0,0,0,.315-5.607,7.3,7.3,0,0,0-1.707-3.665,5.518,5.518,0,0,0-5.515-1.6,7.933,7.933,0,0,0-6.094,5.893,18.8,18.8,0,0,1-.806,1.841c-.076.229-.275.29-.617.162a8.205,8.205,0,0,0-4.014-.293,12.148,12.148,0,0,0-8.474,5.3,2,2,0,0,1-1.243.906,5.416,5.416,0,0,0-2.923,1.72A9.8,9.8,0,0,0,.536,57.143C.395,57.964.31,58.8.25,59.639c-.042.581-.073,1.161-.1,1.735a23.947,23.947,0,0,0,0,5.145c.68,3.632,2.342,5.4,5.656,5.973A9.037,9.037,0,0,0,8.9,72.466c.793-.139,1.03.216.866.932A16.677,16.677,0,0,1,8.7,76.309c-1.211,2.778-2.433,5.552-3.777,8.27-.3.606-.754,1.254-.1,1.933H18.144c.507-.276.446-.712.317-1.159a4.4,4.4,0,0,0-1.037-1.815,1.836,1.836,0,0,1-.416-1.936c.375-1.354.647-2.736,1.034-4.085a15.6,15.6,0,0,0,.508-6.477c1.835,2.033,2.02,2.552,1.744,5.071-.334,3.049-.829,6.078-1.17,9.127-.053.47-.21.973.352,1.275H31.253c.643-.386.463-.942.275-1.471a4.716,4.716,0,0,0-1.5-2.035,2.558,2.558,0,0,1-.939-2.241c.055-1.812-.157-3.621-.276-5.424-.125-1.9,0-3.868-.9-5.658-.3-.587.133-.962.489-1.348a.964.964,0,0,1,1.205-.213c1.336.544,2.67,1.092,4.049,1.533a2.837,2.837,0,0,0,3.051-.747,21.49,21.49,0,0,0,1.931-1.992c.26-.325.4-.425.72,0,.644.847.88.812,1.614.006.153-.168.251-.575.564-.305.179.154-.062.4-.187.572-.151.211-.325.4-.479.612A7.935,7.935,0,0,0,39.008,71.9c-.207,2.985-.552,5.966-.485,8.965a2.189,2.189,0,0,1-.976,2.082,4.594,4.594,0,0,0-1.575,2.238,1.07,1.07,0,0,0,.168,1.329h12a2.785,2.785,0,0,0,.208-2.142c-.31-2.642-.617-5.291-1.082-7.9A5.625,5.625,0,0,1,48.819,71.2c.066-.068.1-.166.19-.216,0,1.321-.48,2.615-.089,3.96.609,2.094.968,4.254,1.563,6.351a2.2,2.2,0,0,1-.537,2.513,3.459,3.459,0,0,0-.8,1.445c-.17.481-.216.95.325,1.255H62.8a1.229,1.229,0,0,0,.009-1.454c-.467-.965-.873-1.958-1.323-2.93-1.07-2.313-2.2-4.6-3.083-7-.228-.619-.143-.943.5-1.178M44.835,36.432c-.135.433-.274.216-.391.06a5.162,5.162,0,0,1-.966-1.9c-.016-.6-.036-.785.53-.6,1.036.343,1.245.005,1.1-1.048a24.066,24.066,0,0,1-.312-4.7.671.671,0,0,1,.3-.552c.247-.161.4.079.544.229,1.137,1.172,2.54,2.06,3.488,3.446.564.824.993.691,1.34-.257.012-.034.05-.06.057-.094.125-.612.194-1.573.648-1.649.487-.081.707.874,1.062,1.362a9.846,9.846,0,0,1,1.681,4.812,1.934,1.934,0,0,1,0,.221c0,.457.532,1.155.108,1.29a2.431,2.431,0,0,1-2.014.014c-1.551-.784-3.172-1.447-4.75-2.193-.906-.428-1.249-.321-1.774.463a4.581,4.581,0,0,0-.65,1.1m.7,4.829a6.992,6.992,0,0,1,.373-4.193c.475-1.075.535-1.087,1.623-.631,1.581.664,3.1,1.466,4.674,2.139.482.206.739-.163,1.108-.055.265.078.661-.158.795.171a.7.7,0,0,1-.279.837,2.285,2.285,0,0,0-.62,1.315,5.054,5.054,0,0,1-2.458,3.623,3.147,3.147,0,0,1-1.585.3c-2.351.086-3.22-1.416-3.63-3.5m.328,7c.647-.659,1.316-1.3,1.948-1.967.281-.3.612-.221.924-.2a5.083,5.083,0,0,0,3.774-1.308A3.129,3.129,0,0,1,55,44.322c3.2.5,5.33,2.456,6.891,5.185a9.588,9.588,0,0,1,1.279,4.7,5.334,5.334,0,0,1-1.5,4.251,6.024,6.024,0,0,1-2.976,1.377,16.094,16.094,0,0,1-6.929-.586c-.708-.171-.765-.641-.879-1.056a1.317,1.317,0,0,1,.418-1.238c.291-.2.865,0,1.315.026a24.176,24.176,0,0,0,4.016-.033,3.852,3.852,0,0,0,3.222-1.561,2.733,2.733,0,0,0,.2-2.322,12.27,12.27,0,0,0-2.733-4.578.72.72,0,0,0-.817-.159.567.567,0,0,0-.37.612c.015,1-.042,2,.02,2.994.048.771-.109,1.009-.984,1.071a7.68,7.68,0,0,1-5.858-2.3,8.325,8.325,0,0,0-3.291-1.955c-.41-.112-.4-.251-.16-.5M57.167,62.28a.217.217,0,0,1-.077-.359c.079-.1.174-.288.309-.224.607.285,1.2.6,1.789.918.061.033.05.2.065.264-.036.272-.146.359-.37.249-.573-.282-1.147-.56-1.716-.849m1.188,2.438c-.026.245-.168.29-.378.182-.541-.277-1.079-.561-1.627-.821-.159-.075-.253-.163-.183-.317a.592.592,0,0,1,.424-.353c.619.312,1.264.616,1.883.964.137.077-.1.211-.118.344m.765-3.686c.322-.139.728.024.986-.311.07.088.263.027.153.214-.137.231-.166.6-.577.462a.982.982,0,0,1-.562-.365m-.233,5.561c.706-1.446,1.48-2.858,2.079-4.356a1.9,1.9,0,0,1,.258-.464.277.277,0,0,1,.466-.024c.091.1.268.134.249.315-.157.289-.313.572-.465.857-.705,1.323-1.218,2.74-1.992,4.032-.164.274-.165.468-.6.27-.612-.278-.04-.535.007-.631m-8.908-5.614c-.469-.166-.317-.491-.248-.694.108-.319.381-.009.492.045,1.552.749,3.047,1.615,4.668,2.221.127.048.222.184.331.278a.734.734,0,0,1-.4.354c-.329.1-.556-.154-.8-.271a41.623,41.623,0,0,0-4.042-1.933m3.175,2.935a2.585,2.585,0,0,1-2.883-1.426ZM17.842,57.7a1.628,1.628,0,0,1-1.224-.047,14.486,14.486,0,0,1-4.91-3,4.95,4.95,0,0,1-.618-.881c-.229-.362.071-.655.234-.884.111-.156.419.075.607.2a28.8,28.8,0,0,0,3.7,2.369,7.121,7.121,0,0,0,4.364.684,19.327,19.327,0,0,1,3.979-.533c2.616.1,3.96,1.947,4.595,4.009.164.533-.3.449-.62.455-.185,0-.37,0-.808,0-1.722-.49-3.771.017-5.75-.44-.187-.043-.358-.042-.358-.3a1.212,1.212,0,0,0-.784-1.287,3.707,3.707,0,0,0-2.408-.354m2.082,2.383c-.081,1.038-.336,1.314-1.261,1.328-.11,0-.22,0-.33,0-.183,0-.367-.01-.55,0-.586.038-.6-.173-.323-.619a3.983,3.983,0,0,0,.318-.893c.287-.878.579-1.09,1.361-.927a.925.925,0,0,1,.785,1.109m-7.377-8.5c.458-.263.939-.484,1.4-.742.189-.106.136.069.248.172-.454.369-.539,1-.958,1.366-.253.219-.414-.245-.62-.393-.123-.089-.345-.245-.07-.4m14.76,3.982a1.32,1.32,0,0,1-.481-.827c-.187-.762-.32-1.537-.46-2.309A1.135,1.135,0,0,1,27.7,51.308a.95.95,0,0,1,.692.843,18.555,18.555,0,0,0,.966,3.721,2.31,2.31,0,0,0,1.787,1.474c1.589.306,3.2.518,4.806.715.424.052.725.064.637.6a.55.55,0,0,0,.01.328c.255.448.481,1.257.346,1.383-.391.366-1.04.088-1.709.184a31.33,31.33,0,0,0-4.588-.248c-.663.057-.846-.466-.92-.878a5.592,5.592,0,0,0-2.42-3.862m1.3-5.357c.132-.153.226-.4.507-.323.107.028.126.076.068.163l-.491.432c-.031-.094-.117-.234-.084-.273m1.1,1.075a.534.534,0,0,1,.572-.536c.823-.045.651,1,1.332,1.19.319.089-.068.469-.162.631-.305.526-.741.976-1.072,1.49-.26.4-.4-.029-.4-.078-.042-.649-.441-1.247-.274-1.839,0-.341-.016-.6,0-.858M34,54.473c.637.316,1.279.621,1.915.939.436.217,1.05.329.875,1.024-.171.677-.778.042-1.046.37-1.51-.282-2.987-.333-4.409-.733-.464-.131-.666-.271-.294-.819,1.138-1.679,1.1-1.7,2.959-.78m-.555-1.733c-.158-.1-.445-.139-.294-.436a.448.448,0,0,1,.575-.209,7.93,7.93,0,0,1,.874.43q6.763,3.383,13.521,6.776c.159.08.473.046.454.367-.122.23-.193.425-.552.239-.691-.358-1.439-.606-2.138-.951q-3.8-1.87-7.581-3.779a52.614,52.614,0,0,1-4.859-2.437m14.969,5.252c-.3-.231-.982-.233-.892-.606.153-.632.181-1.383.8-1.84a.618.618,0,0,1,.488-.125,9.085,9.085,0,0,1,1.07.534c.541.354.048.694-.094,1a1.688,1.688,0,0,0-.082.97c.094.681-.328.422-.609.358a1.78,1.78,0,0,1-.68-.295m6.694,3.3c.111-.185.294-.1.445-.107.179-.012.414.024.329.257-.1.285-.252-.045-.393-.041s-.287.054-.381-.109m2.365-10.1a.119.119,0,0,1,.205-.1c.3.482.783.878.856,1.458.037.3-.333.178-.525.188-.238.013-.549.093-.543-.326,0-.221,0-.443,0-.664h.006c0-.184,0-.369,0-.553m-16.945.385a4.653,4.653,0,0,1,6.351-1.089c1.293.791,2.326,1.94,3.624,2.7a7.2,7.2,0,0,0,5.273.957,16.375,16.375,0,0,1,2.867-.07c.376-.013.424.12.262.467a1.919,1.919,0,0,1-1.63,1.025,6.452,6.452,0,0,1-2.522.253c-1.074.181-2.02-.252-3.02-.228-.562.013-.985-.543-1.469-.844a8.538,8.538,0,0,0-1.055-.485,1.508,1.508,0,0,0-1.905.521c-.182.191-.3.4-.7.2-2-1.008-4.027-1.952-6.047-2.914-.331-.157-.183-.318-.03-.5M33.58,49.884c2.144,1.061,4.257,2.185,6.407,3.233,1.987.968,4.039,1.8,5.939,2.948.4.243.42.214.434.443.022.8-.474.213-.587.159-3.085-1.485-6.169-2.973-9.222-4.523a13.088,13.088,0,0,1-3.3-1.742c-.147-.137-.6-.041-.379-.482.216-.425.53-.124.709-.036M21.385,44.52a1.865,1.865,0,0,0,.545-1.044,5.415,5.415,0,0,1,2.57-4.208,5.864,5.864,0,0,1,4.06-1.2,4.434,4.434,0,0,1,3.808,3.168c.125.524.343,1.029.424,1.558a10.959,10.959,0,0,1,.015,1.556,14.992,14.992,0,0,1-.879,4.757c-.049.2-.132.4-.277.436-.243.054-.291-.209-.411-.381a27.37,27.37,0,0,0-1.916-2.742,9.365,9.365,0,0,0-4.232-2.762.589.589,0,0,0-.847.419.634.634,0,0,0,.552.862,7.176,7.176,0,0,1,2.9,1.575,2.664,2.664,0,0,1,.239.189c1.016.959,1.013,1.289.047,2.325a6.543,6.543,0,0,1-3.864,2.21,3.231,3.231,0,0,1-3.741-2.288,4.99,4.99,0,0,1,1.012-4.428M7.274,51.362A11.225,11.225,0,0,1,14.61,45.9a8.064,8.064,0,0,1,3.539-.028c.566.114,1.068.366.9,1.142a5.021,5.021,0,0,0-.012,1,4.489,4.489,0,0,0,5.476,4.418c.407-.087.462-.038.605.253a1.913,1.913,0,0,1,.146.517c.291,1.486.3,1.444-1.256,1.279a15.934,15.934,0,0,0-3.724.34c-.463.06-.935.082-1.4.139-1.715.184-2.992-.862-4.383-1.57-.3-.152-.016-.357.062-.546a17.463,17.463,0,0,1,1.614-2.9c.218-.334.262-.568-.026-.868-.252-.262-.42-.282-.823-.17a12.941,12.941,0,0,0-4.505,2.428,2.873,2.873,0,0,0-.267,3.93,11.485,11.485,0,0,0,3.1,2.355,21.309,21.309,0,0,0,2.208,1.1c.522.217.907.409.666,1.072-.292.8-.843,1.315-1.44,1.156a15,15,0,0,1-7.193-3.688,4.983,4.983,0,0,1-.62-5.9m6.519,11.791a12.9,12.9,0,0,0-2.718-.191,2.05,2.05,0,0,1-.646-.077.373.373,0,0,1-.25-.435c.049-.174.224-.148.36-.15.367-.006.735,0,1.1,0a33.156,33.156,0,0,0,4.144.231c.15-.009.47-.155.442.183-.018.215-.08.5-.459.481a9.951,9.951,0,0,1-1.975-.04m.748,1.461a2.967,2.967,0,0,1-3.193-.315c1.221.068,2.233-.232,3.193.315m-4.281-3.858c.024-.085.189-.214.227-.2a3.72,3.72,0,0,1,.492.334l-.395.089c-.126-.083-.419.108-.324-.228m-3.1-2.812a.773.773,0,0,1,.5.487c.029.169-.1.272-.147.215-.147-.194-.572-.055-.527-.435.011-.094-.08-.352.175-.267M7,60.076a4.075,4.075,0,0,1,1.789.219c.14.067.263.1.221.3-.071.162-.219.364-.381.28-.524-.27-1.066-.064-1.594-.127-.216-.026-.432,0-.445-.318s.17-.354.41-.351m-.08,2c.517,0,1.034.011,1.55-.006.313-.01.34.2.386.416.092.431-.254.214-.394.243a3.368,3.368,0,0,1-.662.011v0H6.913c-.221,0-.325-.1-.324-.333s.113-.327.33-.327M16.154,85.4c-.923,0-1.846,0-2.768,0-1.149,0-2.3,0-3.446,0-.163,0-.387.087-.461-.148-.049-.156.086-.259.193-.365a6.382,6.382,0,0,1,2.78-1.52,3.754,3.754,0,0,1,3.4.763,2.065,2.065,0,0,1,.591.764c.239.431.121.513-.29.512m.422-8.424a28.5,28.5,0,0,0-1.037,4.143c-.167.874-.414,1.131-1.224.953a1.49,1.49,0,0,0-.417-.006,6.648,6.648,0,0,0-5.878,2.7,1.812,1.812,0,0,1-.489.5.985.985,0,0,1-1.039.054c-.343-.268.122-.564.235-.813,1.523-3.372,3.177-6.689,4.382-10.194.257-.749.678-1.545.171-2.4-.122-.206-.018-.427.309-.568,1.433-.62,2.731-1.5,4.228-2.028.846-.3.88.189.978.643a12.689,12.689,0,0,1-.221,7.017m4.887,7.611a4.363,4.363,0,0,1-.449.485.9.9,0,0,1-.3.111c.257-2.061.441-4.106.786-6.124.243-1.422.252-2.872.612-4.28a2.109,2.109,0,0,0-.223-1.694A28.027,28.027,0,0,0,19.9,70.153c-.121-.142-.442-.232-.279-.479.07-.106.32-.032.507.035a10.37,10.37,0,0,0,4.275.583,1.966,1.966,0,0,0,.946-.165c.659-.37,1.142-.066,1.364.628A3.577,3.577,0,0,1,27.01,72c-.092,1.33.281,2.617.267,3.944-.02,1.8.3,3.585.21,5.391-.024.5.01.751-.7.708a6.17,6.17,0,0,0-5.325,2.547m8.347.4c.328.382.007.232-.267.278a32.583,32.583,0,0,1-4.422.132c-.664.02-1.329.008-1.993,0-.17,0-.388.077-.493-.12-.114-.212.07-.347.206-.455a6.882,6.882,0,0,1,3.545-1.637,4.084,4.084,0,0,1,3.423,1.8m-1.671-19.31A4.966,4.966,0,0,1,24.55,69a8.255,8.255,0,0,1-4.3-.586,8.387,8.387,0,0,0-7.59.963,10.569,10.569,0,0,1-6.62,1.6,5.2,5.2,0,0,1-4.108-3.229,10.01,10.01,0,0,1-.488-5.212c.177-.813-.042-1.7.051-2.545A15.95,15.95,0,0,1,2.77,54.351a5.34,5.34,0,0,1,2.548-2.2c.307-.17.311-.066.212.26A5.4,5.4,0,0,0,5.94,56.6l.154.3c-.143.02-.306.093-.425.049a2.361,2.361,0,0,0-.716-.207c-1.154-.064-1.527.206-1.453,1.336.08,1.223-.418,2.392-.226,3.539a13.629,13.629,0,0,1-.2,2.254c-.335,1.3.109,1.762,1.434,1.765a7.018,7.018,0,0,1,.777,0c.791.091,1.222-.173,1.086-1.04-.075-.478.195-.551.586-.524a4.768,4.768,0,0,0,1,0,2.516,2.516,0,0,1,2.4.96,4.007,4.007,0,0,0,5.707.109A1.543,1.543,0,0,1,18,64.671a.862.862,0,0,0,.429.065c1.919-.159,3.81.264,5.727.256,1.237-.005,2.478.286,3.727.184.593-.048.335.289.258.5M5.475,58.648c.023.256.005.516.005.774a21.651,21.651,0,0,0-.222,4.372c0,.265.019.526-.38.505-.267-.014-.6,0-.5-.374.464-1.756-.057-3.584.418-5.337.065-.239-.024-.534.38-.512.433.023.277.351.3.572m22.65,5.214a1.624,1.624,0,0,0-.443-.008,58.05,58.05,0,0,1-6.165-.274c-1.2-.032-2.406-.161-3.614-.173-.235,0-.439-.018-.426-.348s.235-.315.455-.317c.37,0,.74,0,1.374,0,2.551.169,5.364.349,8.181.486,2.15.1,4.3.278,6.455.408.248.015.662-.177.637.344-.024.5-.439.333-.67.3-1.92-.25-3.874-.034-5.784-.421m6.287,4.416a17.63,17.63,0,0,1-1.917-.656c-.928-.374-1.847-.774-2.747-1.209-.09-.043-.578.035-.335-.453.149-.3.12-.615.589-.562a12.615,12.615,0,0,0,1.265.008c.951-.2,2.008.369,3.114.224.346-.045.434.142.432.458A4.689,4.689,0,0,0,35,67.824c.189.505-.273.542-.592.455m3.361-2.818A6.231,6.231,0,0,1,36.219,67.1c.045-.975-.376-1.837-.327-2.766.031-.587.189-.745.751-.715,1.181.064,1.634.807,1.129,1.842m1.5-2.724a15.479,15.479,0,0,1-2.143-.291,3.378,3.378,0,0,0-1.923-.015c-.575.178-1.1-.163-1.685-.156-3.262.039-6.5-.433-9.767-.477-.925-.012-1.89-.109-2.958-.2.72-1.01,1.606-.582,2.39-.541a4.172,4.172,0,0,0,.63.126,53.367,53.367,0,0,1,6.049.261c2.7.1,5.395.413,8.1.426.454,0,.9.277,1.386.21.209-.028.331.076.341.312.014.322-.185.371-.423.344m2.171,2c-.522.035-.84-.054-.525-.666.23-.447.068-.944.108-1.416.023-.274-.055-.731.392-.547.325.133,1.057-.053.916.629a12.189,12.189,0,0,0-.212,1.718c-.03.478-.452.212-.679.282m3.244,20.413c-.123.289-.629.3-1.177.2-1.646.1-3.462.02-5.278.025-.181,0-.412.091-.509-.089s.11-.313.209-.465a3.378,3.378,0,0,1,3.8-1.452,5.171,5.171,0,0,1,2.344.992c.254.215.763.434.612.789m3.8-15.968a19.9,19.9,0,0,0-2.579,3.46,3.071,3.071,0,0,0-.421,2.3c.432,2.527.633,5.084,1.045,7.615a6.861,6.861,0,0,1,.246,2.486l-.268.228a16.707,16.707,0,0,0-1.833-2.038,5.228,5.228,0,0,0-4.047-1.165c-.689.086-.894-.231-.639-.815a1.964,1.964,0,0,0,.141-.968c-.154-2.138.263-4.251.245-6.387-.024-2.975,1.487-5.258,3.52-7.271a1.08,1.08,0,0,1,.876-.343c.29.012.743.075.847-.076.624-.911.955-.208,1.394.172a16.989,16.989,0,0,1,1.566,2.072c.213.248.185.465-.091.726m-5.017-5.508c0-.147,0-.294,0-.441.006-.9.391-1.177,1.271-.94.23.062.268.177.287.378a4.323,4.323,0,0,1-.369,2.208c-.107.236-.685.094-1.043.054-.131-.015-.153-.222-.149-.377.008-.294,0-.588,0-.882M58.114,85.253c-.058.169-.223.146-.368.146-2.073,0-4.145,0-6.218,0-.206,0-.535.1-.591-.074-.063-.2.1-.456.267-.66A3.783,3.783,0,0,1,54.3,83.177a6.591,6.591,0,0,1,3.646,1.7c.108.1.228.213.173.374m.235-6.237c.844,1.926,1.69,3.854,2.624,5.737.249.5.512.681-.333.472-.655.38-.86-.129-1.251-.619a6.767,6.767,0,0,0-6.58-2.5c-.48.064-.6.029-.683-.441-.411-2.325-1.076-4.591-1.624-6.884a5.538,5.538,0,0,1,.041-2.9c.135-.462.146-.424.48-.157a9.155,9.155,0,0,0,4.989,2.344c.483.038.444.448.553.695.622,1.407,1.167,2.848,1.785,4.258m-1.687-6.26A7.086,7.086,0,0,1,51.136,69.9c-1.271-1.527-2-3.49-3.6-4.718-1.045-.8-1.688-1.553-1.2-2.95.233-.666-.083-1.169-.926-1.048-.486.07-.882-.3-1.388-.242s-.311-.395-.32-.643c-.016-.458-.215-.673-.676-.673s-.689.218-.663.675c.024.406.006.711-.558.673-.477-.032-.8-.139-.778-.685,0-.074,0-.148,0-.222.012-.391-.15-.659-.564-.653s-.54.284-.555.669c-.01.249.176.662-.328.647-.444-.014-.924.178-1.235-.428a7.266,7.266,0,0,1-.412-3.537c0-.348.249-.2.467-.11a31.877,31.877,0,0,1,3.18,1.52c1.959,1.108,4.057,1.909,6.028,2.977a1.749,1.749,0,0,1,1,1.1,4.841,4.841,0,0,0,4.131,3.149,1.567,1.567,0,0,0,.619-.171,2.89,2.89,0,0,1,3.063.315,2.5,2.5,0,0,0,.86.426c.4.122.317.311.188.592-.5,1.094-.488,1.2.543,1.666.549.247,1.052.808,1.653.684.665-.137.7-.932.967-1.453.917-1.774,1.8-3.566,2.689-5.352.27-.541.253-.981-.42-1.2a2.21,2.21,0,0,1-.277-.171c-1.135-.572-1.125-.558-.171-1.3a5.519,5.519,0,0,0,1.651-2.655c.122-.341.066-.589.444-.19a3.858,3.858,0,0,1,1.083,3.273A26.738,26.738,0,0,1,61.224,70a6.8,6.8,0,0,1-2.639,2.44,4.607,4.607,0,0,1-1.922.319" transform="translate(0 -19.918)" fill="#315820"/>
          <path id="Path_426" data-name="Path 426" d="M19.913,10.682c-.275-1-.506-2.019-.854-3a3,3,0,0,1-.082-1.573c.16-1.031.328-2.056.531-3.081.17-.86-.236-1.1-1.155-1.1-1.376-.01-2.779.239-4.112-.366C13.406,1.183,12.6.735,11.76.368c-.11-.048-.221-.1-.332-.158A1.058,1.058,0,0,0,10.313.131a1.814,1.814,0,0,0-.59,1C9.068,3.01,8.318,4.854,6.617,6.1a5.312,5.312,0,0,0-.79.775.98.98,0,0,0,.158,1.585A15.585,15.585,0,0,1,7.517,9.65c.812.573,1.75,1.127,2.007,2.226A20.747,20.747,0,0,0,10.7,14.283c.246.66.822.726,1.414.3.731-.522,1.466-1.042,2.217-1.536a5.46,5.46,0,0,1,2.6-.926,14.073,14.073,0,0,0,2.335-.356c.715-.186.812-.5.651-1.087M17.919,10.6c-.98.027-1.892.411-2.87.484-.875.065-1.426.888-2.2,1.235-.19.085-.3.325-.484.446-.419.282-.781.378-1.043-.244a12.085,12.085,0,0,1-.838-1.59,3.984,3.984,0,0,0-1.9-2.193c-.4-.29-.588-.774-1.076-.963-.258-.1-.276-.611-.093-.628.678-.063.754-.713,1.157-1.029a4.937,4.937,0,0,0,1.871-3.2A1.478,1.478,0,0,1,11.38,1.7a12.448,12.448,0,0,1,1.676.8,6.021,6.021,0,0,0,3.2.78c.258.013.522-.028.775.011.831.127.914.294.759,1.149a7.586,7.586,0,0,0,.278,4.776c.139.29.032.593.181.839.255.425-.045.536-.33.544" transform="translate(-4.277 0)" fill="#315820"/>
          <path id="Path_427" data-name="Path 427" d="M99.79,31.534c-.742-.886-1.713-1.595-1.681-2.973a.987.987,0,0,0-.923-.96,1.189,1.189,0,0,0-.79.146,5.489,5.489,0,0,1-3.322.78c-1.278-.079-1.476.047-1.259,1.371a6.422,6.422,0,0,1-.43,3.421c-.381,1.028.019,1.422,1.107,1.651.93.2,1.913.086,2.635,1.137s1.626.783,2.206-.342a4.386,4.386,0,0,1,2.11-2.231c1.14-.512,1.161-1.028.347-2m-1.575.986a5.218,5.218,0,0,0-1.744,1.9c-.355.558-.64.577-1.021.1a1.866,1.866,0,0,0-1.539-.693c-.827-.021-.977-.292-.818-1.123a6.95,6.95,0,0,0,.229-2.253c-.066-.482.124-.634.61-.621a3.415,3.415,0,0,0,2.4-.414c.114-.088.542-.412.582.254a2.369,2.369,0,0,0,.907,1.653c.295.243.385.607.617.886a.347.347,0,0,1-.219.312" transform="translate(-70.959 -21.454)" fill="#315820"/>
          <path id="Path_428" data-name="Path 428" d="M158.112,20.656c-.466-.707-1.24-1.306-1.182-2.252.053-.867-.386-.868-1.036-.843a4.644,4.644,0,0,0-1.43.447c-.6.216-.967-.187-1.492-.2h-.064a.831.831,0,0,0-.867.863,5.477,5.477,0,0,1-.573,2.716c-.339.868-.2,1.277.72,1.532a5.92,5.92,0,0,1,2.394,1.33c.46.408.828.355,1.244-.2.493-.66.853-1.443,1.875-1.662.866-.185.914-.962.412-1.725m-1.624.711a2.734,2.734,0,0,0-1.309,1.332c-.143.3-.252.121-.378.01-.083-.073-.159-.153-.237-.232-.456-.463-1.159-.462-1.641-.876a2.049,2.049,0,0,0,.436-1.725c0-.207-.062-.458.27-.5.642-.074,1.317.164,1.931-.207a.205.205,0,0,1,.177.082,4.342,4.342,0,0,0,1.021,2.071.482.482,0,0,0-.271.041" transform="translate(-117.66 -13.651)" fill="#315820"/>
        </g>
      </g>
    </g>
  </g>
</svg>
