<svg xmlns="http://www.w3.org/2000/svg" xmlns:xlink="http://www.w3.org/1999/xlink" width="80" height="80" viewBox="0 0 80 80">
  <defs>
    <clipPath id="clip-path">
      <rect id="Rectangle_2590" data-name="Rectangle 2590" width="48.98" height="48.981" fill="#315820"/>
    </clipPath>
  </defs>
  <g id="Group_765" data-name="Group 765" transform="translate(1778 5252)">
    <rect id="Rectangle_2583" data-name="Rectangle 2583" width="80" height="80" transform="translate(-1778 -5252)" fill="#9dcb20"/>
    <g id="Group_737" data-name="Group 737" transform="translate(-1768 -5242)">
      <g id="Group_736" data-name="Group 736" transform="translate(5.105 5.105)" clip-path="url(#clip-path)">
        <path id="Path_467" data-name="Path 467" d="M45.633,40.989A4.595,4.595,0,1,0,50.206,45.6a4.613,4.613,0,0,0-4.572-4.613m-.022,7.14a2.545,2.545,0,1,1,.01-5.09,2.51,2.51,0,0,1,2.535,2.546,2.536,2.536,0,0,1-2.545,2.544" transform="translate(-36.764 -36.737)" fill="#315820"/>
        <path id="Path_468" data-name="Path 468" d="M47.96,346.267c.648-.649,1.3-1.295,1.942-1.95a1.02,1.02,0,0,0-.563-1.7,1.122,1.122,0,0,0-1.04.4c-.863.876-1.738,1.741-2.606,2.614-.075.076-.118.109-.209.016-.292-.3-.606-.572-.89-.876-.6-.645-1.244-1.252-1.863-1.88a1.007,1.007,0,0,0-.751-.291,1.63,1.63,0,0,0-.212.029,1.016,1.016,0,0,0-.475,1.715c.831.85,1.676,1.686,2.517,2.526.325.325.326.319-.006.651q-1.248,1.244-2.491,2.493a1.022,1.022,0,1,0,1.423,1.468q1.36-1.338,2.7-2.7c.125-.126.185-.117.3.005q1.317,1.337,2.65,2.658A1.027,1.027,0,1,0,49.837,350q-1.343-1.34-2.686-2.681c-.091-.09-.113-.14-.006-.241.279-.261.544-.537.815-.807" transform="translate(-36.735 -307.062)" fill="#315820"/>
        <path id="Path_469" data-name="Path 469" d="M345.538,45.746c-.26.24-.5.5-.755.749-.667.67-1.341,1.332-2,2.013a.951.951,0,0,0-.169,1.088,1.015,1.015,0,0,0,.992.6,1.029,1.029,0,0,0,.724-.348c.877-.882,1.76-1.759,2.636-2.642.112-.113.169-.142.3-.008.882.9,1.774,1.784,2.666,2.671a1.024,1.024,0,1,0,1.457-1.436c-.4-.408-.811-.8-1.206-1.212-.491-.511-1.033-.97-1.508-1.5-.082-.091-.1-.136,0-.229.292-.277.572-.567.857-.852q.92-.921,1.839-1.842a1,1,0,0,0,.284-1.086,1.024,1.024,0,0,0-1.738-.36q-1.336,1.317-2.653,2.655c-.125.127-.183.122-.3,0-.878-.891-1.767-1.772-2.648-2.659a1.075,1.075,0,0,0-.738-.337,1.026,1.026,0,0,0-.725,1.776q1.341,1.342,2.686,2.68c.111.11.116.166,0,.274" transform="translate(-306.99 -36.761)" fill="#315820"/>
        <path id="Path_470" data-name="Path 470" d="M198.216,346.782c.8-.809,1.611-1.611,2.414-2.42a1.023,1.023,0,1,0-1.441-1.452q-1.348,1.336-2.682,2.686c-.119.121-.176.107-.287,0-.88-.89-1.768-1.771-2.65-2.659a1.037,1.037,0,0,0-.775-.344,1,1,0,0,0-.823.414,1.012,1.012,0,0,0,.133,1.363q1.314,1.324,2.639,2.637c.135.133.161.2.008.35-.884.866-1.753,1.747-2.63,2.62a1.076,1.076,0,0,0-.348.712,1.025,1.025,0,0,0,1.778.758q1.342-1.34,2.679-2.685c.115-.116.166-.1.272,0q1.327,1.341,2.665,2.67a1.026,1.026,0,1,0,1.45-1.448q-1.2-1.2-2.4-2.4c-.127-.127-.339-.253-.35-.392-.012-.161.222-.276.351-.407" transform="translate(-171.874 -307.048)" fill="#315820"/>
        <path id="Path_471" data-name="Path 471" d="M196.4,191.81a4.594,4.594,0,1,0,4.587,4.595,4.6,4.6,0,0,0-4.587-4.595m-.011,7.139a2.545,2.545,0,1,1,2.549-2.542,2.547,2.547,0,0,1-2.549,2.542" transform="translate(-171.906 -171.913)" fill="#315820"/>
        <path id="Path_472" data-name="Path 472" d="M347.207,342.589a4.6,4.6,0,1,0,4.584,4.641,4.594,4.594,0,0,0-4.584-4.641m0,7.144a2.546,2.546,0,1,1,2.534-2.55,2.555,2.555,0,0,1-2.534,2.55" transform="translate(-307.064 -307.051)" fill="#315820"/>
        <path id="Path_473" data-name="Path 473" d="M48.98,28.99a1.123,1.123,0,0,0-.192-.67,1.029,1.029,0,0,0-1.144-.391,1.014,1.014,0,0,0-.712.974c-.007.723-.008,1.447,0,2.17,0,.172-.041.221-.216.221q-6.573-.007-13.145,0c-.2,0-.238-.057-.238-.243q.008-6.562,0-13.125c0-.191.049-.242.24-.241,1.885.007,3.77,0,5.655,0,2.483,0,4.966,0,7.449-.006.22,0,.268.064.256.267-.017.291,0,.584,0,.876,0,.64-.009,1.28,0,1.92a1.012,1.012,0,0,0,1.5.9,1.035,1.035,0,0,0,.552-1q0-4.831,0-9.661,0-4.862,0-9.724a1.675,1.675,0,0,0-.059-.557A1.047,1.047,0,0,0,47.812,0H1.138A1.038,1.038,0,0,0,0,1.126C0,1.807,0,2.489,0,3.17q0,8.388,0,16.776a1.19,1.19,0,0,0,.192.712,1.03,1.03,0,0,0,1.143.394,1.012,1.012,0,0,0,.715-.972q.011-1.085,0-2.17c0-.166.031-.225.213-.224q6.573.008,13.145,0c.191,0,.242.046.241.239q-.009,6.562,0,13.125c0,.182-.035.246-.235.246q-6.573-.009-13.145,0c-.172,0-.22-.043-.219-.218.009-.932,0-1.864.005-2.8a1.043,1.043,0,0,0-.274-.743,1.015,1.015,0,0,0-1.127-.255A1.051,1.051,0,0,0,0,28.328q0,9.724,0,19.447a1.06,1.06,0,0,0,1.2,1.205H47.8a1.05,1.05,0,0,0,1.175-1.169c0-.932,0-1.864,0-2.8q0-8.013,0-16.025M33.611,2.052q6.539,0,13.079,0c.2,0,.244.058.243.247,0,.826.017,1.653.01,2.478-.032,3.56,0,7.119-.009,10.679,0,.187-.079.194-.221.193q-3.285,0-6.571,0c-2.19,0-4.38,0-6.571,0-.188,0-.242-.044-.242-.238q.008-6.54,0-13.079c0-.322-.037-.277.277-.277M31.294,31.034c0,.212-.051.263-.262.262-2.184-.008-4.367-.005-6.551-.005s-4.367,0-6.551,0c-.185,0-.244-.039-.243-.237q.009-6.572,0-13.144c0-.188.051-.228.232-.228q6.572.008,13.144,0c.185,0,.244.054.24.228-.009.36-.012.721-.012,1.082q0,6.019,0,12.039m-13.6-22.2c0-2.184,0-4.367,0-6.551,0-.191.05-.241.24-.241q6.561.008,13.122,0c.182,0,.245.038.244.237q-.01,6.561,0,13.123c0,.193-.052.239-.241.239q-6.561-.008-13.122,0c-.184,0-.244-.039-.244-.236.007-2.191,0-4.381,0-6.572m-2.044,31.28q0,3.286,0,6.571c0,.183-.036.244-.236.244q-6.54-.01-13.08-.005c-.283,0-.284,0-.284-.281q0-6.551-.006-13.1c0-.208.085-.216.245-.216q5.236,0,10.472,0c.882,0,1.764,0,2.646,0,.186,0,.243.045.243.239-.007,2.183,0,4.367,0,6.55M15.4,15.646q-3.286-.008-6.573,0t-6.573,0c-.157,0-.212-.031-.212-.2q.008-6.552,0-13.1c0-.286,0-.286.279-.286q6.552,0,13.1,0c.179,0,.216.052.216.221q-.007,6.572,0,13.145c0,.2-.068.234-.247.233M31.069,46.937c-.574,0-1.148,0-1.722,0q-5.675-.008-11.349,0c-.372,0-.3.03-.3-.313q0-6.53-.006-13.061c0-.192.059-.226.233-.226q3.3.008,6.593,0c2.177,0,4.353,0,6.53,0,.2,0,.252.044.252.249q-.01,6.082,0,12.163c0,.312.008.624.015.936,0,.164-.022.259-.236.259m15.86-10.093q0,4.9,0,9.808c0,.278,0,.278-.285.278q-6.542,0-13.083,0c-.181,0-.232-.04-.232-.227q.009-6.563,0-13.126c0-.2.048-.254.251-.253,2.191.008,4.382,0,6.573,0h5.676c.3,0,.6.009.894-.012.176-.013.209.045.209.206-.006,1.106,0,2.212,0,3.318" fill="#315820"/>
        <path id="Path_474" data-name="Path 474" d="M1.041,224.986a1.031,1.031,0,0,1-1.02-1.024,1.045,1.045,0,0,1,1.025-1.025,1.03,1.03,0,0,1,1.024,1.04,1.014,1.014,0,0,1-1.029,1.008" transform="translate(-0.019 -199.812)" fill="#315820"/>
        <path id="Path_475" data-name="Path 475" d="M452.4,230.516a1.017,1.017,0,0,1,1.014-1.024,1.034,1.034,0,0,1,1.036,1.03,1.047,1.047,0,0,1-1.032,1.019,1.031,1.031,0,0,1-1.018-1.025" transform="translate(-405.475 -205.686)" fill="#315820"/>
      </g>
    </g>
  </g>
</svg>
